<?xml version="1.0" encoding="UTF-8"?>
<!--Generator: Apple Native CoreSVG 175.5-->
<!DOCTYPE svg
PUBLIC "-//W3C//DTD SVG 1.1//EN"
       "http://www.w3.org/Graphics/SVG/1.1/DTD/svg11.dtd">
<svg version="1.1" xmlns="http://www.w3.org/2000/svg" xmlns:xlink="http://www.w3.org/1999/xlink" width="3300" height="2200">
 <!--glyph: "", point size: 100.0, font version: "18.0d12e2", template writer version: "101"-->
 <g id="Notes">
  <rect height="2200" id="artboard" style="fill:white;opacity:1" width="3300" x="0" y="0"/>
  <line style="fill:none;stroke:black;opacity:1;stroke-width:0.5;" x1="263" x2="3036" y1="292" y2="292"/>
  <text style="stroke:none;fill:black;font-family:sans-serif;font-size:13;font-weight:bold;" transform="matrix(1 0 0 1 263 322)">Weight/Scale Variations</text>
  <text style="stroke:none;fill:black;font-family:sans-serif;font-size:13;text-anchor:middle;" transform="matrix(1 0 0 1 559.711 322)">Ultralight</text>
  <text style="stroke:none;fill:black;font-family:sans-serif;font-size:13;text-anchor:middle;" transform="matrix(1 0 0 1 856.422 322)">Thin</text>
  <text style="stroke:none;fill:black;font-family:sans-serif;font-size:13;text-anchor:middle;" transform="matrix(1 0 0 1 1153.13 322)">Light</text>
  <text style="stroke:none;fill:black;font-family:sans-serif;font-size:13;text-anchor:middle;" transform="matrix(1 0 0 1 1449.84 322)">Regular</text>
  <text style="stroke:none;fill:black;font-family:sans-serif;font-size:13;text-anchor:middle;" transform="matrix(1 0 0 1 1746.56 322)">Medium</text>
  <text style="stroke:none;fill:black;font-family:sans-serif;font-size:13;text-anchor:middle;" transform="matrix(1 0 0 1 2043.27 322)">Semibold</text>
  <text style="stroke:none;fill:black;font-family:sans-serif;font-size:13;text-anchor:middle;" transform="matrix(1 0 0 1 2339.98 322)">Bold</text>
  <text style="stroke:none;fill:black;font-family:sans-serif;font-size:13;text-anchor:middle;" transform="matrix(1 0 0 1 2636.69 322)">Heavy</text>
  <text style="stroke:none;fill:black;font-family:sans-serif;font-size:13;text-anchor:middle;" transform="matrix(1 0 0 1 2933.4 322)">Black</text>
  <line style="fill:none;stroke:black;opacity:1;stroke-width:0.5;" x1="263" x2="3036" y1="1903" y2="1903"/>
  <g transform="matrix(1 0 0 1 263 1933)">
   <path d="M9.24805 0.830078C13.5547 0.830078 17.1387-2.74414 17.1387-7.05078C17.1387-11.3574 13.5449-14.9316 9.23828-14.9316C4.94141-14.9316 1.36719-11.3574 1.36719-7.05078C1.36719-2.74414 4.95117 0.830078 9.24805 0.830078ZM9.24805-0.654297C5.70312-0.654297 2.87109-3.49609 2.87109-7.05078C2.87109-10.6055 5.69336-13.4473 9.23828-13.4473C12.793-13.4473 15.6445-10.6055 15.6445-7.05078C15.6445-3.49609 12.8027-0.654297 9.24805-0.654297ZM5.6543-7.05078C5.6543-6.62109 5.95703-6.32812 6.40625-6.32812L8.50586-6.32812L8.50586-4.20898C8.50586-3.76953 8.79883-3.4668 9.22852-3.4668C9.67773-3.4668 9.9707-3.76953 9.9707-4.20898L9.9707-6.32812L12.0898-6.32812C12.5293-6.32812 12.832-6.62109 12.832-7.05078C12.832-7.49023 12.5293-7.79297 12.0898-7.79297L9.9707-7.79297L9.9707-9.90234C9.9707-10.3516 9.67773-10.6543 9.22852-10.6543C8.79883-10.6543 8.50586-10.3516 8.50586-9.90234L8.50586-7.79297L6.40625-7.79297C5.95703-7.79297 5.6543-7.49023 5.6543-7.05078Z"/>
  </g>
  <g transform="matrix(1 0 0 1 281.867 1933)">
   <path d="M11.709 2.91016C17.1582 2.91016 21.6699-1.61133 21.6699-7.05078C21.6699-12.5 17.1484-17.0117 11.6992-17.0117C6.25977-17.0117 1.74805-12.5 1.74805-7.05078C1.74805-1.61133 6.26953 2.91016 11.709 2.91016ZM11.709 1.25C7.09961 1.25 3.41797-2.44141 3.41797-7.05078C3.41797-11.6602 7.08984-15.3516 11.6992-15.3516C16.3086-15.3516 20.0098-11.6602 20.0098-7.05078C20.0098-2.44141 16.3184 1.25 11.709 1.25ZM7.17773-7.05078C7.17773-6.57227 7.50977-6.25 8.00781-6.25L10.8789-6.25L10.8789-3.36914C10.8789-2.88086 11.2109-2.53906 11.6895-2.53906C12.1777-2.53906 12.5195-2.87109 12.5195-3.36914L12.5195-6.25L15.4004-6.25C15.8887-6.25 16.2305-6.57227 16.2305-7.05078C16.2305-7.53906 15.8887-7.88086 15.4004-7.88086L12.5195-7.88086L12.5195-10.752C12.5195-11.25 12.1777-11.5918 11.6895-11.5918C11.2109-11.5918 10.8789-11.25 10.8789-10.752L10.8789-7.88086L8.00781-7.88086C7.50977-7.88086 7.17773-7.53906 7.17773-7.05078Z"/>
  </g>
  <g transform="matrix(1 0 0 1 305.646 1933)">
   <path d="M14.9707 5.66406C21.9336 5.66406 27.6953-0.0976562 27.6953-7.05078C27.6953-14.0137 21.9238-19.7754 14.9609-19.7754C8.00781-19.7754 2.25586-14.0137 2.25586-7.05078C2.25586-0.0976562 8.01758 5.66406 14.9707 5.66406ZM14.9707 3.84766C8.93555 3.84766 4.08203-1.01562 4.08203-7.05078C4.08203-13.0957 8.92578-17.9492 14.9609-17.9492C21.0059-17.9492 25.8691-13.0957 25.8691-7.05078C25.8691-1.01562 21.0156 3.84766 14.9707 3.84766ZM9.19922-7.05078C9.19922-6.5332 9.57031-6.17188 10.1172-6.17188L14.0625-6.17188L14.0625-2.2168C14.0625-1.67969 14.4336-1.29883 14.9512-1.29883C15.4883-1.29883 15.8594-1.66992 15.8594-2.2168L15.8594-6.17188L19.8145-6.17188C20.3516-6.17188 20.7324-6.5332 20.7324-7.05078C20.7324-7.59766 20.3613-7.96875 19.8145-7.96875L15.8594-7.96875L15.8594-11.9141C15.8594-12.4609 15.4883-12.8418 14.9512-12.8418C14.4336-12.8418 14.0625-12.4609 14.0625-11.9141L14.0625-7.96875L10.1172-7.96875C9.57031-7.96875 9.19922-7.59766 9.19922-7.05078Z"/>
  </g>
  <text style="stroke:none;fill:black;font-family:sans-serif;font-size:13;font-weight:bold;" transform="matrix(1 0 0 1 263 1953)">Design Variations</text>
  <text style="stroke:none;fill:black;font-family:sans-serif;font-size:13;" transform="matrix(1 0 0 1 263 1971)">Symbols are supported in up to nine weights and three scales.</text>
  <text style="stroke:none;fill:black;font-family:sans-serif;font-size:13;" transform="matrix(1 0 0 1 263 1989)">For optimal layout with text and other symbols, vertically align</text>
  <text style="stroke:none;fill:black;font-family:sans-serif;font-size:13;" transform="matrix(1 0 0 1 263 2007)">symbols with the adjacent text.</text>
  <line style="fill:none;stroke:#00AEEF;stroke-width:0.5;opacity:1.0;" x1="776" x2="776" y1="1919" y2="1933"/>
  <g transform="matrix(1 0 0 1 776 1933)">
   <path d="M3.31055 0.15625C3.82812 0.15625 4.08203-0.0390625 4.26758-0.585938L5.52734-4.0332L11.2891-4.0332L12.5488-0.585938C12.7344-0.0390625 12.9883 0.15625 13.4961 0.15625C14.0137 0.15625 14.3457-0.15625 14.3457-0.644531C14.3457-0.810547 14.3164-0.966797 14.2383-1.17188L9.6582-13.3691C9.43359-13.9648 9.0332-14.2676 8.4082-14.2676C7.80273-14.2676 7.39258-13.9746 7.17773-13.3789L2.59766-1.16211C2.51953-0.957031 2.49023-0.800781 2.49023-0.634766C2.49023-0.146484 2.80273 0.15625 3.31055 0.15625ZM6.00586-5.51758L8.37891-12.0898L8.42773-12.0898L10.8008-5.51758Z"/>
  </g>
  <line style="fill:none;stroke:#00AEEF;stroke-width:0.5;opacity:1.0;" x1="793.197" x2="793.197" y1="1919" y2="1933"/>
  <text style="stroke:none;fill:black;font-family:sans-serif;font-size:13;font-weight:bold;" transform="matrix(1 0 0 1 776 1953)">Margins</text>
  <text style="stroke:none;fill:black;font-family:sans-serif;font-size:13;" transform="matrix(1 0 0 1 776 1971)">Leading and trailing margins on the left and right side of each symbol</text>
  <text style="stroke:none;fill:black;font-family:sans-serif;font-size:13;" transform="matrix(1 0 0 1 776 1989)">can be adjusted by modifying the x-location of the margin guidelines.</text>
  <text style="stroke:none;fill:black;font-family:sans-serif;font-size:13;" transform="matrix(1 0 0 1 776 2007)">Modifications are automatically applied proportionally to all</text>
  <text style="stroke:none;fill:black;font-family:sans-serif;font-size:13;" transform="matrix(1 0 0 1 776 2025)">scales and weights.</text>
  <g transform="matrix(1 0 0 1 1289 1933)">
   <path d="M2.8418 1.86523L4.54102 3.57422C5.40039 4.44336 6.38672 4.38477 7.31445 3.35938L18.0078-8.42773L17.041-9.4043L6.42578 2.27539C6.07422 2.67578 5.74219 2.77344 5.27344 2.30469L4.10156 1.14258C3.63281 0.683594 3.74023 0.341797 4.14062-0.0195312L15.6152-10.8203L14.6387-11.7871L3.04688-0.898438C2.06055 0.0195312 1.98242 0.996094 2.8418 1.86523ZM9.25781-16.3281C8.83789-15.918 8.80859-15.3418 9.04297-14.9512C9.27734-14.5898 9.73633-14.3555 10.3809-14.5215C11.8457-14.8633 13.3691-14.9219 14.7949-13.9844L14.209-12.5293C13.8672-11.6992 14.043-11.1133 14.5801-10.5664L16.875-8.25195C17.3633-7.76367 17.7734-7.74414 18.3398-7.8418L19.4043-8.03711L20.0684-7.36328L20.0293-6.80664C19.9902-6.30859 20.1172-5.92773 20.6055-5.44922L21.3672-4.70703C21.8457-4.22852 22.4609-4.19922 22.9297-4.66797L25.8398-7.58789C26.3086-8.05664 26.2891-8.65234 25.8105-9.13086L25.0391-9.89258C24.5605-10.3711 24.1895-10.5273 23.7109-10.4883L23.1348-10.4395L22.4902-11.0742L22.7344-12.1973C22.8613-12.7637 22.7051-13.2031 22.1191-13.7891L19.9219-15.9766C16.582-19.2969 12.1484-19.2188 9.25781-16.3281ZM10.752-15.957C13.1836-17.7344 16.4746-17.4316 18.7012-15.2051L21.1328-12.793C21.3672-12.5586 21.4062-12.373 21.3379-12.0312L21.0156-10.5469L22.5195-9.0625L23.5059-9.12109C23.7598-9.13086 23.8379-9.11133 24.0332-8.91602L24.6094-8.33984L22.168-5.89844L21.5918-6.47461C21.3965-6.66992 21.3672-6.74805 21.377-7.01172L21.4453-7.98828L19.9512-9.47266L18.4277-9.21875C18.1055-9.15039 17.959-9.17969 17.7148-9.41406L15.7129-11.416C15.459-11.6504 15.4297-11.8164 15.5859-12.1875L16.4648-14.2773C14.9023-15.7324 12.8711-16.3574 10.8398-15.7617C10.6836-15.7227 10.625-15.8496 10.752-15.957Z"/>
  </g>
  <text style="stroke:none;fill:black;font-family:sans-serif;font-size:13;font-weight:bold;" transform="matrix(1 0 0 1 1289 1953)">Exporting</text>
  <text style="stroke:none;fill:black;font-family:sans-serif;font-size:13;" transform="matrix(1 0 0 1 1289 1971)">Symbols should be outlined when exporting to ensure the</text>
  <text style="stroke:none;fill:black;font-family:sans-serif;font-size:13;" transform="matrix(1 0 0 1 1289 1989)">design is preserved when submitting to Xcode.</text>
  <text id="template-version" style="stroke:none;fill:black;font-family:sans-serif;font-size:13;text-anchor:end;" transform="matrix(1 0 0 1 3036 1933)">Template v.4.0</text>
  <text style="stroke:none;fill:black;font-family:sans-serif;font-size:13;text-anchor:end;" transform="matrix(1 0 0 1 3036 1951)">Requires Xcode 14 or greater</text>
  <text id="descriptive-name" style="stroke:none;fill:black;font-family:sans-serif;font-size:13;text-anchor:end;" transform="matrix(1 0 0 1 3036 1969)">Generated from custom.rocket</text>
  <text style="stroke:none;fill:black;font-family:sans-serif;font-size:13;text-anchor:end;" transform="matrix(1 0 0 1 3036 1987)">Typeset at 100 points</text>
  <text style="stroke:none;fill:black;font-family:sans-serif;font-size:13;" transform="matrix(1 0 0 1 263 726)">Small</text>
  <text style="stroke:none;fill:black;font-family:sans-serif;font-size:13;" transform="matrix(1 0 0 1 263 1156)">Medium</text>
  <text style="stroke:none;fill:black;font-family:sans-serif;font-size:13;" transform="matrix(1 0 0 1 263 1586)">Large</text>
 </g>
 <g id="Guides">
  <g id="H-reference" style="fill:#27AAE1;stroke:none;" transform="matrix(1 0 0 1 339 696)">
   <path d="M0.993654 0L3.63775 0L29.3281-67.1323L30.0303-67.1323L30.0303-70.459L28.1226-70.459ZM11.6885-24.4799L46.9815-24.4799L46.2315-26.7285L12.4385-26.7285ZM55.1196 0L57.7637 0L30.6382-70.459L29.4326-70.459L29.4326-67.1323Z"/>
  </g>
  <line id="Baseline-S" style="fill:none;stroke:#27AAE1;opacity:1;stroke-width:0.5;" x1="263" x2="3036" y1="696" y2="696"/>
  <line id="Capline-S" style="fill:none;stroke:#27AAE1;opacity:1;stroke-width:0.5;" x1="263" x2="3036" y1="625.541" y2="625.541"/>
  <g id="H-reference" style="fill:#27AAE1;stroke:none;" transform="matrix(1 0 0 1 339 1126)">
   <path d="M0.993654 0L3.63775 0L29.3281-67.1323L30.0303-67.1323L30.0303-70.459L28.1226-70.459ZM11.6885-24.4799L46.9815-24.4799L46.2315-26.7285L12.4385-26.7285ZM55.1196 0L57.7637 0L30.6382-70.459L29.4326-70.459L29.4326-67.1323Z"/>
  </g>
  <line id="Baseline-M" style="fill:none;stroke:#27AAE1;opacity:1;stroke-width:0.5;" x1="263" x2="3036" y1="1126" y2="1126"/>
  <line id="Capline-M" style="fill:none;stroke:#27AAE1;opacity:1;stroke-width:0.5;" x1="263" x2="3036" y1="1055.54" y2="1055.54"/>
  <g id="H-reference" style="fill:#27AAE1;stroke:none;" transform="matrix(1 0 0 1 339 1556)">
   <path d="M0.993654 0L3.63775 0L29.3281-67.1323L30.0303-67.1323L30.0303-70.459L28.1226-70.459ZM11.6885-24.4799L46.9815-24.4799L46.2315-26.7285L12.4385-26.7285ZM55.1196 0L57.7637 0L30.6382-70.459L29.4326-70.459L29.4326-67.1323Z"/>
  </g>
  <line id="Baseline-L" style="fill:none;stroke:#27AAE1;opacity:1;stroke-width:0.5;" x1="263" x2="3036" y1="1556" y2="1556"/>
  <line id="Capline-L" style="fill:none;stroke:#27AAE1;opacity:1;stroke-width:0.5;" x1="263" x2="3036" y1="1485.54" y2="1485.54"/>
  <line id="left-margin-Regular-M" style="fill:none;stroke:#00AEEF;stroke-width:0.5;opacity:1.0;" x1="1388.74" x2="1388.74" y1="1030.79" y2="1150.12"/>
  <line id="right-margin-Regular-M" style="fill:none;stroke:#00AEEF;stroke-width:0.5;opacity:1.0;" x1="1510.95" x2="1510.95" y1="1030.79" y2="1150.12"/>
 </g>
 <g id="Symbols">
  <g id="Black-L" transform="matrix(1 0 0 1 2854.97 1556)">
   <path d="M31.2954-16.281L12.6554-16.261C10.5754-16.261 8.60541-17.211 7.3254-18.861C6.0454-20.501 5.5954-22.641 6.0954-24.651L14.9654-59.9209C15.7154-62.9309 18.4154-65.0309 21.5154-65.0309L62.4555-65.0209C63.0355-65.7609 63.5855-66.4409 64.1155-67.0609C73.4355-78.0209 86.3155-87.8409 98.3156-93.4109C101.846-95.0509 116.156-99.4209 126.176-100.421C132.496-101.051 137.516-99.8109 139.746-97.9409C141.256-96.6709 142.556-94.7709 143.276-92.1509C143.866-89.9909 144.106-87.1009 143.916-83.7709C143.316-73.3209 138.586-57.6309 135.246-51.331C128.036-37.711 120.246-28.481 109.726-19.971C109.086-19.461 108.386-18.921 107.626-18.351L107.566 22.049C107.556 25.149 105.446 27.849 102.436 28.589L67.4855 37.249C65.4755 37.749 63.3455 37.299 61.7055 36.019C60.0755 34.739 59.1155 32.789 59.1155 30.709L59.0755 11.239C56.8755 12.469 55.5755 13.179 55.5755 13.179C52.9155 14.639 49.6155 14.149 47.4955 11.979L30.6354-5.30096C28.5254-7.46096 28.1054-10.761 29.6154-13.381C29.6154-13.381 30.2254-14.441 31.2954-16.281ZM52.9555-51.521L26.7754-51.531C26.7754-51.531 21.3054-29.771 21.3054-29.771L39.3255-29.791C43.4155-36.561 48.3055-44.461 52.9555-51.521ZM94.1056-9.31096C87.1255-4.93096 79.3055-0.320961 72.5555 3.57904L72.5955 22.079C72.5955 22.079 94.0756 16.759 94.0756 16.759L94.1056-9.31096ZM70.9255-53.881C62.1055-41.931 49.2755-20.331 43.8755-11.071C43.8755-11.071 53.5655-1.13096 53.5655-1.13096C64.2855-7.12096 91.2756-22.421 101.236-30.471C110.346-37.841 117.066-45.861 123.316-57.6509C125.706-62.1509 128.856-72.4309 130.046-80.7609C130.346-82.8609 130.346-85.4509 130.306-87.0709C129.426-87.0809 128.376-87.0709 127.516-86.9809C119.066-86.1409 106.976-82.5409 103.996-81.1609C93.6056-76.3409 82.4755-67.8109 74.4055-58.3109C73.5055-57.2609 72.5255-56.0209 71.4855-54.631C71.3155-54.371 71.1355-54.121 70.9255-53.881ZM38.5977 4.14844C40.1125 5.5768 41.4941 8.33845 41.8957 11.8113C42.3943 16.1231 41.7165 21.8616 41.7165 21.8616C41.4116 24.3428 39.7601 26.4525 37.4246 27.3443L15.2466 35.813C12.7367 36.7714 9.89712 36.15 8.01695 34.2307C6.13677 32.3115 5.57367 29.4599 6.58357 26.9701L15.2029 5.71801C16.1181 3.46165 18.1775 1.87298 20.5923 1.5607C20.5923 1.5607 26.4532 0.825481 30.8737 1.22349C34.3454 1.53595 37.148 2.78175 38.5977 4.14844ZM28.3581 14.6153C28.0872 14.6035 27.8254 14.5964 27.596 14.598C27.1073 14.6012 26.6218 14.6148 26.1545 14.6351L24.9249 17.6665L28.3454 16.3604L28.3581 14.6153ZM105.371-79.7114C114.711-79.7114 122.294-72.1289 122.294-62.7899C122.294-53.4509 114.711-45.8685 105.371-45.8685C96.0311-45.8685 88.4486-53.4509 88.4486-62.7899C88.4486-72.1289 96.0311-79.7114 105.371-79.7114ZM105.371-66.2113C103.482-66.2113 101.949-64.6784 101.949-62.7899C101.949-60.9014 103.482-59.3685 105.371-59.3685C107.26-59.3685 108.794-60.9014 108.794-62.7899C108.794-64.6784 107.26-66.2113 105.371-66.2113Z"/>
  </g>
  <g id="Heavy-L" transform="matrix(1 0 0 1 2559.01 1556)">
   <path d="M31.8566-17.031L11.9066-17.011C10.0466-17.011 8.30656-17.861 7.16656-19.321C6.02656-20.781 5.62656-22.681 6.07656-24.471L14.9366-59.7409C15.6066-62.4109 18.0066-64.2809 20.7566-64.2809L62.0667-64.2709C62.7267-65.1109 63.3467-65.8809 63.9367-66.5709C73.1867-77.4509 85.9667-87.2009 97.8767-92.7309C101.377-94.3509 115.567-98.6809 125.497-99.6709C129.097-100.031 132.237-99.9209 134.417-99.3709C136.147-98.9309 137.507-98.2009 138.517-97.3609C139.927-96.1809 141.127-94.4009 141.797-91.9509C142.377-89.8509 142.597-87.0509 142.407-83.8209C141.817-73.4609 137.137-57.9209 133.827-51.681C126.667-38.161 118.937-29.001 108.497-20.561C107.787-19.981 106.987-19.371 106.117-18.731L106.067 22.049C106.057 24.799 104.177 27.199 101.507 27.869L66.5467 36.519C64.7667 36.969 62.8667 36.559 61.4167 35.429C59.9667 34.289 59.1167 32.549 59.1067 30.709L59.0667 9.95904C56.1967 11.569 54.4666 12.519 54.4666 12.519C52.1066 13.819 49.1666 13.379 47.2866 11.449L30.4166-5.83096C28.5466-7.75096 28.1766-10.681 29.5066-13.001C29.5066-13.001 30.3766-14.511 31.8566-17.031ZM53.5866-52.271L25.4366-52.281L19.5866-29.021L38.9966-29.041C43.3466-36.261 48.6366-44.811 53.5866-52.271ZM94.1067-10.661C86.7167-6.00096 78.2567-1.00096 71.0567 3.14904C71.0667 9.62904 71.0967 23.039 71.0967 23.039C71.0967 23.039 94.0667 17.339 94.0667 17.339L94.1067-10.661ZM69.5967-54.361C60.5867-42.161 47.4266-19.931 42.1866-10.951C42.1866-10.951 52.6766-0.200961 52.6766-0.200961C63.0567-5.98096 90.8167-21.691 100.957-29.891C110.147-37.321 116.927-45.401 123.227-57.3009C125.637-61.8509 128.837-72.2309 130.037-80.6509C130.377-83.1009 130.317-86.1709 130.237-87.7909C129.247-87.8309 127.837-87.8509 126.687-87.7309C118.157-86.8809 105.937-83.2409 102.927-81.8409C92.4467-76.9809 81.2167-68.3709 73.0767-58.8009C72.1667-57.7209 71.1667-56.4609 70.1167-55.051C69.9567-54.811 69.7867-54.581 69.5967-54.361ZM37.333 4.69419C38.7547 6.03472 40.0235 8.63819 40.4005 11.8973C40.8903 16.1329 40.2218 21.7701 40.2218 21.7701C39.9507 23.9757 38.4829 25.8508 36.407 26.6435L14.2288 35.1122C11.9978 35.9643 9.47374 35.412 7.80247 33.706C6.1312 32 5.63084 29.4652 6.52834 27.252L15.1479 5.9999C15.9612 3.99415 17.7917 2.58204 19.9383 2.30439C19.9383 2.30439 25.706 1.5789 30.0564 1.97054C33.3224 2.26445 35.9693 3.40845 37.333 4.69419ZM28.5102 13.9278C27.9452 13.8822 27.3268 13.8449 26.8409 13.848C26.1719 13.8524 25.5092 13.8761 24.8893 13.9093L22.8319 18.9821C22.8319 18.9821 28.5693 16.7913 28.5693 16.7911C28.5859 16.2954 28.594 15.7756 28.5885 15.2521C28.5845 14.8659 28.5511 14.3838 28.5102 13.9278ZM104.621-78.9613C113.547-78.9613 120.794-71.715 120.794-62.7899C120.794-53.8648 113.547-46.6185 104.621-46.6185C95.6949-46.6185 88.4484-53.8648 88.4484-62.7899C88.4484-71.715 95.6949-78.9613 104.621-78.9613ZM104.621-66.9614C102.318-66.9614 100.449-65.0924 100.449-62.7899C100.449-60.4875 102.318-58.6185 104.621-58.6185C106.924-58.6185 108.794-60.4875 108.794-62.7899C108.794-65.0924 106.924-66.9614 104.621-66.9614Z"/>
  </g>
  <g id="Bold-L" transform="matrix(1 0 0 1 2262.79 1556)">
   <path d="M32.2254-21.7604L11.4054-21.7404C9.70539-21.7304 8.10539-22.5104 7.06539-23.8504C6.01538-25.1904 5.64538-26.9304 6.06538-28.5804L14.9254-63.8504C15.5354-66.2904 17.7354-68.0104 20.2554-68.0104L61.8155-68.0004C62.5155-68.9004 63.1855-69.7304 63.8155-70.4704C73.0255-81.3004 85.7455-91.0004 97.5956-96.5004C101.066-98.1204 115.176-102.42 125.046-103.4C128.586-103.75 131.656-103.65 133.796-103.11C135.446-102.69 136.736-102.01 137.696-101.2C139.036-100.08 140.176-98.3804 140.816-96.0504C141.386-93.9904 141.596-91.2404 141.416-88.0704C140.826-77.7804 136.176-62.3404 132.896-56.1404C125.766-42.6904 118.076-33.5704 107.686-25.1704C106.926-24.5604 106.066-23.9004 105.126-23.2004L105.066 17.8196C105.066 20.3496 103.336 22.5496 100.886 23.1496L65.9355 31.8096C64.2955 32.2196 62.5555 31.8496 61.2255 30.8096C59.8955 29.7696 59.1155 28.1696 59.1055 26.4796L59.0655 4.88958C55.7655 6.73958 53.7255 7.85958 53.7255 7.85958C51.5655 9.04958 48.8655 8.64958 47.1455 6.87958L30.2754-10.4004C28.5554-12.1604 28.2154-14.8504 29.4454-16.9804C29.4454-16.9804 30.4854-18.7904 32.2254-21.7604ZM54.0255-57.0004L24.5454-57.0104L18.4554-32.7504L38.7754-32.7704C43.3055-40.2804 48.8755-49.2804 54.0255-57.0004ZM94.1055-15.7904C86.4655-10.9404 77.5555-5.68042 70.0555-1.36042L70.0955 19.4496L94.0655 13.5096L94.1055-15.7904ZM68.7155-58.9004C59.5855-46.5404 46.1755-23.8704 41.0654-15.1004C41.0654-15.1004 52.0855-3.81042 52.0855-3.81042C62.2055-9.43042 90.5055-25.4304 100.766-33.7304C110.016-41.2004 116.836-49.3304 123.166-61.2904C125.986-66.6104 129.926-79.8704 130.436-88.7004C130.506-89.9404 130.366-91.5304 130.256-92.4804C129.216-92.5404 127.506-92.5904 126.136-92.4504C117.546-91.6004 105.246-87.9304 102.226-86.5204C91.6855-81.6304 80.3855-72.9804 72.1955-63.3504C71.2755-62.2604 70.2655-60.9904 69.1955-59.5604C69.0555-59.3304 68.8955-59.1104 68.7155-58.9004ZM36.4922 0.831909C37.8519 2.11394 39.0456 4.61207 39.4062 7.72878C39.8901 11.9137 39.2279 17.4831 39.2279 17.4831C38.9794 19.5049 37.6338 21.2238 35.7308 21.9504L13.5528 30.4191C11.5077 31.2001 9.19397 30.6938 7.66197 29.13C6.12998 27.5661 5.67115 25.2426 6.49406 23.2139L15.1134 1.96177C15.8591 0.123205 17.5371-1.1712 19.5047-1.42569C19.5047-1.42569 25.2103-2.145 29.5138-1.7576C32.6426-1.47588 35.1858-0.399751 36.4922 0.831909ZM28.4611 9.24745C27.7791 9.18118 26.9584 9.11809 26.34 9.12197C25.5472 9.1271 24.763 9.15909 24.0473 9.20203L21.439 15.6332C21.439 15.6332 28.5587 12.9145 28.5587 12.9142C28.5836 12.3136 28.5977 11.6701 28.5908 11.0208C28.5855 10.5046 28.5251 9.82944 28.4611 9.24745ZM104.123-82.6872C112.774-82.6872 119.796-75.665 119.796-67.0159C119.796-58.3669 112.774-51.3446 104.123-51.3446C95.4732-51.3446 88.4508-58.3669 88.4508-67.0159C88.4508-75.665 95.4732-82.6872 104.123-82.6872ZM104.123-71.6873C101.545-71.6873 99.4507-69.5944 99.4507-67.0159C99.4507-64.4374 101.545-62.3446 104.123-62.3446C106.702-62.3446 108.796-64.4374 108.796-67.0159C108.796-69.5944 106.702-71.6873 104.123-71.6873Z"/>
  </g>
  <g id="Semibold-L" transform="matrix(1 0 0 1 1966.83 1556)">
   <path d="M32.7907-21.9601L10.6507-21.9401C9.19065-21.9301 7.80064-22.6101 6.90064-23.7601C6.00064-24.9201 5.68064-26.4201 6.04064-27.8501L14.9007-63.1101C15.4307-65.2301 17.3307-66.7101 19.5107-66.7101L61.4407-66.7001C62.2107-67.7101 62.9507-68.6201 63.6407-69.4401C72.7808-80.1801 85.4008-89.8201 97.1608-95.2701C100.611-96.8701 114.591-101.13 124.371-102.11C127.231-102.39 129.761-102.39 131.701-102.07C133.791-101.73 135.381-100.99 136.461-100.08C137.711-99.0401 138.751-97.4501 139.351-95.3001C139.901-93.3001 140.091-90.6301 139.921-87.5701C139.341-77.3701 134.731-62.0801 131.481-55.9401C124.411-42.6001 116.781-33.5401 106.471-25.2101C105.631-24.5301 104.671-23.8001 103.621-23.0301L103.571 18.3698C103.561 20.5498 102.071 22.4498 99.9608 22.9798L65.0107 31.6298C63.5907 31.9798 62.0907 31.6598 60.9407 30.7698C59.7907 29.8698 59.1207 28.4898 59.1107 27.0298L59.0707 4.15985C55.1107 6.37985 52.6207 7.74985 52.6207 7.74985C50.7507 8.77985 48.4207 8.42985 46.9307 6.89985L30.0707-10.3802C28.5807-11.9002 28.2907-14.2201 29.3507-16.0601C29.3507-16.0601 30.6507-18.3301 32.7907-21.9601ZM54.6807-57.2001L23.2107-57.2101L16.7407-31.4401L38.4507-31.4701C43.2507-39.4301 49.2407-49.1301 54.6807-57.2001ZM94.1108-16.6101C86.1208-11.4902 76.5108-5.82015 68.5508-1.24015C68.5708 5.19985 68.6008 20.9498 68.6008 20.9498C68.6008 20.9498 94.0708 14.6498 94.0708 14.6498L94.1108-16.6101ZM67.3908-58.8301C58.0607-46.2001 44.2707-22.8301 39.3807-14.4301C39.3807-14.4301 51.2007-2.32015 51.2007-2.32015C60.8707-7.69015 90.0308-24.1301 100.491-32.6001C109.811-40.1301 116.691-48.3301 123.091-60.3901C125.941-65.7701 129.921-79.1801 130.431-88.1101C130.521-89.7001 130.281-91.7001 130.141-92.6201C129.141-92.7001 126.991-92.8201 125.311-92.6501C116.641-91.7901 104.211-88.0701 101.161-86.6501C90.5308-81.7201 79.1408-73.0001 70.8808-63.2801C69.9408-62.1801 68.9208-60.8801 67.8308-59.4201C67.7008-59.2101 67.5508-59.0201 67.3908-58.8301ZM35.2309 1.92666C36.4974 3.12068 37.5784 5.46081 37.9142 8.36402C38.3893 12.4726 37.7366 17.9405 37.7366 17.9405C37.522 19.6867 36.3599 21.1712 34.7166 21.7988L12.5383 30.2676C10.7721 30.942 8.77391 30.5047 7.45082 29.1541C6.12773 27.8035 5.73165 25.7969 6.44216 24.0448L15.0617 2.79266C15.7055 1.20488 17.1548 0.0868619 18.854-0.132819C18.854-0.132819 24.4664-0.842583 28.6998-0.461544C31.6229-0.198387 34.0103 0.775948 35.2309 1.92666ZM28.371 9.12699C27.5709 9.03208 26.414 8.91561 25.5882 8.92109C24.6027 8.92745 23.6301 8.97464 22.7823 9.03314L19.3491 17.4978C19.3491 17.4978 28.5379 13.9891 28.5379 13.9889C28.5771 13.2424 28.6027 12.407 28.5939 11.562C28.5865 10.8424 28.4691 9.844 28.371 9.12699ZM103.377-81.3882C111.613-81.3882 118.299-74.702 118.299-66.4669C118.299-58.2318 111.613-51.5454 103.377-51.5454C95.1403-51.5454 88.4539-58.2318 88.4539-66.4669C88.4539-74.702 95.1403-81.3882 103.377-81.3882ZM103.377-71.8883C100.384-71.8883 97.9539-69.4591 97.9539-66.4669C97.9539-63.4745 100.384-61.0455 103.377-61.0455C106.369-61.0455 108.799-63.4745 108.799-66.4669C108.799-69.4591 106.369-71.8883 103.377-71.8883Z"/>
  </g>
  <g id="Medium-L" transform="matrix(1 0 0 1 1670.62 1556)">
   <path d="M33.1652-21.7501L10.1452-21.7201C8.83515-21.7201 7.60515-22.3201 6.79515-23.3601C5.98515-24.3901 5.70515-25.7301 6.02515-27.0101L14.8852-62.2801C15.3552-64.1701 17.0552-65.4901 19.0052-65.4901L61.1752-65.4801C62.0053-66.5601 62.7853-67.5401 63.5153-68.4001C72.6053-79.0901 85.1653-88.6701 96.8653-94.1001C100.295-95.6901 114.195-99.9201 123.915-100.89C126.725-101.17 129.215-101.17 131.115-100.86C133.095-100.54 134.615-99.8401 135.645-98.9801C136.815-97.9901 137.795-96.4901 138.365-94.4501C138.895-92.4901 139.085-89.8801 138.915-86.8801C138.335-76.7501 133.765-61.5601 130.535-55.4601C123.495-42.1801 115.905-33.1701 105.645-24.8801C104.765-24.1601 103.745-23.3901 102.625-22.5701L102.565 19.0899C102.555 21.0399 101.225 22.7399 99.3353 23.2099L64.3853 31.8599C63.1153 32.1799 61.7753 31.8899 60.7452 31.0899C59.7152 30.2799 59.1152 29.0499 59.1052 27.7499L59.0552 4.0199C54.6852 6.4899 51.8752 8.0299 51.8752 8.0299C50.2052 8.9499 48.1252 8.6399 46.7852 7.2699L29.9252-10.0101C28.5952-11.3701 28.3252-13.4401 29.2752-15.0901C29.2752-15.0901 30.7652-17.6801 33.1652-21.7501ZM55.1152-56.9801L22.3152-56.9901C22.3152-56.9901 15.5952-30.2301 15.5952-30.2301L38.2252-30.2601C43.1952-38.5101 49.4952-48.6901 55.1152-56.9801ZM94.1153-16.8101C85.8953-11.5101 75.8053-5.5601 67.5453-0.810097C67.5653 5.5499 67.5953 22.3099 67.5953 22.3099L94.0653 15.7499L94.1153-16.8101ZM66.5053-58.4401C57.0252-45.6201 42.9652-21.7501 38.2552-13.6401C38.2552-13.6401 50.6052-0.980097 50.6052-0.980097C59.9252-6.1601 89.6953-22.9101 100.305-31.4901C109.675-39.0701 116.595-47.3101 123.025-59.4401C125.895-64.8601 129.915-78.3701 130.425-87.3601C130.525-89.0201 130.505-90.5001 130.275-91.6901C130.235-91.9101 130.155-92.1801 130.085-92.3901C129.835-92.4401 129.465-92.5201 129.185-92.5501C127.945-92.6601 126.425-92.6001 124.765-92.4301C116.025-91.5601 103.525-87.8201 100.445-86.3901C89.7553-81.4301 78.2953-72.6601 69.9953-62.8901C69.0453-61.7801 68.0053-60.4601 66.9053-58.9801C66.7853-58.7901 66.6553-58.6101 66.5053-58.4401ZM34.3836 3.00738C35.5881 4.14308 36.594 6.37752 36.9133 9.13846C37.3826 13.1963 36.7361 18.5966 36.7361 18.5966C36.5441 20.1589 35.5044 21.4872 34.0339 22.0487L11.8558 30.5175C10.2754 31.121 8.48763 30.7297 7.30381 29.5212C6.12 28.3129 5.76546 26.5174 6.40137 24.9498L15.0207 3.69753C15.5969 2.27694 16.8936 1.27663 18.414 1.07992C18.414 1.07992 23.9642 0.376519 28.1507 0.753493C30.9368 1.00428 33.2203 1.91057 34.3836 3.00738ZM28.312 9.38996C27.6756 9.29222 26.7072 9.16126 25.9919 9.145C24.5745 9.11266 23.1103 9.18441 21.9322 9.2726L17.9497 19.0919C17.9497 19.0919 28.516 15.0571 28.516 15.0569C28.5803 13.9783 28.621 12.6772 28.5676 11.4164C28.542 10.8104 28.4115 9.96523 28.312 9.38996ZM102.872-80.1713C110.833-80.1713 117.295-73.7092 117.295-65.7499C117.295-57.7906 110.833-51.3285 102.872-51.3285C94.9121-51.3285 88.4496-57.7906 88.4496-65.7499C88.4496-73.7092 94.9121-80.1713 102.872-80.1713ZM102.872-71.6714C99.6037-71.6714 96.9496-69.0182 96.9496-65.7499C96.9496-62.4817 99.6037-59.8284 102.872-59.8284C106.141-59.8284 108.795-62.4817 108.795-65.7499C108.795-69.0182 106.141-71.6714 102.872-71.6714Z"/>
  </g>
  <g id="Regular-L" transform="matrix(1 0 0 1 1374.66 1556)">
   <path d="M33.7303-23.2201L9.40022-23.1901C8.32022-23.1901 7.30021-23.6801 6.64021-24.5301C5.97021-25.3801 5.74021-26.4901 6.00021-27.5401L14.8602-62.8101C15.2502-64.3701 16.6502-65.4601 18.2602-65.4601L60.8003-65.4501C61.7003-66.6301 62.5503-67.7001 63.3403-68.6301C72.3603-79.2401 84.8204-88.7501 96.4304-94.1401C99.8304-95.7101 113.61-99.9001 123.24-100.86C125.97-101.13 128.4-101.14 130.25-100.84C132.06-100.54 133.46-99.9101 134.41-99.1201C135.49-98.2201 136.37-96.8301 136.89-94.9601C137.41-93.0701 137.58-90.5401 137.42-87.6401C136.85-77.6101 132.32-62.5701 129.12-56.5301C122.14-43.3501 114.61-34.4101 104.43-26.1801C103.47-25.4001 102.36-24.5601 101.12-23.6701L101.06 18.3698C101.06 19.9798 99.9704 21.3798 98.4104 21.7598L63.4503 30.4198C62.4103 30.6798 61.3003 30.4398 60.4603 29.7798C59.6103 29.1198 59.1103 28.0998 59.1103 27.0298L59.0603 2.01985C54.0503 4.84985 50.7603 6.64985 50.7603 6.64985C49.3903 7.40985 47.6703 7.15985 46.5703 6.02985L29.7103-11.2502C28.6203-12.3702 28.4003-14.0801 29.1803-15.4401C29.1803-15.4401 30.9403-18.5001 33.7303-23.2201ZM55.7803-58.4501L20.9902-58.4601L13.8902-30.1901L37.9003-30.2201C43.1303-38.9201 49.8903-49.8601 55.7803-58.4501ZM94.1204-18.9001C85.6004-13.3501 74.7603-6.96015 66.0503-1.96015C66.0603 4.18985 66.1003 22.5498 66.1003 22.5498L94.0704 15.6198L94.1204-18.9001ZM65.1803-59.6301C55.4803-46.5101 40.9903-21.8401 36.5703-14.2401C36.5703-14.2401 49.7203-0.770153 49.7203-0.770153C58.4403-5.60015 89.2004-22.8701 100.03-31.6201C109.48-39.2601 116.46-47.5701 122.94-59.8001C125.84-65.2901 129.91-78.9401 130.43-88.0401C130.53-89.7601 130.5-91.3001 130.27-92.5501C130.18-93.0301 130.19-93.4701 129.97-93.7001C129.82-93.7401 129.06-93.9601 128.51-94.0101C127.22-94.1301 125.66-94.0701 123.94-93.9001C115.12-93.0201 102.49-89.2301 99.3804-87.7901C88.6004-82.7901 77.0503-73.9401 68.6703-64.0901C67.7103-62.9601 66.6603-61.6201 65.5303-60.1101C65.4303-59.9401 65.3103-59.7801 65.1803-59.6301ZM33.1215 2.83614C34.2329 3.88399 35.1261 5.96009 35.4206 8.50753C35.8812 12.4892 35.244 17.7882 35.244 17.7882C35.086 19.0748 34.2297 20.1686 33.0188 20.631L10.8406 29.0999C9.53923 29.5969 8.0668 29.2745 7.09189 28.2795C6.11698 27.2843 5.82518 25.8056 6.34869 24.5147L14.9682 3.26242C15.4426 2.09244 16.5105 1.26868 17.7625 1.10679C17.7625 1.10679 23.2196 0.412936 27.3359 0.783371C29.9163 1.01578 32.0441 1.82027 33.1215 2.83614ZM28.1858 8.03583C27.5506 7.92184 26.2069 7.69968 25.2615 7.67812C23.625 7.64083 21.9276 7.7398 20.6635 7.84478L15.8592 19.6906C15.8592 19.6906 28.4852 14.8693 28.4854 14.8689C28.5674 13.688 28.6321 12.1504 28.5694 10.6678C28.5335 9.82155 28.3067 8.62488 28.1858 8.03583ZM102.125-80.1383C109.671-80.1383 115.797-74.0123 115.797-66.4669C115.797-58.9216 109.671-52.7955 102.125-52.7955C94.5784-52.7955 88.4519-58.9216 88.4519-66.4669C88.4519-74.0123 94.5784-80.1383 102.125-80.1383ZM102.125-73.1382C98.442-73.1382 95.452-70.1491 95.452-66.4669C95.452-62.7847 98.442-59.7956 102.125-59.7956C105.807-59.7956 108.797-62.7847 108.797-66.4669C108.797-70.1491 105.807-73.1382 102.125-73.1382Z"/>
  </g>
  <g id="Light-L" transform="matrix(1 0 0 1 1078.95 1556)">
   <path d="M34.4822-24.2201L8.40214-24.1901C7.62214-24.1901 6.90214-24.5401 6.42214-25.1501C5.95214-25.7601 5.78214-26.5501 5.97214-27.3001L14.8322-62.5701C15.1122-63.6801 16.1122-64.4601 17.2622-64.4601L60.2922-64.4501C61.2922-65.7701 62.2322-66.9601 63.1022-67.9801C72.0323-78.4801 84.3623-87.9001 95.8523-93.2301C99.2123-94.7901 112.822-98.9201 122.342-99.8701C124.972-100.13 127.302-100.14 129.082-99.8501C130.692-99.5901 131.932-99.0501 132.772-98.3501C133.712-97.5601 134.472-96.3401 134.922-94.7001C135.422-92.8901 135.572-90.4701 135.422-87.6901C134.852-77.8001 130.402-62.9601 127.242-56.9901C120.332-43.9501 112.872-35.1001 102.802-26.9601C101.752-26.1101 100.512-25.1701 99.1223-24.1801L99.0623 18.3698C99.0623 19.5198 98.2823 20.5198 97.1623 20.7898L62.2122 29.4498C61.4622 29.6298 60.6822 29.4598 60.0722 28.9898C59.4722 28.5198 59.1122 27.7898 59.1122 27.0298L59.0522 0.309847C53.2322 3.60985 49.2822 5.77985 49.2822 5.77985C48.3022 6.31985 47.0722 6.13985 46.2922 5.32985L29.4222-11.9502C28.6422-12.7502 28.4922-13.9701 29.0422-14.9401C29.0422-14.9401 31.1922-18.6701 34.4822-24.2201ZM56.6822-59.4501L19.2122-59.4601L11.6021-29.1901L37.4622-29.2201C43.0522-38.5201 50.4622-50.5301 56.6822-59.4501ZM94.1223-20.7501C85.2623-14.8901 73.3623-7.88015 64.0522-2.54015L64.1022 23.8298C64.1022 23.8298 94.0623 16.4098 94.0623 16.4098L94.1223-20.7501ZM63.4122-60.2801C53.3822-46.7101 38.2322-20.8201 34.3222-14.0901C34.3222-14.0901 48.5422 0.479847 48.5422 0.479847C56.2322-3.78015 88.5023-21.8201 99.6523-30.8501C109.212-38.5701 116.272-46.9701 122.822-59.3401C125.772-64.9001 129.902-78.7501 130.432-87.9801C130.532-89.8001 130.492-91.4201 130.252-92.7301C130.102-93.5201 129.972-94.1801 129.562-94.5201C129.162-94.8601 128.452-94.9201 127.602-95.0001C126.262-95.1301 124.632-95.0701 122.842-94.8901C113.902-94.0001 101.112-90.1601 97.9623-88.6901C87.0623-83.6401 75.3823-74.7001 66.9122-64.7401C65.9322-63.5801 64.8422-62.2001 63.6922-60.6601C63.6122-60.5201 63.5122-60.3901 63.4122-60.2801ZM31.4349 3.56375C32.4222 4.49461 33.1648 6.35933 33.4266 8.62241C33.8753 12.5026 33.2509 17.6662 33.2509 17.6662C33.138 18.5853 32.5263 19.3666 31.6613 19.6967L9.48322 28.1657C8.55356 28.5205 7.50195 28.2904 6.80558 27.5796C6.10922 26.8688 5.90067 25.8126 6.27465 24.8904L14.8942 3.63833C15.2332 2.80256 15.9958 2.21421 16.8901 2.09863C16.8901 2.09863 22.2229 1.41732 26.2454 1.77944C28.5522 1.98711 30.4716 2.65569 31.4349 3.56375ZM27.9644 7.16789C27.7678 7.02208 27.431 7.006 27.0637 6.93301C26.2454 6.77024 25.2761 6.70096 24.2836 6.67834C22.3269 6.6338 20.285 6.77943 18.9656 6.90296L13.0679 21.4446C13.0679 21.4446 28.4333 15.5772 28.4333 15.5769C28.5365 14.3182 28.6443 12.4321 28.5678 10.6253C28.5284 9.69324 28.4425 8.78359 28.2627 8.01763C28.1903 7.70816 28.0042 7.26156 27.9644 7.16789ZM101.124-79.1383C108.118-79.1383 113.797-73.4604 113.797-66.4669C113.797-59.4734 108.118-53.7955 101.124-53.7955C94.1296-53.7955 88.4512-59.4734 88.4512-66.4669C88.4512-73.4604 94.1296-79.1383 101.124-79.1383ZM101.124-74.1384C96.8894-74.1384 93.4513-70.7009 93.4513-66.4669C93.4513-62.2329 96.8894-58.7954 101.124-58.7954C105.359-58.7954 108.797-62.2329 108.797-66.4669C108.797-70.7009 105.359-74.1384 101.124-74.1384Z"/>
  </g>
  <g id="Thin-L" transform="matrix(1 0 0 1 782.987 1556)">
   <path d="M35.0488-21.2194L7.64775-21.1894C7.10875-21.1794 6.59874-21.4294 6.26674-21.8594C5.93474-22.2794 5.81674-22.8394 5.94874-23.3594L14.8118-58.6294C15.0068-59.4094 15.7068-59.9594 16.5088-59.9494L59.9178-59.9494C60.9908-61.3794 61.9998-62.6494 62.9248-63.7394C71.7849-74.1594 84.0189-83.5094 95.4199-88.7994C98.7439-90.3394 112.238-94.4294 121.668-95.3694C124.218-95.6194 126.485-95.6394 128.215-95.3594C129.661-95.1294 130.786-94.6594 131.539-94.0294C132.386-93.3194 133.048-92.2094 133.453-90.7494C133.934-88.9994 134.074-86.6694 133.921-83.9794C133.363-74.1894 128.954-59.4994 125.828-53.5994C118.971-40.6494 111.578-31.8694 101.579-23.7894C100.457-22.8794 99.1229-21.8794 97.6239-20.8194L97.5649 22.1205C97.5639 22.9205 97.0159 23.6205 96.2359 23.8105L61.2828 32.4705C60.7608 32.6005 60.2088 32.4805 59.7848 32.1505C59.3608 31.8205 59.1128 31.3105 59.1118 30.7805L59.0538 2.78055C52.6278 6.43055 48.1728 8.87055 48.1728 8.87055C47.4838 9.25055 46.6278 9.12055 46.0788 8.56055L29.2118-8.71945C28.6648-9.27945 28.5568-10.1395 28.9458-10.8095C28.9458-10.8095 31.3828-15.0494 35.0488-21.2194ZM57.3738-56.4494C47.1978-56.4494 17.8738-56.4494 17.8738-56.4494C17.8738-56.4494 9.89075-24.6894 9.89075-24.6894L37.1398-24.7194C42.9878-34.4694 50.9258-47.3394 57.3738-56.4494ZM94.1209-18.3994C85.0689-12.3194 72.3219-4.81945 62.5498 0.780548C62.5598 5.79055 62.6068 28.5405 62.6068 28.5405C62.6068 28.5405 94.0669 20.7505 94.0669 20.7505L94.1209-18.3994ZM62.0888-57.0094C51.7738-43.0594 36.0388-16.0894 32.6418-10.2195C32.6418-10.2195 47.6528 5.16055 47.6528 5.16055C54.3358 1.47055 87.9339-17.2594 99.3789-26.5094C109.012-34.2994 116.129-42.7594 122.735-55.2294C125.713-60.8494 129.895-74.8594 130.427-84.1794C130.535-86.0694 130.494-87.7594 130.239-89.1194C130.053-90.1094 129.81-90.9094 129.293-91.3394C128.928-91.6494 128.352-91.7894 127.651-91.9094C126.162-92.1494 124.21-92.1094 122.015-91.8894C112.992-90.9894 100.074-87.0994 96.8929-85.6194C85.9089-80.5294 74.1269-71.5094 65.5919-61.4694C64.5899-60.2994 63.4878-58.8894 62.3138-57.3094C62.2498-57.1994 62.1738-57.0994 62.0888-57.0094ZM30.1716 7.86151C31.0659 8.7047 31.6957 10.4105 31.9329 12.4607C32.3726 16.2645 31.7577 21.3267 31.7577 21.3267C31.6787 21.97 31.2505 22.517 30.6449 22.7482L8.46687 31.2169C7.81611 31.4654 7.07998 31.3044 6.59252 30.8067C6.10507 30.3092 5.95908 29.5699 6.22101 28.9243L14.8403 7.67222C15.0777 7.08723 15.6115 6.67527 16.2377 6.59432C16.2377 6.59432 21.4772 5.92256 25.4295 6.27832C27.5309 6.4676 29.2941 7.03421 30.1716 7.86151ZM27.7706 10.4081C27.6002 10.2474 27.3203 10.1675 27 10.077C26.4556 9.92311 25.8095 9.82679 25.1158 9.76422C22.5102 9.5297 19.2951 9.78808 17.6928 9.95174L10.9761 26.5123C10.9761 26.5123 28.392 19.8619 28.3922 19.8616C28.5352 18.3079 28.7379 15.3004 28.456 12.8627C28.3807 12.2125 28.2724 11.6074 28.1062 11.0989C28.0125 10.8124 27.9304 10.5586 27.7706 10.4081ZM100.375-74.6363C106.956-74.6363 112.298-69.2945 112.298-62.7149C112.298-56.1354 106.956-50.7936 100.375-50.7936C93.795-50.7936 88.4526-56.1354 88.4526-62.7149C88.4526-69.2945 93.795-74.6363 100.375-74.6363ZM100.375-71.1362C95.7267-71.1362 91.9526-67.3629 91.9526-62.7149C91.9526-58.0669 95.7267-54.2936 100.375-54.2936C105.024-54.2936 108.798-58.0669 108.798-62.7149C108.798-67.3629 105.024-71.1362 100.375-71.1362Z"/>
  </g>
  <g id="Ultralight-L" transform="matrix(1 0 0 1 487.026 1556)">
   <path d="M35.6169-25.7201L6.89688-25.6901C6.58788-25.6901 6.29688-25.8301 6.10688-26.0701C5.91788-26.3201 5.85088-26.6301 5.92588-26.9301L14.7879-62.2001C14.8999-62.6401 15.2999-62.9601 15.7589-62.9601L59.542-62.9501C60.688-64.4801 61.765-65.8501 62.746-67.0101C71.536-77.3501 83.673-86.6201 94.985-91.8701C98.279-93.4001 111.648-97.4401 120.992-98.3701C123.466-98.6201 125.665-98.6501 127.344-98.3701C128.63-98.1601 129.637-97.7601 130.307-97.2001C131.054-96.5801 131.622-95.5901 131.979-94.3001C132.443-92.6201 132.569-90.3701 132.422-87.7801C131.869-78.0901 127.509-63.5401 124.414-57.7001C117.612-44.8601 110.277-36.1401 100.357-28.1201C99.166-27.1601 97.737-26.1001 96.124-24.9501L96.064 18.3698C96.064 18.8298 95.75 19.2198 95.305 19.3398L60.352 27.9898C60.054 28.0698 59.738 27.9998 59.496 27.8098C59.254 27.6198 59.112 27.3298 59.111 27.0198L59.05-2.26015C52.036 1.72985 47.062 4.45985 47.062 4.45985C46.668 4.67985 46.179 4.60985 45.865 4.28985L28.9979-13.0002C28.6849-13.3201 28.6229-13.8001 28.8459-14.1901C28.8459-14.1901 31.5819-18.9601 35.6169-25.7201ZM58.077-60.9501L16.5379-60.9601L8.17788-27.6901L36.8129-27.7201C42.9289-37.9301 51.425-51.7101 58.077-60.9501ZM94.122-23.5701C84.936-17.2901 71.285-9.26015 61.048-3.40015L61.109 25.7398L94.065 17.5798L94.122-23.5701ZM60.768-61.2501C50.104-46.8301 33.6469-18.5101 30.9579-13.8501C30.9579-13.8501 46.765 2.33985 46.765 2.33985C52.048-0.570153 87.307-20.1401 99.1-29.6801C108.811-37.5301 115.987-46.0601 122.647-58.6301C125.656-64.3201 129.887-78.4601 130.425-87.8901C130.558-90.2201 130.469-92.2501 130.051-93.7701C129.821-94.6001 129.506-95.2701 129.023-95.6701C128.576-96.0401 127.882-96.2601 127.021-96.4001C125.481-96.6501 123.461-96.6101 121.19-96.3801C112.079-95.4701 99.038-91.5501 95.827-90.0601C84.753-84.9201 72.875-75.8301 64.269-65.7101C63.25-64.5101 62.127-63.0801 60.929-61.4701C60.885-61.3901 60.831-61.3101 60.768-61.2501ZM28.9073 4.65508C29.7086 5.4108 30.2254 6.95758 30.4379 8.79473C30.8689 12.5226 30.2634 17.4833 30.2634 17.4833C30.2184 17.8509 29.9736 18.1634 29.6277 18.2956L7.44962 26.7643C7.07775 26.9063 6.65711 26.8142 6.37838 26.5298C6.09984 26.2456 6.01659 25.8231 6.16612 25.4542L14.7856 4.20211C14.9212 3.86773 15.2262 3.6325 15.584 3.5862C15.584 3.5862 20.7303 2.9238 24.6123 3.27338C26.5089 3.4441 28.1153 3.90856 28.9073 4.65508ZM27.5352 6.11031C26.9709 5.57834 25.7846 5.38694 24.4331 5.26535C21.5036 5.00166 17.818 5.34735 16.4166 5.50199L8.88334 24.0759C8.88334 24.0759 28.3435 16.6451 28.3435 16.6447C28.4826 15.2724 28.7708 11.7897 28.4511 9.02466C28.3041 7.75288 28.09 6.63345 27.5352 6.11031ZM99.6254-77.6382C105.792-77.6382 110.798-72.6325 110.798-66.4669C110.798-60.3013 105.792-55.2956 99.6254-55.2956C93.459-55.2956 88.4527-60.3013 88.4527-66.4669C88.4527-72.6325 93.459-77.6382 99.6254-77.6382ZM99.6254-75.6383C94.5629-75.6383 90.4528-71.5288 90.4528-66.4669C90.4528-61.405 94.5629-57.2956 99.6254-57.2956C104.688-57.2956 108.798-61.405 108.798-66.4669C108.798-71.5288 104.688-75.6383 99.6254-75.6383Z"/>
  </g>
  <g id="Black-M" transform="matrix(1 0 0 1 2869.55 1126)">
   <path d="M25.0966-19.7614L11.9066-19.7514C10.0566-19.7414 8.30657-20.6014 7.16656-22.0614C6.02656-23.5114 5.62656-25.4214 6.07656-27.2114L12.9766-54.6313C13.6466-57.3013 16.0466-59.1713 18.7966-59.1713L50.2867-59.1613C50.6667-59.6313 51.0267-60.0713 51.3667-60.4813C58.6968-69.0813 68.8068-76.7912 78.2368-81.1612C81.0068-82.4512 92.2669-85.8912 100.147-86.6712C105.327-87.1912 109.427-86.1112 111.257-84.5712C113.387-82.8012 115.097-78.6112 114.767-72.9413C114.297-64.7113 110.567-52.3713 107.937-47.4113C102.277-36.7213 96.1569-29.4814 87.8869-22.8014C87.4769-22.4614 87.0169-22.1114 86.5369-21.7514L86.4969 9.27855C86.4869 12.0385 84.6068 14.4385 81.9368 15.0985L54.7367 21.8285C52.9467 22.2685 51.0567 21.8685 49.6067 20.7285C48.1567 19.5985 47.3067 17.8585 47.2967 16.0185L47.2667 2.14857C46.2367 2.72857 45.6567 3.04857 45.6567 3.04857C43.2967 4.33857 40.3567 3.90857 38.4767 1.97857L25.3566-11.4514C23.4766-13.3814 23.1066-16.3114 24.4466-18.6414C24.4466-18.6414 24.6766-19.0414 25.0966-19.7614ZM41.8667-47.1613L23.4666-47.1713L19.5966-31.7613L32.2367-31.7713C35.1467-36.5913 38.5567-42.0913 41.8667-47.1613ZM74.5268-13.7414C69.5068-10.6314 64.0568-7.42141 59.2568-4.64141C59.2668 0.168576 59.2868 8.33856 59.2868 8.33856C59.2868 8.33856 74.4968 4.57857 74.4968 4.57857L74.5268-13.7414ZM57.8167-49.2613C51.1267-40.2113 41.4767-24.0114 37.1267-16.5814C37.1267-16.5814 43.8667-9.6814 43.8667-9.6814C52.4967-14.4914 72.7768-26.0214 80.3468-32.1413C87.3569-37.8013 92.5269-43.9613 97.3369-53.0313C99.1669-56.4813 101.577-64.3613 102.487-70.7513C102.667-71.9713 102.707-73.5113 102.707-74.6812C101.017-74.5812 98.5269-74.3812 96.6169-74.0012C91.0069-72.9013 85.0468-71.0913 83.2768-70.2713C75.2868-66.5713 66.7268-60.0013 60.5068-52.7013C59.8268-51.9013 59.0868-50.9613 58.2967-49.9113C58.1467-49.6813 57.9867-49.4713 57.8167-49.2613ZM32.5976-5.18479C33.87-3.98591 35.0578-1.68032 35.3951 1.23446C35.7919 4.66336 35.255 9.22685 35.255 9.22685C34.9837 11.4327 33.5153 13.308 31.4388 14.1003L14.1843 20.6839C11.9528 21.5353 9.42906 20.9823 7.7581 19.2757C6.08728 17.5693 5.58758 15.0344 6.48577 12.8216L13.1916-3.69986C14.0055-5.70496 15.836-7.1164 17.9822-7.39379C17.9822-7.39379 22.6344-7.97469 26.1432-7.6591C29.049-7.39764 31.3842-6.3279 32.5976-5.18479ZM23.1378 4.42375L22.8424 4.43062L22.7917 4.55578L23.1378 4.42375ZM84.0356-70.5804C91.7166-70.5804 97.9501-64.3474 97.9501-56.6733C97.9501-48.9992 91.7166-42.7662 84.0356-42.7662C76.3546-42.7662 70.1212-48.9992 70.1212-56.6733C70.1212-64.3474 76.3546-70.5804 84.0356-70.5804ZM84.0356-58.5805C82.9806-58.5805 82.1214-57.7274 82.1214-56.6733C82.1214-55.6192 82.9806-54.7661 84.0356-54.7661C85.0907-54.7661 85.9499-55.6192 85.9499-56.6733C85.9499-57.7274 85.0907-58.5805 84.0356-58.5805Z"/>
  </g>
  <g id="Heavy-M" transform="matrix(1 0 0 1 2573.34 1126)">
   <path d="M25.4657-20.2714L11.4056-20.2514C9.7056-20.2514 8.10559-21.0314 7.05559-22.3614C6.01558-23.7014 5.64558-25.4414 6.06558-27.0914L12.9556-54.5113C13.5656-56.9513 15.7656-58.6713 18.2956-58.6713L50.0257-58.6613C50.4557-59.2013 50.8557-59.7013 51.2457-60.1513C58.5258-68.7013 68.5758-76.3612 77.9458-80.7012C80.6959-81.9812 91.8759-85.4012 99.6959-86.1812C104.706-86.6712 108.666-85.6712 110.436-84.1912C111.426-83.3612 112.286-82.2112 112.886-80.7012C113.606-78.8712 113.956-76.1712 113.766-72.9713C113.306-64.8113 109.606-52.5613 106.996-47.6413C101.366-37.0213 95.2859-29.8214 87.0759-23.1914C86.6059-22.8114 86.0859-22.4114 85.5359-22.0014L85.4859 9.27855C85.4859 11.8085 83.7659 14.0085 81.3159 14.6085L54.1158 21.3385C52.4758 21.7485 50.7457 21.3785 49.4157 20.3385C48.0757 19.2985 47.2957 17.7085 47.2957 16.0185L47.2657 1.30857C45.7757 2.12857 44.9157 2.60857 44.9157 2.60857C42.7457 3.79857 40.0557 3.39857 38.3357 1.62857L25.2157-11.8014C23.4956-13.5714 23.1556-16.2514 24.3756-18.3914C24.3756-18.3914 24.7757-19.0714 25.4657-20.2714ZM42.2857-47.6613L22.5756-47.6713L18.4556-31.2614L32.0157-31.2714C35.1057-36.3813 38.7757-42.3113 42.2857-47.6613ZM74.5258-14.6414C69.2258-11.3414 63.3558-7.88141 58.2558-4.93141L58.2858 8.97856C58.2858 8.97856 74.4958 4.96856 74.4958 4.96856L74.5258-14.6414ZM56.9258-49.5813C50.1257-40.3713 40.2557-23.7914 36.0057-16.5014C36.0057-16.5014 43.2757-9.0614 43.2757-9.0614C51.7157-13.7614 72.4758-25.5414 80.1658-31.7513C87.2259-37.4513 92.4359-43.6613 97.2759-52.8013C99.1259-56.2813 101.566-64.2313 102.486-70.6813C102.696-72.2013 102.716-74.0612 102.706-75.3012C102.086-75.3012 101.376-75.2912 100.786-75.2312C94.2459-74.5812 84.8759-71.8013 82.5659-70.7313C74.5158-66.9913 65.8858-60.3813 59.6258-53.0313C58.9358-52.2113 58.1858-51.2613 57.3758-50.1913C57.2458-49.9813 57.0858-49.7713 56.9258-49.5813ZM31.7608-4.82084C32.9711-3.68062 34.0838-1.48028 34.4046 1.29189C34.7956 4.66996 34.2649 9.16585 34.2649 9.16585C34.0163 11.1879 32.6701 12.9069 30.7667 13.6332L13.5121 20.2167C11.4667 20.9971 9.1532 20.4903 7.62154 18.9259C6.09 17.3617 5.63184 15.0381 6.45522 13.0095L13.1612-3.51177C13.9072-5.3498 15.5851-6.64363 17.5524-6.89794C17.5524-6.89794 22.1426-7.47252 25.6047-7.16105C28.3732-6.91209 30.6048-5.90995 31.7608-4.82084ZM23.3795 3.91595L22.0059 3.94562L21.4023 5.43262C21.4023 5.43262 23.3732 4.68067 23.3732 4.68067L23.3795 3.91595ZM83.5418-70.0805C90.9468-70.0805 96.9561-64.0716 96.9561-56.6733C96.9561-49.275 90.9468-43.266 83.5418-43.266C76.1369-43.266 70.1274-49.275 70.1274-56.6733C70.1274-64.0716 76.1369-70.0805 83.5418-70.0805ZM83.5418-59.0805C82.2108-59.0805 81.1275-58.0033 81.1275-56.6733C81.1275-55.3433 82.2108-54.2661 83.5418-54.2661C84.8729-54.2661 85.9561-55.3433 85.9561-56.6733C85.9561-58.0033 84.8729-59.0805 83.5418-59.0805Z"/>
  </g>
  <g id="Bold-M" transform="matrix(1 0 0 1 2277.12 1126)">
   <path d="M25.8386-20.7714L10.8985-20.7514C9.3585-20.7514 7.89849-21.4614 6.94849-22.6714C6.00849-23.8914 5.66849-25.4714 6.04849-26.9714L12.9385-54.3913C13.4985-56.6113 15.4985-58.1713 17.7885-58.1713L49.7686-58.1613C50.2486-58.7613 50.6986-59.3213 51.1286-59.8313C58.3587-68.3313 68.3487-75.9412 77.6487-80.2512C80.3888-81.5212 91.4888-84.9012 99.2388-85.6812C102.099-85.9612 104.579-85.8712 106.299-85.4312C107.699-85.0812 108.799-84.4912 109.619-83.8112C110.759-82.8512 111.739-81.4112 112.279-79.4312C112.739-77.7712 112.919-75.5512 112.769-73.0013C112.309-64.9013 108.639-52.7613 106.059-47.8813C100.459-37.3313 94.4188-30.1714 86.2588-23.5814C85.7388-23.1614 85.1588-22.7114 84.5288-22.2514L84.4888 9.27855C84.4888 11.5785 82.9188 13.5785 80.6888 14.1285L53.4987 20.8585C52.0087 21.2285 50.4286 20.8885 49.2186 19.9485C48.0086 18.9985 47.2986 17.5485 47.2986 16.0185L47.2686 0.448575C45.3286 1.53857 44.1786 2.16857 44.1786 2.16857C42.2086 3.24857 39.7586 2.88857 38.1986 1.27857L25.0686-12.1514C23.5086-13.7514 23.1985-16.2014 24.3086-18.1414C24.3086-18.1414 24.8686-19.1114 25.8386-20.7714ZM42.7186-48.1613L21.6885-48.1713C21.6885-48.1713 17.3085-30.7614 17.3085-30.7614L31.7986-30.7714C35.0686-36.1813 38.9986-42.5313 42.7186-48.1613ZM74.5287-15.5414C68.9487-12.0414 62.6587-8.3314 57.2487-5.21141L57.2787 9.61855C57.2787 9.61855 74.4987 5.35856 74.4987 5.35856L74.5287-15.5414ZM56.0387-49.9013C49.1186-40.5313 39.0286-23.5414 34.8786-16.4214C34.8786-16.4214 42.6886-8.4314 42.6886-8.4314C50.9186-13.0214 72.1687-25.0514 79.9788-31.3613C87.0888-37.1113 92.3388-43.3613 97.2188-52.5613C99.0888-56.0813 101.549-64.1013 102.479-70.6113C102.729-72.3513 102.709-74.5212 102.669-75.7912C101.929-75.8012 100.989-75.8012 100.239-75.7312C93.6388-75.0712 84.1888-72.2613 81.8588-71.1813C73.7487-67.4213 65.0487-60.7613 58.7487-53.3513C58.0487-52.5213 57.2787-51.5513 56.4687-50.4713C56.3387-50.2713 56.1987-50.0813 56.0387-49.9013ZM30.911-4.45689C32.059-3.37534 33.0966-1.28037 33.4009 1.34946C33.786 4.67655 33.2617 9.10471 33.2617 9.10471C33.0356 10.943 31.8119 12.5057 30.0814 13.166L12.8269 19.7496C10.9674 20.4591 8.86427 19.9982 7.4719 18.5761C6.07938 17.1541 5.66302 15.0417 6.41146 13.1976L13.1174-3.32381C13.7956-4.99464 15.3211-6.17086 17.1095-6.40209C17.1095-6.40209 21.6375-6.97021 25.0529-6.663C27.6843-6.42641 29.8122-5.492 30.911-4.45689ZM23.3661 3.26787C23.0688 3.25042 22.7728 3.23874 22.524 3.24039C22.0836 3.24327 21.6466 3.25688 21.2307 3.2768C21.2307 3.2768 19.9997 6.3096 19.9997 6.3096C19.9997 6.3096 23.3547 5.02938 23.3547 5.02938L23.3661 3.26787ZM83.0348-69.5805C90.1636-69.5805 95.9491-63.7957 95.9491-56.6733C95.9491-49.5509 90.1636-43.7661 83.0348-43.7661C75.9059-43.7661 70.1204-49.5509 70.1204-56.6733C70.1204-63.7957 75.9059-69.5805 83.0348-69.5805ZM83.0348-59.5806C81.4276-59.5806 80.1205-58.2791 80.1205-56.6733C80.1205-55.0675 81.4276-53.766 83.0348-53.766C84.6421-53.766 85.949-55.0675 85.949-56.6733C85.949-58.2791 84.6421-59.5806 83.0348-59.5806Z"/>
  </g>
  <g id="Semibold-M" transform="matrix(1 0 0 1 1980.91 1126)">
   <path d="M26.2213-21.2714L10.4012-21.2514C9.01122-21.2514 7.70122-21.8814 6.85121-22.9814C6.00121-24.0714 5.69121-25.5014 6.03121-26.8514L12.9312-54.2613C13.4312-56.2613 15.2312-57.6713 17.2913-57.6713L49.5214-57.6613C50.0414-58.3313 50.5414-58.9513 51.0114-59.5013C58.2014-67.9513 68.1214-75.5112 77.3615-79.8012C80.0815-81.0612 91.0915-84.4112 98.7915-85.1812C101.582-85.4612 103.992-85.3812 105.682-84.9512C106.992-84.6212 108.032-84.0712 108.802-83.4212C109.872-82.5212 110.782-81.1612 111.302-79.3012C111.742-77.6812 111.912-75.5212 111.772-73.0313C111.312-65.0013 107.682-52.9513 105.112-48.1113C99.5615-37.6313 93.5515-30.5214 85.4515-23.9714C84.8815-23.5114 84.2415-23.0114 83.5415-22.5014L83.4915 9.27855C83.4915 11.3485 82.0815 13.1485 80.0715 13.6385L52.8814 20.3685C51.5414 20.6985 50.1214 20.3985 49.0314 19.5485C47.9414 18.6985 47.3014 17.3985 47.3014 16.0085L47.2614-0.401423C44.8814 0.938574 43.4313 1.72857 43.4313 1.72857C41.6613 2.69857 39.4613 2.37857 38.0513 0.928574L24.9313-12.5014C23.5213-13.9414 23.2413-16.1414 24.2513-17.8914C24.2513-17.8914 24.9813-19.1614 26.2213-21.2714ZM43.1513-48.6613L20.8013-48.6713C20.8013-48.6713 16.1712-30.2514 16.1712-30.2514L31.5813-30.2714C35.0213-35.9813 39.2313-42.7713 43.1513-48.6613ZM74.5315-16.4514C68.6914-12.7614 61.9614-8.7914 56.2514-5.50141L56.2914 10.2586C56.2914 10.2586 74.5015 5.74856 74.5015 5.74856L74.5315-16.4514ZM55.1614-50.2213C48.1114-40.6813 37.7913-23.2614 33.7613-16.3514C33.7613-16.3514 42.0913-7.81141 42.0913-7.81141C50.0814-12.2514 71.8614-24.5614 79.7915-30.9714C86.9615-36.7613 92.2515-43.0613 97.1615-52.3313C99.3515-56.4413 102.402-66.7113 102.792-73.5413C102.842-74.4212 102.752-75.5312 102.672-76.2612C101.882-76.3012 100.672-76.3212 99.6915-76.2212C93.0315-75.5612 83.5015-72.7213 81.1515-71.6313C72.9815-67.8413 64.2214-61.1413 57.8714-53.6713C57.1614-52.8413 56.3814-51.8513 55.5514-50.7513C55.4314-50.5613 55.3014-50.3913 55.1614-50.2213ZM30.0696-4.09294C31.1555-3.06991 32.1179-1.08047 32.4058 1.40689C32.7849 4.68328 32.2669 9.04371 32.2669 9.04371C32.0634 10.6982 30.9621 12.1045 29.4048 12.6989L12.1502 19.2825C10.4766 19.9209 8.58375 19.5061 7.33066 18.2263C6.07744 16.9465 5.70274 15.0454 6.37638 13.3857L13.0822-3.13572C13.6926-4.63948 15.0655-5.69809 16.6751-5.9061C16.6751-5.9061 21.1411-6.46804 24.5096-6.16509C27.0039-5.94073 29.0281-5.07419 30.0696-4.09294ZM23.4742 2.81708C22.9925 2.77463 22.4447 2.73767 22.0223 2.74042C21.4603 2.74399 20.9038 2.76515 20.3886 2.79414C20.3886 2.79414 18.6057 7.18644 18.6057 7.18644C18.6057 7.18644 23.5321 5.30677 23.5321 5.30636C23.5476 4.88635 23.5557 4.4423 23.551 3.99467C23.5475 3.65202 23.5134 3.21538 23.4742 2.81708ZM82.5364-69.0805C89.3892-69.0805 94.9507-63.5199 94.9507-56.6733C94.9507-49.8267 89.3892-44.2661 82.5364-44.2661C75.6836-44.2661 70.122-49.8267 70.122-56.6733C70.122-63.5199 75.6836-69.0805 82.5364-69.0805ZM82.5364-60.0804C80.653-60.0804 79.122-58.555 79.122-56.6733C79.122-54.7916 80.653-53.266 82.5364-53.266C84.4196-53.266 85.9507-54.7916 85.9507-56.6733C85.9507-58.555 84.4196-60.0804 82.5364-60.0804Z"/>
  </g>
  <g id="Medium-M" transform="matrix(1 0 0 1 1684.7 1126)">
   <path d="M26.5858-21.7714L9.89572-21.7514C8.66572-21.7514 7.49572-22.3114 6.74571-23.2914C5.98571-24.2614 5.71571-25.5314 6.01571-26.7214L12.9057-54.1413C13.3557-55.9213 14.9557-57.1713 16.7857-57.1713L49.2559-57.1613C49.8359-57.9013 50.3759-58.5813 50.8859-59.1813C58.0259-67.5713 67.8859-75.0912 77.076-79.3412C79.766-80.5912 90.696-83.9212 98.346-84.6812C101.056-84.9512 103.416-84.8812 105.056-84.4612C106.286-84.1512 107.256-83.6412 107.976-83.0412C108.986-82.2012 109.836-80.9212 110.316-79.1712C110.746-77.5912 110.906-75.4812 110.766-73.0613C110.316-65.0913 106.716-53.1413 104.166-48.3513C98.646-37.9313 92.686-30.8614 84.626-24.3614C84.006-23.8614 83.306-23.3214 82.536-22.7514L82.486 9.27855C82.486 11.1185 81.236 12.7185 79.446 13.1585L52.2559 19.8885C51.0659 20.1785 49.8059 19.9085 48.8359 19.1585C47.8659 18.3985 47.2959 17.2385 47.2959 16.0085L47.2559-1.25142C44.4458 0.328575 42.6958 1.29857 42.6958 1.29857C41.1158 2.15857 39.1658 1.86857 37.9058 0.578575L24.7858-12.8514C23.5358-14.1314 23.2858-16.0914 24.1758-17.6414C24.1758-17.6414 25.0858-19.2114 26.5858-21.7714ZM43.5758-49.1613L19.9058-49.1713L15.0257-29.7514L31.3558-29.7714C34.9758-35.7813 39.4658-43.0313 43.5758-49.1613ZM74.526-17.3614C68.4459-13.4814 61.2559-9.2514 55.2459-5.79141L55.2859 10.8986L74.496 6.13856L74.526-17.3614ZM54.2759-50.5413C47.0959-40.8313 36.5258-22.9614 32.6258-16.2714C32.6258-16.2714 41.5058-7.19141 41.5058-7.19141C49.2059-11.4714 71.5459-24.0714 79.606-30.5814C86.826-36.4113 92.146-42.7613 97.106-52.0913C99.306-56.2513 102.386-66.6113 102.786-73.5113C102.846-74.6212 102.706-75.9912 102.606-76.7212C101.806-76.7812 100.316-76.8412 99.136-76.7212C92.416-76.0512 82.806-73.1813 80.436-72.0913C72.2059-68.2713 63.3759-61.5113 56.9859-54.0013C56.2659-53.1513 55.4759-52.1513 54.6359-51.0213C54.5259-50.8513 54.4059-50.6913 54.2759-50.5413ZM29.2275-3.72912C30.2512-2.76463 31.1384-0.880562 31.4098 1.46432C31.7832 4.68988 31.2714 8.98271 31.2714 8.98271C31.0905 10.4534 30.1115 11.7035 28.7272 12.2316L11.4726 18.8153C9.98504 19.3829 8.30252 19.0141 7.1886 17.8765C6.07467 16.7389 5.74149 15.049 6.34033 13.5737L13.0463-2.94763C13.5888-4.28432 14.8091-5.22533 16.2399-5.41026C16.2399-5.41026 20.6437-5.96587 23.9654-5.66704C26.3227-5.45505 28.2432-4.65638 29.2275-3.72912ZM23.4183 2.36657C22.8361 2.30392 22.0767 2.23674 21.5198 2.24045C20.8318 2.24484 20.1523 2.27507 19.5444 2.31409L17.2109 8.06328C17.2109 8.06328 23.5184 5.65657 23.5184 5.6563C23.5429 5.13462 23.5577 4.56485 23.5517 3.98931C23.5467 3.51476 23.481 2.87561 23.4183 2.36657ZM82.0371-68.5804C88.6137-68.5804 93.9514-63.244 93.9514-56.6733C93.9514-50.1026 88.6137-44.7661 82.0371-44.7661C75.4604-44.7661 70.1227-50.1026 70.1227-56.6733C70.1227-63.244 75.4604-68.5804 82.0371-68.5804ZM82.0371-60.5805C79.8777-60.5805 78.1227-58.8307 78.1227-56.6733C78.1227-54.5158 79.8777-52.7661 82.0371-52.7661C84.1964-52.7661 85.9514-54.5158 85.9514-56.6733C85.9514-58.8307 84.1964-60.5805 82.0371-60.5805Z"/>
  </g>
  <g id="Regular-M" transform="matrix(1 0 0 1 1388.74 1126)">
   <path d="M27.1526-22.5214L9.15257-22.5014C8.14257-22.5014 7.20257-22.9614 6.58256-23.7514C5.96256-24.5414 5.75256-25.5714 5.99256-26.5414L12.8826-53.9613C13.2526-55.4013 14.5526-56.4213 16.0426-56.4213L48.8827-56.4113C49.5227-57.2513 50.1427-58.0213 50.7127-58.6913C57.7827-67.0013 67.5428-74.4512 76.6428-78.6612C79.3028-79.9012 90.1129-83.1812 97.6629-83.9412C99.8429-84.1512 101.773-84.1612 103.253-83.9212C104.783-83.6712 105.953-83.1312 106.743-82.4612C107.653-81.7012 108.403-80.5412 108.843-78.9712C109.263-77.4512 109.403-75.4312 109.273-73.1013C108.823-65.2313 105.273-53.4413 102.763-48.7013C97.2929-38.3813 91.3829-31.3813 83.4128-24.9414C82.7128-24.3814 81.9128-23.7714 81.0328-23.1314L80.9928 9.27855C80.9928 10.7686 79.9728 12.0685 78.5228 12.4285L51.3227 19.1585C50.3627 19.3985 49.3327 19.1785 48.5427 18.5685C47.7627 17.9485 47.3027 17.0085 47.2927 16.0085L47.2627-2.53142C43.8027-0.581422 41.5827 0.638575 41.5827 0.638575C40.3027 1.33857 38.7127 1.09857 37.6927 0.0585761L24.5726-13.3814C23.5526-14.4214 23.3526-16.0114 24.0826-17.2714C24.0826-17.2714 25.2526-19.3114 27.1526-22.5214ZM44.2327-49.9113L18.5726-49.9213C18.5726-49.9213 13.3126-29.0014 13.3126-29.0014L31.0327-29.0214C34.9127-35.4713 39.8427-43.4413 44.2327-49.9113ZM74.5328-18.7314C68.1128-14.5914 60.2028-9.9314 53.7527-6.22141L53.7927 11.8585L74.4928 6.72856L74.5328-18.7314ZM52.9427-51.0213C45.5627-41.0313 34.5927-22.4214 30.9427-16.1514C30.9427-16.1514 40.6127-6.25141 40.6127-6.25141C47.8227-10.2514 71.0628-23.3214 79.3228-30.0014C86.6229-35.8913 92.0129-42.3013 97.0129-51.7413C99.2529-55.9613 102.383-66.4713 102.783-73.4713C102.853-74.7612 102.843-75.9212 102.663-76.8512C102.633-77.0312 102.563-77.2612 102.503-77.4212C102.303-77.4712 101.993-77.5412 101.763-77.5612C100.793-77.6512 99.6129-77.6012 98.3129-77.4712C91.5129-76.7912 81.7728-73.8812 79.3728-72.7713C71.0528-68.9113 62.1328-62.0813 55.6627-54.4813C54.9227-53.6213 54.1127-52.5913 53.2527-51.4413C53.1627-51.2913 53.0627-51.1513 52.9427-51.0213ZM27.964-3.18312C28.8945-2.30656 29.669-0.580772 29.9155 1.5506C30.28 4.69991 29.7777 8.8912 29.7777 8.8912C29.6309 10.086 28.8354 11.1018 27.7106 11.5309L10.4561 18.1145C9.24741 18.5757 7.88033 18.2762 6.97528 17.3518C6.07022 16.4275 5.79961 15.0545 6.2861 13.8557L12.9919-2.66557C13.4328-3.75165 14.4243-4.51624 15.5868-4.66641C15.5868-4.66641 19.8976-5.21255 23.1492-4.92004C25.3008-4.72659 27.0656-4.0296 27.964-3.18312ZM23.3294 1.69472C22.83 1.61668 22.0498 1.50883 21.4763 1.49578C20.3573 1.47036 19.2008 1.52793 18.2765 1.598C18.2765 1.598 15.1185 9.37853 15.1185 9.37853C15.1185 9.37853 23.4929 6.1832 23.4929 6.18292C23.5442 5.33631 23.5775 4.30861 23.5353 3.31334C23.5141 2.81516 23.4084 2.14207 23.3294 1.69472ZM81.2879-67.8305C87.4504-67.8305 92.4522-62.8303 92.4522-56.6733C92.4522-50.5162 87.4504-45.516 81.2879-45.516C75.1252-45.516 70.1235-50.5162 70.1235-56.6733C70.1235-62.8303 75.1252-67.8305 81.2879-67.8305ZM81.2879-61.3305C78.7144-61.3305 76.6236-59.2445 76.6236-56.6733C76.6236-54.1021 78.7144-52.0161 81.2879-52.0161C83.8614-52.0161 85.9522-54.1021 85.9522-56.6733C85.9522-59.2445 83.8614-61.3305 81.2879-61.3305Z"/>
  </g>
  <g id="Light-M" transform="matrix(1 0 0 1 1092.78 1126)">
   <path d="M27.7177-23.2714L8.39764-23.2514C7.62764-23.2514 6.89764-23.6014 6.42764-24.2114C5.94764-24.8214 5.78763-25.6114 5.96764-26.3614L12.8677-53.7813C13.1477-54.8913 14.1477-55.6713 15.2977-55.6713L48.4978-55.6613C49.2178-56.6113 49.9078-57.4713 50.5378-58.2113C57.5378-66.4313 67.1979-73.8112 76.2079-77.9812C78.8379-79.2012 89.5279-82.4512 96.988-83.1912C99.088-83.4012 100.958-83.4112 102.388-83.1812C103.748-82.9512 104.808-82.4812 105.518-81.8912C106.328-81.2112 106.988-80.1712 107.368-78.7712C107.768-77.3212 107.908-75.3712 107.778-73.1413C107.328-65.3813 103.828-53.7313 101.348-49.0513C95.928-38.8313 90.0879-31.9013 82.1879-25.5214C81.4279-24.9014 80.5279-24.2314 79.5379-23.5214L79.4879 9.27855C79.4879 10.4286 78.7079 11.4285 77.5979 11.6985L50.3978 18.4285C49.6578 18.6185 48.8678 18.4485 48.2578 17.9785C47.6578 17.4985 47.2978 16.7785 47.2978 16.0085L47.2578-3.81141C43.1778-1.50142 40.4778-0.0214237 40.4778-0.0214237C39.4878 0.518575 38.2678 0.338575 37.4877-0.471423L24.3577-13.9014C23.5777-14.7014 23.4277-15.9214 23.9777-16.8914C23.9777-16.8914 25.4377-19.4214 27.7177-23.2714ZM44.9078-50.6613L17.2377-50.6713L11.6077-28.2514L30.6977-28.2814C34.8477-35.1713 40.2478-43.9013 44.9078-50.6613ZM74.5379-20.1114C67.8279-15.7214 59.1578-10.6214 52.2478-6.65141L52.2878 12.8085L74.4979 7.31856L74.5379-20.1114ZM51.6278-51.5013C44.0078-41.2113 32.5977-21.7814 29.2577-16.0414C29.2577-16.0414 39.7278-5.32141 39.7278-5.32141C46.3078-8.9614 70.5579-22.5514 79.0479-29.4114C86.4279-35.3713 91.8679-41.8513 96.928-51.3913C99.198-55.6713 102.378-66.3313 102.788-73.4313C102.858-74.7912 102.838-76.0012 102.658-76.9912C102.568-77.4512 102.548-77.8512 102.308-78.0512C102.058-78.2612 101.618-78.2512 101.088-78.3012C100.078-78.4012 98.848-78.3512 97.488-78.2112C90.5979-77.5312 80.7379-74.5712 78.3079-73.4513C69.8979-69.5513 60.8778-62.6513 54.3478-54.9713C53.5878-54.0813 52.7678-53.0313 51.8878-51.8513C51.8078-51.7313 51.7178-51.6113 51.6278-51.5013ZM26.7021-2.63726C27.5395-1.84849 28.201-0.281119 28.423 1.63688C28.7787 4.70994 28.2859 8.79956 28.2859 8.79956C28.1729 9.71872 27.561 10.5001 26.6958 10.8302L9.44123 17.4138C8.51142 17.7685 7.45979 17.5381 6.7636 16.8271C6.06741 16.1161 5.85923 15.0599 6.23352 14.1378L12.9394-2.3835C13.2784-3.21898 14.0412-3.80702 14.9354-3.92271C14.9354-3.92271 19.1531-4.45922 22.3344-4.17317C24.2806-3.998 25.8894-3.40281 26.7021-2.63726ZM23.1975 1.05983C22.7381 0.973 21.5593 0.764438 20.7458 0.746027C19.404 0.715389 18.01 0.801671 17.0077 0.887954L13.0276 10.6938C13.0276 10.6938 23.4611 6.71285 23.4612 6.71257C23.5301 5.77102 23.5889 4.50261 23.537 3.28161C23.5059 2.54848 23.2912 1.49152 23.1975 1.05983ZM80.5403-67.0805C86.2887-67.0805 90.9547-62.4165 90.9547-56.6733C90.9547-50.9299 86.2887-46.2661 80.5403-46.2661C74.7918-46.2661 70.126-50.9299 70.126-56.6733C70.126-62.4165 74.7918-67.0805 80.5403-67.0805ZM80.5403-62.0804C77.5527-62.0804 75.1261-59.6582 75.1261-56.6733C75.1261-53.6884 77.5527-51.266 80.5403-51.266C83.528-51.266 85.9546-53.6884 85.9546-56.6733C85.9546-59.6582 83.528-62.0804 80.5403-62.0804Z"/>
  </g>
  <g id="Thin-M" transform="matrix(1 0 0 1 797.066 1126)">
   <path d="M28.4712-24.2714L7.39811-24.2514C6.93511-24.2514 6.49811-24.4614 6.21411-24.8314C5.92911-25.1914 5.82811-25.6614 5.94111-26.1114L12.8371-53.5313C13.0041-54.2013 13.6041-54.6713 14.2921-54.6713L47.9953-54.6613C48.8163-55.7513 49.5893-56.7313 50.2983-57.5613C57.2033-65.6813 66.7393-72.9613 75.6264-77.0812C78.2184-78.2812 88.7384-81.4612 96.0914-82.2012C98.0894-82.3912 99.8654-82.4112 101.221-82.1912C102.375-82.0012 103.272-81.6212 103.872-81.1212C104.55-80.5612 105.083-79.6712 105.407-78.5012C105.784-77.1312 105.896-75.3012 105.776-73.2013C105.34-65.5713 101.901-54.1213 99.4634-49.5213C94.1194-39.4413 88.3564-32.6013 80.5624-26.3014C79.7024-25.6114 78.6824-24.8414 77.5374-24.0314L77.4914 9.27855C77.4904 9.96855 77.0204 10.5686 76.3524 10.7286L49.1583 17.4585C48.7113 17.5685 48.2383 17.4685 47.8743 17.1885C47.5113 16.8985 47.2993 16.4685 47.2983 16.0085L47.2533-5.52141C42.3642-2.75142 38.9922-0.901422 38.9922-0.901422C38.4022-0.571422 37.6682-0.681422 37.1982-1.16142L24.0752-14.6014C23.6062-15.0814 23.5132-15.8114 23.8482-16.3914C23.8482-16.3914 25.6882-19.6014 28.4712-24.2714ZM45.8163-51.6613L15.4611-51.6713L9.32112-27.2514L30.2652-27.2814C34.7642-34.7713 40.8402-44.6113 45.8163-51.6613ZM74.5344-21.9614C67.5243-17.2814 57.7673-11.5314 50.2493-7.23141C50.2583-3.19142 50.2943 14.0885 50.2943 14.0885L74.4934 8.09856L74.5344-21.9614ZM49.8583-52.1513C41.8902-41.3813 29.7642-20.6214 27.0162-15.8814C27.0162-15.8814 38.5462-4.08141 38.5472-4.08141C43.9522-7.07141 69.8293-21.4914 78.6774-28.6414C86.1574-34.6813 91.6834-41.2513 96.8134-50.9213C99.1234-55.2813 102.368-66.1413 102.781-73.3713C102.864-74.8212 102.833-76.1212 102.637-77.1712C102.499-77.9012 102.331-78.5012 101.949-78.8212C101.68-79.0412 101.254-79.1412 100.737-79.2312C99.5884-79.4212 98.0824-79.3812 96.3884-79.2112C89.3844-78.5112 79.3574-75.5012 76.8884-74.3612C68.3593-70.4013 59.2113-63.4113 52.5823-55.6213C51.8063-54.7013 50.9533-53.6213 50.0433-52.4013C49.9903-52.3113 49.9283-52.2213 49.8583-52.1513ZM25.0162-1.90936C25.7293-1.23751 26.2403 0.118281 26.4293 1.75174C26.7732 4.72313 26.2931 8.67756 26.2931 8.67756C26.2251 9.22905 25.8581 9.69784 25.3389 9.89596L8.08436 16.4795C7.5265 16.6923 6.89563 16.5541 6.47789 16.1275C6.06015 15.7009 5.93516 15.0671 6.1597 14.514L12.8657-2.00746C13.0692-2.50866 13.5268-2.86162 14.0632-2.93087C14.0632-2.93087 18.1567-3.45489 21.2446-3.17722C22.9172-3.02663 24.3177-2.56733 25.0162-1.90936ZM22.959 0.274222C22.8396 0.161834 22.6408 0.112648 22.4166 0.04931C22.0004-0.068298 21.5062-0.141528 20.9757-0.189203C19.0018-0.366714 16.5758-0.179036 15.3097-0.0520856L10.2362 12.4475C10.2362 12.4475 23.4072 7.42207 23.4072 7.42165C23.5174 6.19776 23.6622 3.93711 23.4492 2.09673C23.3918 1.60143 23.3097 1.14034 23.1831 0.753034C23.1186 0.555876 23.069 0.377815 22.959 0.274222ZM79.54-66.0806C84.7363-66.0806 88.9543-61.8649 88.9543-56.6733C88.9543-51.4816 84.7363-47.266 79.54-47.266C74.3436-47.266 70.1256-51.4816 70.1256-56.6733C70.1256-61.8649 74.3436-66.0806 79.54-66.0806ZM79.54-63.0805C76.0002-63.0805 73.1256-60.2099 73.1256-56.6733C73.1256-53.1367 76.0002-50.2661 79.54-50.2661C83.0798-50.2661 85.9542-53.1367 85.9542-56.6733C85.9542-60.2099 83.0798-63.0805 79.54-63.0805Z"/>
  </g>
  <g id="Ultralight-M" transform="matrix(1 0 0 1 500.855 1126)">
   <path d="M28.8496-24.7714L6.89747-24.7514C6.58847-24.7514 6.29747-24.8914 6.10747-25.1314C5.91747-25.3814 5.85047-25.6914 5.92647-25.9914L12.8215-53.4113C12.9335-53.8613 13.3335-54.1713 13.7915-54.1713L47.7446-54.1613C48.6146-55.3213 49.4316-56.3613 50.1786-57.2413C57.0377-65.3013 66.5097-72.5313 75.3367-76.6212C77.9077-77.8212 88.3458-80.9712 95.6408-81.7012C97.5878-81.8912 99.3198-81.9112 100.641-81.7012C101.688-81.5312 102.507-81.1912 103.052-80.7412C103.664-80.2312 104.133-79.4312 104.425-78.3712C104.791-77.0412 104.894-75.2712 104.777-73.2313C104.346-65.6613 100.939-54.3113 98.5218-49.7513C93.2138-39.7413 87.4898-32.9413 79.7487-26.6914C78.8417-25.9614 77.7587-25.1514 76.5377-24.2914L76.4917 9.27855C76.4907 9.73855 76.1777 10.1286 75.7317 10.2486L48.5376 16.9785C48.2396 17.0485 47.9246 16.9785 47.6826 16.7885C47.4406 16.5985 47.2986 16.3085 47.2976 16.0085L47.2516-6.38141C41.9676-3.37142 38.2516-1.34142 38.2516-1.34142C37.8586-1.12142 37.3696-1.19142 37.0556-1.51142L23.9325-14.9514C23.6205-15.2714 23.5585-15.7614 23.7815-16.1414C23.7815-16.1414 25.8205-19.6914 28.8496-24.7714ZM46.2836-52.1613C39.0786-52.1613 14.5705-52.1713 14.5705-52.1713L8.17948-26.7514L30.0466-26.7814C34.7246-34.5813 41.1656-45.0113 46.2836-52.1613ZM74.5357-22.9014C67.4227-18.0814 57.0757-11.9914 49.2486-7.52141C49.2566-4.05141 49.2956 14.7285 49.2956 14.7285L74.4927 8.48856L74.5357-22.9014ZM48.9766-52.4713C40.7926-41.4113 28.2225-19.8314 25.8935-15.8014C25.8935-15.8014 37.9546-3.46142 37.9556-3.46142C42.5296-5.98141 69.4277-20.9214 78.4917-28.2514C86.0238-34.3313 91.5898-40.9413 96.7548-50.6913C99.0868-55.0913 102.364-66.0413 102.781-73.3413C102.882-75.1212 102.817-76.6812 102.498-77.8412C102.332-78.4312 102.115-78.9112 101.77-79.2012C101.446-79.4712 100.941-79.6212 100.319-79.7212C99.1348-79.9112 97.5838-79.8812 95.8388-79.7112C88.7768-79.0012 78.6677-75.9612 76.1777-74.8112C67.5887-70.8313 58.3757-63.7913 51.7016-55.9413C50.9136-55.0213 50.0466-53.9113 49.1216-52.6713C49.0816-52.6013 49.0326-52.5313 48.9766-52.4713ZM24.1732-1.54554C24.8245-0.931947 25.2599 0.317775 25.4327 1.80931C25.7706 4.72986 25.2967 8.61656 25.2967 8.61656C25.2516 8.98422 25.0068 9.29679 24.6607 9.42882L7.40616 16.0124C7.03421 16.1543 6.61358 16.0621 6.33513 15.7777C6.05668 15.4933 5.97336 15.0708 6.1231 14.7019L12.8289-1.81937C12.9647-2.1535 13.2696-2.38886 13.6274-2.43502C13.6274-2.43502 17.6588-2.95272 20.6997-2.67917C22.2357-2.54095 23.5319-2.14966 24.1732-1.54554ZM22.8018-0.0897312C22.3879-0.479651 21.5118-0.598083 20.5206-0.687251C18.3439-0.883035 15.6266-0.643011 14.4592-0.517984L8.84075 13.3243C8.84075 13.3243 23.3756 7.77846 23.3756 7.77832C23.4868 6.64044 23.6826 4.08508 23.4458 2.03917C23.3844 1.50773 23.2943 1.01312 23.1583 0.597506C23.0639 0.308844 22.9629 0.0620875 22.8018-0.0897312ZM79.04-65.5805C83.9603-65.5805 87.9543-61.5891 87.9543-56.6733C87.9543-51.7575 83.9603-47.7661 79.04-47.7661C74.1198-47.7661 70.1257-51.7575 70.1257-56.6733C70.1257-61.5891 74.1198-65.5805 79.04-65.5805ZM79.04-63.5805C75.2241-63.5805 72.1257-60.4857 72.1257-56.6733C72.1257-52.8609 75.2241-49.766 79.04-49.766C82.8558-49.766 85.9544-52.8609 85.9544-56.6733C85.9544-60.4857 82.8558-63.5805 79.04-63.5805Z"/>
  </g>
  <g id="Black-S" transform="matrix(1 0 0 1 2880.87 696)">
   <path d="M20.814-22.787L10.904-22.774C9.36398-22.772 7.90398-23.482 6.95398-24.697C6.00398-25.912 5.67398-27.497 6.04398-28.993L11.474-50.589C12.034-52.812 14.034-54.371 16.324-54.371L40.984-54.365C41.244-54.699 41.504-55.013 41.754-55.305C47.544-62.113 55.544-68.21 62.984-71.667C65.184-72.686 74.094-75.414 80.324-76.035C84.504-76.452 87.804-75.553 89.274-74.318C90.994-72.881 92.394-69.512 92.134-64.932C91.764-58.413 88.814-48.636 86.734-44.708C82.254-36.253 77.414-30.522 70.884-25.241C70.584-25 70.264-24.748 69.914-24.487L69.884-0.181C69.884 2.114 68.314 4.113 66.084 4.665L44.684 9.966C43.194 10.335 41.614 9.999 40.404 9.054C39.194 8.108 38.484 6.659 38.484 5.123L38.464-5.328C37.904-5.021 37.604-4.853 37.604-4.853C35.634-3.773 33.184-4.137 31.614-5.744L21.294-16.326C19.734-17.926 19.424-20.369 20.534-22.308C20.534-22.308 20.634-22.475 20.814-22.787ZM33.974-44.367C27.554-44.368 20.224-44.37 20.224-44.37L17.314-32.782L26.744-32.794C28.944-36.421 31.494-40.537 33.974-44.367ZM59.904-17.824C56.124-15.484 52.064-13.084 48.444-10.994C48.454-7.282 48.464-1.274 48.464-1.274L59.884-4.102L59.904-17.824ZM47.254-46.122C42.044-39.072 34.564-26.517 31.104-20.594C31.104-20.594 36.114-15.459 36.114-15.46C42.994-19.309 58.694-28.249 64.594-33.018C70.084-37.455 74.134-42.285 77.894-49.39C79.324-52.091 81.214-58.259 81.924-63.256C82.044-64.114 82.084-65.167 82.094-66.031C80.804-65.945 79.014-65.786 77.634-65.514C73.244-64.649 68.584-63.238 67.194-62.596C60.944-59.692 54.234-54.548 49.374-48.828C48.834-48.203 48.264-47.472 47.644-46.656C47.524-46.469 47.394-46.291 47.254-46.122ZM27.3879-11.775C28.4233-10.7987 29.3993-8.92514 29.6738-6.55171C29.9892-3.82353 29.5632-0.192491 29.5632-0.192491C29.3374 1.64548 28.1143 3.20815 26.3843 3.86882L12.8048 9.05441C10.9455 9.76432 8.84215 9.30407 7.44938 7.88241C6.05661 6.46075 5.63965 4.34855 6.38755 2.50419L11.6652-10.5089C12.3431-12.1803 13.8685-13.3571 15.6573-13.5885C15.6573-13.5885 19.3537-14.0496 22.1416-13.7986C24.5053-13.5858 26.4009-12.7055 27.3879-11.775ZM67.6783-63.3602C73.8756-63.3602 78.9069-58.3289 78.9069-52.132C78.9069-45.9351 73.8756-40.9038 67.6783-40.9038C61.4809-40.9038 56.4496-45.9351 56.4496-52.132C56.4496-58.3289 61.4809-63.3602 67.6783-63.3602ZM67.6783-53.3602C67.0003-53.3602 66.4496-52.81 66.4496-52.132C66.4496-51.4541 67.0003-50.9039 67.6783-50.9039C68.3563-50.9039 68.9069-51.4541 68.9069-52.132C68.9069-52.81 68.3563-53.3602 67.6783-53.3602Z"/>
  </g>
  <g id="Heavy-S" transform="matrix(1 0 0 1 2584.66 696)">
   <path d="M21.173-23.288L10.403-23.274C9.01299-23.272 7.70299-23.911 6.84299-25.005C5.99299-26.098 5.69299-27.525 6.03299-28.871L11.453-50.467C11.953-52.468 13.753-53.871 15.823-53.871L40.713-53.865C41.033-54.266 41.333-54.639 41.623-54.981C47.373-61.735 55.303-67.784 62.693-71.213C64.873-72.223 73.693-74.922 79.863-75.538C83.873-75.937 87.033-75.117 88.453-73.935C90.093-72.563 91.383-69.332 91.133-64.96C90.763-58.508 87.843-48.83 85.783-44.942C81.343-36.555 76.543-30.869 70.063-25.63C69.713-25.346 69.323-25.047 68.913-24.736L68.883-0.182C68.873 1.884 67.463 3.683 65.463 4.18L44.053 9.481C42.713 9.813 41.293 9.51 40.203 8.659C39.113 7.809 38.483 6.504 38.473 5.122L38.453-6.177C37.433-5.612 36.853-5.292 36.853-5.292C35.083-4.319 32.883-4.647 31.473-6.094L21.143-16.675C19.743-18.115 19.463-20.314 20.463-22.059C20.463-22.059 20.713-22.502 21.173-23.288ZM34.393-44.867L19.323-44.87L16.163-32.281L26.523-32.294C28.903-36.22 31.693-40.745 34.393-44.867ZM59.903-18.721C55.833-16.183 51.353-13.542 47.443-11.28L47.463-0.635L59.883-3.711L59.903-18.721ZM46.363-46.441C41.043-39.239 33.353-26.304 29.973-20.517C29.973-20.517 35.513-14.837 35.513-14.837C42.223-18.584 58.393-27.769 64.403-32.629C69.943-37.108 74.033-41.984 77.833-49.156C79.283-51.889 81.193-58.129 81.913-63.185C82.063-64.255 82.083-65.613 82.083-66.582C81.063-66.546 79.643-66.465 78.513-66.275C73.683-65.469 68.033-63.772 66.483-63.049C60.163-60.118 53.393-54.927 48.483-49.152C47.943-48.515 47.353-47.769 46.723-46.935C46.613-46.762 46.493-46.597 46.363-46.441ZM26.534-11.4111C27.5072-10.4935 28.4081-8.72526 28.6661-6.49424C28.9757-3.81682 28.556-0.253418 28.556-0.253418C28.3528 1.40069 27.2519 2.8071 25.695 3.40165L12.1153 8.58724C10.4421 9.22626 8.54911 8.812 7.29562 7.53254C6.04213 6.25308 5.66673 4.35202 6.33995 2.69217L11.6176-10.321C12.2277-11.8253 13.6005-12.8844 15.2104-13.0926C15.2104-13.0926 18.8446-13.5473 21.5858-13.3006C23.8122-13.1002 25.6043-12.2877 26.534-11.4111ZM19.6494-4.24006L18.8562-4.22242L18.5675-3.51045C18.5675-3.51045 19.6464-3.92255 19.6464-3.92244L19.6494-4.24006ZM67.1673-62.8602C73.0886-62.8602 77.8959-58.053 77.8959-52.132C77.8959-46.2111 73.0886-41.4039 67.1673-41.4039C61.2458-41.4039 56.4386-46.2111 56.4386-52.132C56.4386-58.053 61.2458-62.8602 67.1673-62.8602ZM67.1673-53.8601C66.2133-53.8601 65.4386-53.0859 65.4386-52.132C65.4386-51.1781 66.2133-50.4039 67.1673-50.4039C68.1212-50.4039 68.896-51.1781 68.896-52.132C68.896-53.0859 68.1212-53.8601 67.1673-53.8601Z"/>
  </g>
  <g id="Bold-S" transform="matrix(1 0 0 1 2288.19 696)">
   <path d="M21.3636-23.538L10.1536-23.524C8.84356-23.522 7.60356-24.125 6.79356-25.158C5.99356-26.191 5.70356-27.539 6.02356-28.81L11.4536-50.406C11.9236-52.296 13.6236-53.621 15.5736-53.621L40.5936-53.615C40.9336-54.049 41.2636-54.452 41.5736-54.819C47.2936-61.546 55.1936-67.571 62.5536-70.986C64.7136-71.991 73.5036-74.676 79.6436-75.289C83.5636-75.679 86.6636-74.899 88.0436-73.743C88.9836-72.956 89.7936-71.772 90.2436-70.141C90.6136-68.808 90.7536-67.025 90.6436-64.974C90.2736-58.555 87.3636-48.927 85.3136-45.059C80.8936-36.706 76.1136-31.042 69.6636-25.825C69.2836-25.519 68.8636-25.197 68.4136-24.861L68.3836-0.182C68.3836 1.769 67.0436 3.468 65.1536 3.937L43.7536 9.238C42.4836 9.552 41.1436 9.266 40.1136 8.462C39.0836 7.659 38.4836 6.427 38.4836 5.122L38.4536-6.602C37.2136-5.909 36.4936-5.511 36.4936-5.511C34.8136-4.593 32.7336-4.902 31.4036-6.268L21.0736-16.85C19.7536-18.21 19.4836-20.286 20.4336-21.935C20.4336-21.935 20.7736-22.519 21.3636-23.538ZM34.6136-45.117L18.8836-45.12L15.6036-32.031L26.4236-32.045C28.8836-36.119 31.8136-40.854 34.6136-45.117ZM59.9036-19.171C55.6936-16.536 51.0136-13.771 46.9436-11.424L46.9736-0.316C46.9736-0.316 59.8836-3.515 59.8836-3.515L59.9036-19.171ZM45.9236-46.6C40.5436-39.32 32.7436-26.188 29.4136-20.478C29.4136-20.478 35.2236-14.525 35.2236-14.525C41.8436-18.216 58.2436-27.527 64.3136-32.435C69.8836-36.935 73.9936-41.833 77.8036-49.039C79.2636-51.789 81.1936-58.064 81.9136-63.15C82.0936-64.386 82.1036-65.902 82.0836-66.884C81.5736-66.889 80.9836-66.88 80.4936-66.831C75.3336-66.317 67.9436-64.12 66.1336-63.276C59.7836-60.331 52.9836-55.116 48.0436-49.314C47.5036-48.671 46.9036-47.917 46.2736-47.074C46.1636-46.908 46.0536-46.75 45.9236-46.6ZM26.123-11.2292C27.0652-10.3409 27.9285-8.62538 28.1783-6.46556C28.485-3.81347 28.0684-0.283935 28.0684-0.283935C27.8765 1.27841 26.8368 2.60657 25.3663 3.16811L11.7867 8.3537C10.2064 8.95723 8.41854 8.56602 7.23474 7.35755C6.05084 6.14919 5.69643 4.35375 6.33221 2.7861L11.6098-10.2271C12.1859-11.6477 13.4826-12.6479 15.0031-12.8447C15.0031-12.8447 18.6062-13.2963 21.3239-13.0516C23.4817-12.8574 25.222-12.0787 26.123-11.2292ZM19.6578-4.62315C19.5335-4.62737 19.4145-4.62965 19.3072-4.62889C19.0356-4.62716 18.7657-4.62012 18.504-4.60952L17.8804-3.07196L19.6509-3.74799L19.6578-4.62315ZM66.9278-62.6101C72.7112-62.6101 77.4065-57.915 77.4065-52.132C77.4065-46.3491 72.7112-41.6538 66.9278-41.6538C61.1444-41.6538 56.4492-46.3491 56.4492-52.132C56.4492-57.915 61.1444-62.6101 66.9278-62.6101ZM66.9278-54.1102C65.8359-54.1102 64.9492-53.2239 64.9492-52.132C64.9492-51.0401 65.8359-50.1539 66.9278-50.1539C68.0198-50.1539 68.9065-51.0401 68.9065-52.132C68.9065-53.2239 68.0198-54.1102 66.9278-54.1102Z"/>
  </g>
  <g id="Semibold-S" transform="matrix(1 0 0 1 1991.73 696)">
   <path d="M21.5475-23.789L9.8975-23.774C8.6675-23.773 7.4975-24.34 6.7375-25.312C5.9775-26.285 5.7175-27.553 6.0175-28.749L11.4375-50.345C11.8875-52.124 13.4875-53.371 15.3175-53.371L40.4575-53.365C40.8275-53.833 41.1775-54.265 41.5075-54.657C47.2075-61.357 55.0775-67.358 62.4075-70.76C64.5575-71.76 73.3075-74.43 79.4175-75.04C81.6675-75.265 83.6275-75.192 84.9975-74.846C86.1075-74.563 86.9775-74.094 87.6275-73.551C88.5375-72.792 89.3175-71.648 89.7475-70.075C90.1075-68.763 90.2475-67.008 90.1375-64.989C89.7675-58.603 86.8775-49.024 84.8475-45.177C80.4375-36.856 75.6775-31.215 69.2475-26.019C68.8475-25.693 68.3975-25.348 67.9175-24.987L67.8775-0.183C67.8775 1.654 66.6275 3.253 64.8375 3.694L43.4375 8.995C42.2475 9.291 40.9875 9.022 40.0175 8.265C39.0475 7.509 38.4775 6.35 38.4775 5.121L38.4475-7.028C36.9875-6.208 36.1175-5.73 36.1175-5.73C34.5475-4.866 32.5875-5.157 31.3275-6.443L21.0075-17.024C19.7575-18.305 19.5075-20.259 20.3975-21.81C20.3975-21.81 20.8175-22.539 21.5475-23.789ZM34.8175-45.366C27.7875-45.368 18.4375-45.37 18.4375-45.37L15.0275-31.781L26.3075-31.795C28.8575-36.018 31.9175-40.967 34.8175-45.366ZM59.9075-19.622C55.5575-16.89 50.6575-14 46.4375-11.567C46.4475-7.633 46.4675 0.004 46.4675 0.004C46.4675 0.004 59.8875-3.319 59.8875-3.32L59.9075-19.622ZM45.4775-46.76C40.0375-39.4 32.1275-26.064 28.8475-20.44C28.8475-20.44 34.9275-14.214 34.9275-14.214C41.4275-17.842 58.0875-27.285 64.2175-32.24C69.8075-36.762 73.9375-41.682 77.7775-48.922C79.2375-51.688 81.1775-57.999 81.9075-63.115C82.0975-64.461 82.0875-66.13 82.0575-67.128C81.4975-67.139 80.7875-67.137 80.2075-67.08C75.0275-66.562 67.5975-64.351 65.7675-63.503C59.3975-60.544 52.5575-55.305 47.6075-49.476C47.0575-48.827 46.4475-48.065 45.8175-47.213C45.7075-47.054 45.5975-46.903 45.4775-46.76ZM25.6954-11.0473C26.6065-10.1883 27.4324-8.52539 27.6739-6.43678C27.9776-3.81022 27.5642-0.314453 27.5642-0.314453C27.3835 1.15601 26.405 2.40604 25.021 2.93458L11.4415 8.12017C9.95415 8.6882 8.27146 8.31994 7.15725 7.18267C6.04304 6.0453 5.7094 4.35548 6.30774 2.88003L11.5854-10.1331C12.1277-11.4702 13.3481-12.4116 14.779-12.5968C14.779-12.5968 18.3512-13.0452 21.0454-12.8026C23.1347-12.6145 24.8231-11.8699 25.6954-11.0473ZM19.6479-4.86123C19.4359-4.87281 19.2272-4.88006 19.0495-4.87898C18.7187-4.87682 18.3905-4.86686 18.0767-4.85225L17.1767-2.63335C17.1767-2.63335 19.6392-3.57376 19.6392-3.57376L19.6479-4.86123ZM66.6718-62.3602C72.3172-62.3602 76.9005-57.7771 76.9005-52.132C76.9005-46.487 72.3172-41.9038 66.6718-41.9038C61.0263-41.9038 56.4431-46.487 56.4431-52.132C56.4431-57.7771 61.0263-62.3602 66.6718-62.3602ZM66.6718-54.3602C65.4419-54.3602 64.4431-53.3618 64.4431-52.132C64.4431-50.9022 65.4419-49.9038 66.6718-49.9038C67.9017-49.9038 68.9005-50.9022 68.9005-52.132C68.9005-53.3618 67.9017-54.3602 66.6718-54.3602Z"/>
  </g>
  <g id="Medium-S" transform="matrix(1 0 0 1 1695.52 696)">
   <path d="M21.9186-24.29L9.39864-24.274C8.31864-24.273 7.29864-24.769 6.63864-25.62C5.97864-26.471 5.73864-27.58 5.99864-28.627L11.4286-50.223C11.8186-51.78 13.2186-52.871 14.8286-52.871L40.2086-52.865C40.6186-53.401 41.0186-53.893 41.3986-54.334C47.0486-60.979 54.8486-66.932 62.1186-70.306C64.2586-71.297 72.9186-73.938 78.9686-74.543C81.1586-74.76 83.0586-74.697 84.3786-74.361C85.4086-74.1 86.2186-73.67 86.8186-73.168C87.6586-72.464 88.3686-71.4 88.7686-69.942C89.1186-68.672 89.2486-66.972 89.1386-65.017C88.7786-58.698 85.9186-49.218 83.9086-45.411C79.5386-37.158 74.8186-31.562 68.4386-26.408C67.9886-26.041 67.4786-25.65 66.9186-25.238L66.8786-0.183C66.8786 1.424 65.7886 2.823 64.2286 3.209L42.8186 8.51C41.7786 8.769 40.6786 8.533 39.8286 7.871C38.9786 7.21 38.4786 6.195 38.4786 5.12L38.4586-7.879C36.5486-6.809 35.3786-6.168 35.3786-6.168C33.9986-5.412 32.2886-5.667 31.1886-6.792L20.8686-17.374C19.7686-18.494 19.5586-20.204 20.3386-21.561C20.3386-21.561 20.9186-22.587 21.9186-24.29ZM35.2486-45.866C28.0286-45.868 17.5586-45.87 17.5586-45.87C17.5586-45.87 13.8886-31.28 13.8886-31.28L26.0886-31.295C28.8186-35.815 32.1486-41.206 35.2486-45.866ZM59.9086-20.527C55.2986-17.606 49.9586-14.457 45.4486-11.854L45.4686 0.642L59.8886-2.928L59.9086-20.527ZM44.5986-47.08C39.0386-39.553 30.8886-25.79 27.7286-20.363C27.7286-20.363 34.3386-13.591 34.3386-13.591C40.5986-17.08 57.7886-26.796 64.0386-31.851C69.6786-36.415 73.8486-41.38 77.7186-48.687C79.4386-51.935 81.8486-60.027 82.1486-65.416C82.1886-66.125 82.1186-67.024 82.0586-67.604C81.4286-67.633 80.4586-67.656 79.6686-67.577C74.4186-67.054 66.9086-64.814 65.0686-63.957C58.6286-60.969 51.7286-55.683 46.7286-49.8C46.1686-49.139 45.5486-48.361 44.8986-47.49C44.8086-47.346 44.7086-47.209 44.5986-47.08ZM24.8535-10.6835C25.7025-9.88309 26.4533-8.32551 26.6784-6.37942C26.9762-3.80351 26.5691-0.375379 26.5691-0.375379C26.411 0.911224 25.5548 2.00509 24.3438 2.46751L10.7643 7.6531C9.46286 8.15003 7.99055 7.82787 7.01551 6.8327C6.04057 5.83752 5.74871 4.35894 6.27227 3.06801L11.55-9.94521C12.0244-11.1152 13.0923-11.9389 14.3444-12.1009C14.3444-12.1009 17.8543-12.543 20.5017-12.3047C22.4538-12.1289 24.0384-11.452 24.8535-10.6835ZM19.7272-5.31477C19.3385-5.34984 18.8908-5.38111 18.5474-5.37895C18.0951-5.37602 17.6474-5.35871 17.234-5.33501L15.7826-1.75624C15.7826-1.75624 19.7763-3.28136 19.7764-3.28179C19.7892-3.62203 19.7962-3.98304 19.7924-4.34709C19.7895-4.62856 19.7602-4.98979 19.7272-5.31477ZM66.1729-61.8601C71.5424-61.8601 75.9016-57.5011 75.9016-52.132C75.9016-46.7629 71.5424-42.4039 66.1729-42.4039C60.8035-42.4039 56.4443-46.7629 56.4443-52.132C56.4443-57.5011 60.8035-61.8601 66.1729-61.8601ZM66.1729-54.8602C64.667-54.8602 63.4443-53.6378 63.4443-52.132C63.4443-50.6263 64.667-49.4039 66.1729-49.4039C67.6788-49.4039 68.9016-50.6263 68.9016-52.132C68.9016-53.6378 67.6788-54.8602 66.1729-54.8602Z"/>
  </g>
  <g id="Regular-S" transform="matrix(1 0 0 1 1399.31 696)">
   <path d="M22.2892-24.791L8.89924-24.774C7.96924-24.773 7.09924-25.199 6.52924-25.928C5.95924-26.657 5.75924-27.608 5.98924-28.505L11.4092-50.102C11.7492-51.436 12.9492-52.371 14.3192-52.371L39.9492-52.365C40.4092-52.969 40.8592-53.521 41.2692-54.01C46.8792-60.6 54.6192-66.506 61.8292-69.853C63.9392-70.834 72.5192-73.447 78.5192-74.045C80.6292-74.256 82.4692-74.201 83.7492-73.876C84.6992-73.637 85.4392-73.245 85.9892-72.784C86.7692-72.136 87.4192-71.152 87.7892-69.809C88.1192-68.58 88.2492-66.936 88.1392-65.046C87.7792-58.793 84.9592-49.413 82.9592-45.645C78.6292-37.46 73.9492-31.909 67.6192-26.797C67.1192-26.389 66.5492-25.952 65.9192-25.491L65.8792-0.184C65.8792 1.193 64.9392 2.393 63.5992 2.724L42.1992 8.025C41.3092 8.246 40.3592 8.044 39.6292 7.477C38.9092 6.91 38.4792 6.04 38.4792 5.119L38.4492-8.732C36.1092-7.415 34.6392-6.607 34.6392-6.607C33.4592-5.959 31.9892-6.177 31.0492-7.141L20.7192-17.723C19.7792-18.683 19.5992-20.149 20.2592-21.312C20.2592-21.312 21.0292-22.645 22.2892-24.791ZM35.6792-46.366L16.6592-46.37L12.7392-30.779L25.8692-30.795C28.7692-35.611 32.3892-41.465 35.6792-46.366ZM59.9092-21.437C55.0492-18.333 49.2592-14.914 44.4392-12.141L44.4692 1.281L59.8792-2.537L59.9092-21.437ZM43.7092-47.399C38.0192-39.697 29.6192-25.475 26.5992-20.285C26.5992-20.285 33.7392-12.969 33.7392-12.969C39.7192-16.292 57.4692-26.302 63.8492-31.462C69.5492-36.069 73.7492-41.079 77.6592-48.453C79.3992-51.741 81.8392-59.932 82.1492-65.387C82.1992-66.326 82.0692-67.49 81.9792-68.064C81.3592-68.108 80.0992-68.173 79.1192-68.075C73.8092-67.546 66.2192-65.277 64.3492-64.41C57.8592-61.395 50.8892-56.061 45.8392-50.123C45.2692-49.451 44.6492-48.657 43.9792-47.767C43.8992-47.637 43.8092-47.515 43.7092-47.399ZM24.0102-10.3197C24.797-9.57781 25.4726-8.12574 25.6813-6.32196C25.9732-3.79691 25.5724-0.436414 25.5724-0.436414C25.4369 0.666435 24.703 1.60404 23.6651 2.00033L10.0855 7.18592C8.96992 7.61197 7.70799 7.3358 6.87233 6.48283C6.03667 5.62985 5.78647 4.3624 6.23525 3.25588L11.5128-9.75723C11.9196-10.7601 12.8348-11.4662 13.908-11.6051C13.908-11.6051 17.356-12.0407 19.9565-11.8067C21.7715-11.6433 23.2523-11.0343 24.0102-10.3197ZM19.6676-5.76334C19.1883-5.8182 18.5233-5.88205 18.0438-5.87891C17.4644-5.87513 16.8923-5.84829 16.3885-5.81442L14.3869-0.879134C14.3869-0.879134 19.7608-2.93127 19.7608-2.9316C19.783-3.37161 19.7971-3.85935 19.7919-4.35228C19.7876-4.76741 19.7238-5.33707 19.6676-5.76334ZM65.6725-61.3602C70.766-61.3602 74.9012-57.2251 74.9012-52.132C74.9012-47.039 70.766-42.9039 65.6725-42.9039C60.579-42.9039 56.4439-47.039 56.4439-52.132C56.4439-57.2251 60.579-61.3602 65.6725-61.3602ZM65.6725-55.3602C63.8906-55.3602 62.4439-53.9137 62.4439-52.132C62.4439-50.3503 63.8906-48.9038 65.6725-48.9038C67.4543-48.9038 68.9012-50.3503 68.9012-52.132C68.9012-53.9137 67.4543-55.3602 65.6725-55.3602Z"/>
  </g>
  <g id="Light-S" transform="matrix(1 0 0 1 1103.35 696)">
   <path d="M22.8545-25.543L8.14449-25.524C7.45449-25.523 6.79449-25.842 6.36449-26.389C5.94449-26.936 5.79449-27.649 5.96449-28.322L11.3845-49.919C11.6345-50.919 12.5345-51.621 13.5745-51.621L39.5645-51.615C40.1045-52.324 40.6145-52.965 41.0945-53.524C46.6245-60.033 54.2645-65.868 61.3945-69.172C63.4745-70.139 71.9345-72.709 77.8445-73.299C79.5245-73.466 81.0145-73.471 82.1545-73.285C83.2945-73.099 84.1645-72.704 84.7545-72.209C85.4345-71.644 85.9845-70.78 86.3145-69.61C86.6345-68.444 86.7445-66.883 86.6345-65.088C86.2845-58.935 83.5145-49.704 81.5445-45.996C77.2645-37.912 72.6445-32.429 66.3945-27.38C65.8245-26.914 65.1545-26.409 64.4145-25.873L64.3745-0.185C64.3745 0.848 63.6745 1.747 62.6645 1.996L41.2645 7.297C40.5945 7.463 39.8845 7.311 39.3445 6.886C38.7945 6.461 38.4745 5.809 38.4745 5.117L38.4445-10.013C35.4645-8.333 33.5245-7.264 33.5245-7.264C32.6345-6.778 31.5345-6.942 30.8345-7.665L20.5045-18.247C19.8045-18.967 19.6645-20.066 20.1645-20.939C20.1645-20.939 21.2045-22.747 22.8545-25.543ZM36.3445-47.116C29.0945-47.117 15.3245-47.12 15.3245-47.12C15.3245-47.12 11.0245-30.028 11.0245-30.028L25.5345-30.046C28.7045-35.307 32.7745-41.896 36.3445-47.116ZM59.9045-22.81C54.7345-19.447 48.2045-15.599 42.9445-12.573C42.9445-8.769 42.9745 2.239 42.9745 2.239L59.8845-1.95L59.9045-22.81ZM42.3745-47.88C36.4745-39.889 27.6645-24.902 24.9145-20.169C24.9145-20.169 32.8545-12.035 32.8545-12.035C38.2845-15.048 56.9745-25.546 63.5745-30.879C69.3445-35.549 73.6045-40.626 77.5745-48.102C79.3445-51.45 81.8245-59.79 82.1445-65.345C82.2045-66.391 82.1845-67.326 82.0445-68.081C82.0045-68.304 81.8945-68.6 81.8445-68.736C81.6845-68.778 81.3345-68.865 81.0645-68.89C80.2845-68.964 79.3345-68.925 78.2845-68.821C72.8945-68.283 65.1845-65.972 63.2845-65.09C56.6945-62.034 49.6345-56.629 44.5245-50.609C43.9345-49.918 43.2845-49.099 42.6045-48.18C42.5345-48.074 42.4645-47.973 42.3745-47.88ZM22.7438-9.774C23.4376-9.11993 24.0006-7.82619 24.1844-6.23582C24.4676-3.78695 24.0763-0.527859 24.0763-0.527859C23.9746 0.299252 23.4242 1.00245 22.6457 1.29973L9.06617 6.48532C8.22954 6.80478 7.28306 6.59765 6.65627 5.95797C6.02958 5.31819 5.84193 4.36771 6.17848 3.53778L11.4562-9.47543C11.7611-10.2275 12.4477-10.7571 13.2526-10.8612C13.2526-10.8612 16.6071-11.2874 19.1375-11.0596C20.7469-10.9148 22.0719-10.4076 22.7438-9.774ZM19.5609-6.42217C19.1641-6.49121 18.3994-6.6122 17.8553-6.62464C16.8855-6.64672 15.8804-6.59034 15.1169-6.52833L12.2923 0.436472C12.2923 0.436472 19.7298-2.40371 19.7298-2.40403C19.7776-3.11427 19.8134-4.02103 19.7764-4.8964C19.7558-5.38046 19.6332-6.05726 19.5609-6.42217ZM64.9208-60.6102C69.6003-60.6102 73.3994-56.8112 73.3994-52.132C73.3994-47.4528 69.6003-43.6538 64.9208-43.6538C60.2412-43.6538 56.4421-47.4528 56.4421-52.132C56.4421-56.8112 60.2412-60.6102 64.9208-60.6102ZM64.9208-56.1102C62.7249-56.1102 60.9421-54.3277 60.9421-52.132C60.9421-49.9364 62.7249-48.1538 64.9208-48.1538C67.1165-48.1538 68.8994-49.9364 68.8994-52.132C68.8994-54.3277 67.1165-56.1102 64.9208-56.1102Z"/>
  </g>
  <g id="Thin-S" transform="matrix(1 0 0 1 807.388 696)">
   <path d="M23.4213-26.294L7.39729-26.274C6.93529-26.273 6.49829-26.486 6.21329-26.851C5.92829-27.215 5.82829-27.691 5.94129-28.14L11.3673-49.736C11.5353-50.403 12.1353-50.871 12.8223-50.871L39.1883-50.865C39.8033-51.679 40.3823-52.411 40.9163-53.038C46.3803-59.466 53.9273-65.229 60.9583-68.492C63.0113-69.445 71.3443-71.971 77.1683-72.552C78.7733-72.713 80.2003-72.723 81.2883-72.545C82.2653-72.385 83.0213-72.059 83.5293-71.634C84.1053-71.152 84.5643-70.408 84.8393-69.41C85.1443-68.307 85.2383-66.829 85.1413-65.131C84.7963-59.078 82.0683-49.995 80.1363-46.347C75.9073-38.364 71.3463-32.949 65.1803-27.963C64.5323-27.439 63.7703-26.867 62.9173-26.257L62.8813-0.186C62.8803 0.503 62.4103 1.102 61.7413 1.268L40.3403 6.569C39.8923 6.679 39.4193 6.579 39.0563 6.295C38.6933 6.011 38.4803 5.577 38.4793 5.116L38.4453-11.296C34.8543-9.261 32.4163-7.922 32.4163-7.922C31.8253-7.598 31.0913-7.707 30.6213-8.189L20.2933-18.771C19.8253-19.251 19.7323-19.983 20.0663-20.565C20.0663-20.565 21.3903-22.87 23.4213-26.294ZM37.0203-47.865L13.9923-47.87L9.31929-29.276L25.2133-29.297C28.6423-35.006 33.2023-42.393 37.0203-47.865ZM59.9143-24.198C54.4813-20.598 47.1633-16.285 41.4413-13.004L41.4753 3.197C41.4753 3.197 59.8823-1.363 59.8823-1.363L59.9143-24.198ZM41.0583-48.362C34.9073-40.04 25.6073-24.147 23.2343-20.053C23.2343-20.053 31.9703-11.102 31.9703-11.102C36.6453-13.691 56.4503-24.764 63.2933-30.296C69.1473-35.029 73.4713-40.174 77.4853-47.751C79.2903-51.159 81.8233-59.647 82.1463-65.302C82.2093-66.418 82.1883-67.414 82.0373-68.219C81.9453-68.71 81.8603-69.119 81.6043-69.332C81.3543-69.542 80.9183-69.587 80.3883-69.637C79.5673-69.714 78.5673-69.677 77.4653-69.567C71.9903-69.021 64.1513-66.666 62.2213-65.771C55.5473-62.673 48.3883-57.196 43.2013-51.095C42.5983-50.385 41.9353-49.54 41.2283-48.591C41.1783-48.509 41.1213-48.432 41.0583-48.362ZM21.4822-9.22837C22.0829-8.66196 22.533-7.52675 22.6923-6.14968C22.9666-3.777 22.5847-0.619303 22.5847-0.619303C22.517-0.0679321 22.15 0.400868 21.631 0.599124L8.05145 5.78471C7.4937 5.99769 6.86268 5.8596 6.44485 5.43311C6.02702 5.00663 5.90192 4.3729 6.12626 3.81958L11.4039-9.19352C11.6073-9.6949 12.0649-10.048 12.6016-10.1174C12.6016-10.1174 15.863-10.5341 18.3231-10.3127C19.7271-10.1863 20.896-9.78104 21.4822-9.22837ZM19.4241-7.04561C19.3056-7.15729 19.0807-7.16866 18.8329-7.218C18.3302-7.31789 17.7349-7.36053 17.1252-7.37438C15.9167-7.40197 14.6552-7.31107 13.847-7.23499L10.2022 1.75208C10.2022 1.75208 19.6944-1.87268 19.6945-1.8729C19.7582-2.6446 19.8258-3.81108 19.7785-4.92811C19.7543-5.50091 19.7013-6.05996 19.591-6.53071C19.5407-6.74466 19.5312-6.94454 19.4241-7.04561ZM64.1736-59.8602C68.4391-59.8602 71.9022-56.3973 71.9022-52.132C71.9022-47.8668 68.4391-44.4038 64.1736-44.4038C59.9079-44.4038 56.4449-47.8668 56.4449-52.132C56.4449-56.3973 59.9079-59.8602 64.1736-59.8602ZM64.1736-56.8602C61.5637-56.8602 59.4449-54.7416 59.4449-52.132C59.4449-49.5224 61.5637-47.4039 64.1736-47.4039C66.7833-47.4039 68.9022-49.5224 68.9022-52.132C68.9022-54.7416 66.7833-56.8602 64.1736-56.8602Z"/>
  </g>
  <g id="Ultralight-S" transform="matrix(1 0 0 1 511.177 696)">
   <path d="M23.7999-33.97L6.89688-33.949C6.58888-33.948 6.29688-34.09 6.10688-34.333C5.91788-34.576 5.85088-34.893 5.92588-35.192L11.3519-56.789C11.4639-57.234 11.8639-57.545 12.3229-57.545L38.9369-57.54C39.6009-58.425 40.2259-59.217 40.7969-59.889C46.2149-66.262 53.6969-71.977 60.6689-75.213C62.7019-76.156 70.9519-78.654 76.7179-79.23C78.2719-79.385 79.6539-79.398 80.7079-79.226C81.5779-79.084 82.2559-78.803 82.7089-78.425C83.2179-77.999 83.6139-77.334 83.8579-76.452C84.1499-75.39 84.2349-73.968 84.1419-72.334C83.7999-66.347 81.1059-57.363 79.1939-53.756C75.0009-45.841 70.4799-40.47 64.3649-35.527C63.6719-34.966 62.8459-34.348 61.9169-33.688L61.8809-7.362C61.8799-6.902 61.5669-6.503 61.1209-6.392L39.7199-1.091C39.4219-1.017 39.1059-1.085 38.8639-1.274C38.6219-1.463 38.4799-1.753 38.4789-2.06L38.4439-19.327C34.4529-17.059 31.6759-15.535 31.6759-15.535C31.2819-15.319 30.7929-15.391 30.4789-15.713L20.1509-26.295C19.8389-26.615 19.7769-27.103 19.9999-27.491C19.9999-27.491 21.5199-30.137 23.7999-33.97ZM37.4819-55.54C31.3739-55.541 13.1019-55.545 13.1019-55.545C13.1019-55.545 8.17788-35.95 8.17788-35.95L24.9949-35.972C28.6009-41.984 33.5129-49.946 37.4819-55.54ZM59.9149-32.307C54.3569-28.565 46.4689-23.92 40.4409-20.467L40.4769-3.339L59.8819-8.146L59.9149-32.307ZM40.1759-55.859C33.8299-47.276 24.1339-30.645 22.1119-27.149C22.1119-27.149 31.3789-17.655 31.3789-17.655C35.3579-19.854 56.0709-31.392 63.1079-37.082C69.0139-41.857 73.3769-47.047 77.4269-54.692C79.2529-58.139 81.8189-66.727 82.1449-72.448C82.2109-73.61 82.1859-74.648 82.0289-75.486C81.9109-76.114 81.7519-76.617 81.4249-76.891C81.1939-77.084 80.8299-77.18 80.3859-77.252C79.4689-77.402 78.2669-77.374 76.9159-77.239C71.3829-76.687 63.4619-74.304 61.5109-73.399C54.7769-70.274 47.5539-64.749 42.3209-58.594C41.7059-57.87 41.0289-57.008 40.3079-56.037C40.2709-55.973 40.2259-55.914 40.1759-55.859ZM20.639-16.0391C21.1778-15.5312 21.5526-14.5018 21.6954-13.2668C21.9639-10.9449 21.5883-7.85483 21.5883-7.85483C21.5432-7.48732 21.2985-7.17479 20.9525-7.04265L7.373-1.85706C7.00116-1.71508 6.58041-1.80707 6.30185-2.09146C6.0233-2.37575 5.93997-2.79824 6.08953-3.16704L11.3672-16.1803C11.5027-16.5145 11.8079-16.7498 12.1655-16.7961C12.1655-16.7961 15.3649-17.2066 17.7782-16.9893C19.0453-16.8752 20.1099-16.538 20.639-16.0391ZM19.267-14.5839C19.1559-14.6888 18.9745-14.7443 18.7656-14.8034C18.4285-14.8988 18.0285-14.9587 17.5988-14.9973C15.9754-15.1435 13.9663-14.9782 12.9972-14.878L8.80678-4.54541C8.80678-4.54541 19.6656-8.692 19.6656-8.69244C19.7536-9.63318 19.8846-11.5157 19.7087-13.0371C19.662-13.4404 19.5945-13.8158 19.4915-14.1311C19.4299-14.3196 19.3721-14.4848 19.267-14.5839ZM63.6735-66.5348C67.6631-66.5348 70.9021-63.2959 70.9021-59.3066C70.9021-55.3173 67.6631-52.0785 63.6735-52.0785C59.6838-52.0785 56.4448-55.3173 56.4448-59.3066C56.4448-63.2959 59.6838-66.5348 63.6735-66.5348ZM63.6735-64.5347C60.7877-64.5347 58.4448-62.1922 58.4448-59.3066C58.4448-56.4211 60.7877-54.0785 63.6735-54.0785C66.5592-54.0785 68.9021-56.4211 68.9021-59.3066C68.9021-62.1922 66.5592-64.5347 63.6735-64.5347Z"/>
  </g>
 </g>
</svg>
