<?xml version="1.0" encoding="UTF-8"?>
<!--Generator: Apple Native CoreSVG 175.5-->
<!DOCTYPE svg
PUBLIC "-//W3C//DTD SVG 1.1//EN"
       "http://www.w3.org/Graphics/SVG/1.1/DTD/svg11.dtd">
<svg version="1.1" xmlns="http://www.w3.org/2000/svg" xmlns:xlink="http://www.w3.org/1999/xlink" width="3300" height="2200">
 <!--glyph: "", point size: 100.0, font version: "18.0d12e2", template writer version: "101"-->
 <style>.monochrome-0 {fill:#000000}

.SFSymbolsPreview000000 {fill:#000000;opacity:1.0}
</style>
 <g id="Notes">
  <rect height="2200" id="artboard" style="fill:white;opacity:1" width="3300" x="0" y="0"/>
  <line style="fill:none;stroke:black;opacity:1;stroke-width:0.5;" x1="263" x2="3036" y1="292" y2="292"/>
  <text style="stroke:none;fill:black;font-family:sans-serif;font-size:13;font-weight:bold;" transform="matrix(1 0 0 1 263 322)">Weight/Scale Variations</text>
  <text style="stroke:none;fill:black;font-family:sans-serif;font-size:13;text-anchor:middle;" transform="matrix(1 0 0 1 559.711 322)">Ultralight</text>
  <text style="stroke:none;fill:black;font-family:sans-serif;font-size:13;text-anchor:middle;" transform="matrix(1 0 0 1 856.422 322)">Thin</text>
  <text style="stroke:none;fill:black;font-family:sans-serif;font-size:13;text-anchor:middle;" transform="matrix(1 0 0 1 1153.13 322)">Light</text>
  <text style="stroke:none;fill:black;font-family:sans-serif;font-size:13;text-anchor:middle;" transform="matrix(1 0 0 1 1449.84 322)">Regular</text>
  <text style="stroke:none;fill:black;font-family:sans-serif;font-size:13;text-anchor:middle;" transform="matrix(1 0 0 1 1746.56 322)">Medium</text>
  <text style="stroke:none;fill:black;font-family:sans-serif;font-size:13;text-anchor:middle;" transform="matrix(1 0 0 1 2043.27 322)">Semibold</text>
  <text style="stroke:none;fill:black;font-family:sans-serif;font-size:13;text-anchor:middle;" transform="matrix(1 0 0 1 2339.98 322)">Bold</text>
  <text style="stroke:none;fill:black;font-family:sans-serif;font-size:13;text-anchor:middle;" transform="matrix(1 0 0 1 2636.69 322)">Heavy</text>
  <text style="stroke:none;fill:black;font-family:sans-serif;font-size:13;text-anchor:middle;" transform="matrix(1 0 0 1 2933.4 322)">Black</text>
  <line style="fill:none;stroke:black;opacity:1;stroke-width:0.5;" x1="263" x2="3036" y1="1903" y2="1903"/>
  <g transform="matrix(1 0 0 1 263 1933)">
   <path d="M9.24805 0.830078C13.5547 0.830078 17.1387-2.74414 17.1387-7.05078C17.1387-11.3574 13.5449-14.9316 9.23828-14.9316C4.94141-14.9316 1.36719-11.3574 1.36719-7.05078C1.36719-2.74414 4.95117 0.830078 9.24805 0.830078ZM9.24805-0.654297C5.70312-0.654297 2.87109-3.49609 2.87109-7.05078C2.87109-10.6055 5.69336-13.4473 9.23828-13.4473C12.793-13.4473 15.6445-10.6055 15.6445-7.05078C15.6445-3.49609 12.8027-0.654297 9.24805-0.654297ZM5.6543-7.05078C5.6543-6.62109 5.95703-6.32812 6.40625-6.32812L8.50586-6.32812L8.50586-4.20898C8.50586-3.76953 8.79883-3.4668 9.22852-3.4668C9.67773-3.4668 9.9707-3.76953 9.9707-4.20898L9.9707-6.32812L12.0898-6.32812C12.5293-6.32812 12.832-6.62109 12.832-7.05078C12.832-7.49023 12.5293-7.79297 12.0898-7.79297L9.9707-7.79297L9.9707-9.90234C9.9707-10.3516 9.67773-10.6543 9.22852-10.6543C8.79883-10.6543 8.50586-10.3516 8.50586-9.90234L8.50586-7.79297L6.40625-7.79297C5.95703-7.79297 5.6543-7.49023 5.6543-7.05078Z"/>
  </g>
  <g transform="matrix(1 0 0 1 281.867 1933)">
   <path d="M11.709 2.91016C17.1582 2.91016 21.6699-1.61133 21.6699-7.05078C21.6699-12.5 17.1484-17.0117 11.6992-17.0117C6.25977-17.0117 1.74805-12.5 1.74805-7.05078C1.74805-1.61133 6.26953 2.91016 11.709 2.91016ZM11.709 1.25C7.09961 1.25 3.41797-2.44141 3.41797-7.05078C3.41797-11.6602 7.08984-15.3516 11.6992-15.3516C16.3086-15.3516 20.0098-11.6602 20.0098-7.05078C20.0098-2.44141 16.3184 1.25 11.709 1.25ZM7.17773-7.05078C7.17773-6.57227 7.50977-6.25 8.00781-6.25L10.8789-6.25L10.8789-3.36914C10.8789-2.88086 11.2109-2.53906 11.6895-2.53906C12.1777-2.53906 12.5195-2.87109 12.5195-3.36914L12.5195-6.25L15.4004-6.25C15.8887-6.25 16.2305-6.57227 16.2305-7.05078C16.2305-7.53906 15.8887-7.88086 15.4004-7.88086L12.5195-7.88086L12.5195-10.752C12.5195-11.25 12.1777-11.5918 11.6895-11.5918C11.2109-11.5918 10.8789-11.25 10.8789-10.752L10.8789-7.88086L8.00781-7.88086C7.50977-7.88086 7.17773-7.53906 7.17773-7.05078Z"/>
  </g>
  <g transform="matrix(1 0 0 1 305.646 1933)">
   <path d="M14.9707 5.66406C21.9336 5.66406 27.6953-0.0976562 27.6953-7.05078C27.6953-14.0137 21.9238-19.7754 14.9609-19.7754C8.00781-19.7754 2.25586-14.0137 2.25586-7.05078C2.25586-0.0976562 8.01758 5.66406 14.9707 5.66406ZM14.9707 3.84766C8.93555 3.84766 4.08203-1.01562 4.08203-7.05078C4.08203-13.0957 8.92578-17.9492 14.9609-17.9492C21.0059-17.9492 25.8691-13.0957 25.8691-7.05078C25.8691-1.01562 21.0156 3.84766 14.9707 3.84766ZM9.19922-7.05078C9.19922-6.5332 9.57031-6.17188 10.1172-6.17188L14.0625-6.17188L14.0625-2.2168C14.0625-1.67969 14.4336-1.29883 14.9512-1.29883C15.4883-1.29883 15.8594-1.66992 15.8594-2.2168L15.8594-6.17188L19.8145-6.17188C20.3516-6.17188 20.7324-6.5332 20.7324-7.05078C20.7324-7.59766 20.3613-7.96875 19.8145-7.96875L15.8594-7.96875L15.8594-11.9141C15.8594-12.4609 15.4883-12.8418 14.9512-12.8418C14.4336-12.8418 14.0625-12.4609 14.0625-11.9141L14.0625-7.96875L10.1172-7.96875C9.57031-7.96875 9.19922-7.59766 9.19922-7.05078Z"/>
  </g>
  <text style="stroke:none;fill:black;font-family:sans-serif;font-size:13;font-weight:bold;" transform="matrix(1 0 0 1 263 1953)">Design Variations</text>
  <text style="stroke:none;fill:black;font-family:sans-serif;font-size:13;" transform="matrix(1 0 0 1 263 1971)">Symbols are supported in up to nine weights and three scales.</text>
  <text style="stroke:none;fill:black;font-family:sans-serif;font-size:13;" transform="matrix(1 0 0 1 263 1989)">For optimal layout with text and other symbols, vertically align</text>
  <text style="stroke:none;fill:black;font-family:sans-serif;font-size:13;" transform="matrix(1 0 0 1 263 2007)">symbols with the adjacent text.</text>
  <line style="fill:none;stroke:#00AEEF;stroke-width:0.5;opacity:1.0;" x1="776" x2="776" y1="1919" y2="1933"/>
  <g transform="matrix(1 0 0 1 776 1933)">
   <path d="M3.31055 0.15625C3.82812 0.15625 4.08203-0.0390625 4.26758-0.585938L5.52734-4.0332L11.2891-4.0332L12.5488-0.585938C12.7344-0.0390625 12.9883 0.15625 13.4961 0.15625C14.0137 0.15625 14.3457-0.15625 14.3457-0.644531C14.3457-0.810547 14.3164-0.966797 14.2383-1.17188L9.6582-13.3691C9.43359-13.9648 9.0332-14.2676 8.4082-14.2676C7.80273-14.2676 7.39258-13.9746 7.17773-13.3789L2.59766-1.16211C2.51953-0.957031 2.49023-0.800781 2.49023-0.634766C2.49023-0.146484 2.80273 0.15625 3.31055 0.15625ZM6.00586-5.51758L8.37891-12.0898L8.42773-12.0898L10.8008-5.51758Z"/>
  </g>
  <line style="fill:none;stroke:#00AEEF;stroke-width:0.5;opacity:1.0;" x1="793.197" x2="793.197" y1="1919" y2="1933"/>
  <text style="stroke:none;fill:black;font-family:sans-serif;font-size:13;font-weight:bold;" transform="matrix(1 0 0 1 776 1953)">Margins</text>
  <text style="stroke:none;fill:black;font-family:sans-serif;font-size:13;" transform="matrix(1 0 0 1 776 1971)">Leading and trailing margins on the left and right side of each symbol</text>
  <text style="stroke:none;fill:black;font-family:sans-serif;font-size:13;" transform="matrix(1 0 0 1 776 1989)">can be adjusted by modifying the x-location of the margin guidelines.</text>
  <text style="stroke:none;fill:black;font-family:sans-serif;font-size:13;" transform="matrix(1 0 0 1 776 2007)">Modifications are automatically applied proportionally to all</text>
  <text style="stroke:none;fill:black;font-family:sans-serif;font-size:13;" transform="matrix(1 0 0 1 776 2025)">scales and weights.</text>
  <g transform="matrix(1 0 0 1 1289 1933)">
   <path d="M2.8418 1.86523L4.54102 3.57422C5.40039 4.44336 6.38672 4.38477 7.31445 3.35938L18.0078-8.42773L17.041-9.4043L6.42578 2.27539C6.07422 2.67578 5.74219 2.77344 5.27344 2.30469L4.10156 1.14258C3.63281 0.683594 3.74023 0.341797 4.14062-0.0195312L15.6152-10.8203L14.6387-11.7871L3.04688-0.898438C2.06055 0.0195312 1.98242 0.996094 2.8418 1.86523ZM9.25781-16.3281C8.83789-15.918 8.80859-15.3418 9.04297-14.9512C9.27734-14.5898 9.73633-14.3555 10.3809-14.5215C11.8457-14.8633 13.3691-14.9219 14.7949-13.9844L14.209-12.5293C13.8672-11.6992 14.043-11.1133 14.5801-10.5664L16.875-8.25195C17.3633-7.76367 17.7734-7.74414 18.3398-7.8418L19.4043-8.03711L20.0684-7.36328L20.0293-6.80664C19.9902-6.30859 20.1172-5.92773 20.6055-5.44922L21.3672-4.70703C21.8457-4.22852 22.4609-4.19922 22.9297-4.66797L25.8398-7.58789C26.3086-8.05664 26.2891-8.65234 25.8105-9.13086L25.0391-9.89258C24.5605-10.3711 24.1895-10.5273 23.7109-10.4883L23.1348-10.4395L22.4902-11.0742L22.7344-12.1973C22.8613-12.7637 22.7051-13.2031 22.1191-13.7891L19.9219-15.9766C16.582-19.2969 12.1484-19.2188 9.25781-16.3281ZM10.752-15.957C13.1836-17.7344 16.4746-17.4316 18.7012-15.2051L21.1328-12.793C21.3672-12.5586 21.4062-12.373 21.3379-12.0312L21.0156-10.5469L22.5195-9.0625L23.5059-9.12109C23.7598-9.13086 23.8379-9.11133 24.0332-8.91602L24.6094-8.33984L22.168-5.89844L21.5918-6.47461C21.3965-6.66992 21.3672-6.74805 21.377-7.01172L21.4453-7.98828L19.9512-9.47266L18.4277-9.21875C18.1055-9.15039 17.959-9.17969 17.7148-9.41406L15.7129-11.416C15.459-11.6504 15.4297-11.8164 15.5859-12.1875L16.4648-14.2773C14.9023-15.7324 12.8711-16.3574 10.8398-15.7617C10.6836-15.7227 10.625-15.8496 10.752-15.957Z"/>
  </g>
  <text style="stroke:none;fill:black;font-family:sans-serif;font-size:13;font-weight:bold;" transform="matrix(1 0 0 1 1289 1953)">Exporting</text>
  <text style="stroke:none;fill:black;font-family:sans-serif;font-size:13;" transform="matrix(1 0 0 1 1289 1971)">Symbols should be outlined when exporting to ensure the</text>
  <text style="stroke:none;fill:black;font-family:sans-serif;font-size:13;" transform="matrix(1 0 0 1 1289 1989)">design is preserved when submitting to Xcode.</text>
  <text id="template-version" style="stroke:none;fill:black;font-family:sans-serif;font-size:13;text-anchor:end;" transform="matrix(1 0 0 1 3036 1933)">Template v.4.0</text>
  <text style="stroke:none;fill:black;font-family:sans-serif;font-size:13;text-anchor:end;" transform="matrix(1 0 0 1 3036 1951)">Requires Xcode 14 or greater</text>
  <text id="descriptive-name" style="stroke:none;fill:black;font-family:sans-serif;font-size:13;text-anchor:end;" transform="matrix(1 0 0 1 3036 1969)">Generated from custom.rocket.fill.stroked</text>
  <text style="stroke:none;fill:black;font-family:sans-serif;font-size:13;text-anchor:end;" transform="matrix(1 0 0 1 3036 1987)">Typeset at 100 points</text>
  <text style="stroke:none;fill:black;font-family:sans-serif;font-size:13;" transform="matrix(1 0 0 1 263 726)">Small</text>
  <text style="stroke:none;fill:black;font-family:sans-serif;font-size:13;" transform="matrix(1 0 0 1 263 1156)">Medium</text>
  <text style="stroke:none;fill:black;font-family:sans-serif;font-size:13;" transform="matrix(1 0 0 1 263 1586)">Large</text>
 </g>
 <g id="Guides">
  <g id="H-reference" style="fill:#27AAE1;stroke:none;" transform="matrix(1 0 0 1 339 696)">
   <path d="M0.993654 0L3.63775 0L29.3281-67.1323L30.0303-67.1323L30.0303-70.459L28.1226-70.459ZM11.6885-24.4799L46.9815-24.4799L46.2315-26.7285L12.4385-26.7285ZM55.1196 0L57.7637 0L30.6382-70.459L29.4326-70.459L29.4326-67.1323Z"/>
  </g>
  <line id="Baseline-S" style="fill:none;stroke:#27AAE1;opacity:1;stroke-width:0.5;" x1="263" x2="3036" y1="696" y2="696"/>
  <line id="Capline-S" style="fill:none;stroke:#27AAE1;opacity:1;stroke-width:0.5;" x1="263" x2="3036" y1="625.541" y2="625.541"/>
  <g id="H-reference" style="fill:#27AAE1;stroke:none;" transform="matrix(1 0 0 1 339 1126)">
   <path d="M0.993654 0L3.63775 0L29.3281-67.1323L30.0303-67.1323L30.0303-70.459L28.1226-70.459ZM11.6885-24.4799L46.9815-24.4799L46.2315-26.7285L12.4385-26.7285ZM55.1196 0L57.7637 0L30.6382-70.459L29.4326-70.459L29.4326-67.1323Z"/>
  </g>
  <line id="Baseline-M" style="fill:none;stroke:#27AAE1;opacity:1;stroke-width:0.5;" x1="263" x2="3036" y1="1126" y2="1126"/>
  <line id="Capline-M" style="fill:none;stroke:#27AAE1;opacity:1;stroke-width:0.5;" x1="263" x2="3036" y1="1055.54" y2="1055.54"/>
  <g id="H-reference" style="fill:#27AAE1;stroke:none;" transform="matrix(1 0 0 1 339 1556)">
   <path d="M0.993654 0L3.63775 0L29.3281-67.1323L30.0303-67.1323L30.0303-70.459L28.1226-70.459ZM11.6885-24.4799L46.9815-24.4799L46.2315-26.7285L12.4385-26.7285ZM55.1196 0L57.7637 0L30.6382-70.459L29.4326-70.459L29.4326-67.1323Z"/>
  </g>
  <line id="Baseline-L" style="fill:none;stroke:#27AAE1;opacity:1;stroke-width:0.5;" x1="263" x2="3036" y1="1556" y2="1556"/>
  <line id="Capline-L" style="fill:none;stroke:#27AAE1;opacity:1;stroke-width:0.5;" x1="263" x2="3036" y1="1485.54" y2="1485.54"/>
  <line id="left-margin-Regular-M" style="fill:none;stroke:#00AEEF;stroke-width:0.5;opacity:1.0;" x1="1388.74" x2="1388.74" y1="1030.79" y2="1150.12"/>
  <line id="right-margin-Regular-M" style="fill:none;stroke:#00AEEF;stroke-width:0.5;opacity:1.0;" x1="1510.95" x2="1510.95" y1="1030.79" y2="1150.12"/>
 </g>
 <g id="Symbols">
  <g id="Black-L" transform="matrix(1 0 0 1 2854.97 1556)">
   <path class="monochrome-0 SFSymbolsPreview000000" d="M107.626-18.341L107.566 22.049C107.556 25.149 105.446 27.849 102.436 28.589L67.4855 37.249C65.4755 37.749 63.3455 37.299 61.7055 36.019C60.0755 34.739 59.1155 32.789 59.1155 30.709L59.0755 11.249C56.8755 12.469 55.5755 13.179 55.5755 13.179C52.9155 14.639 49.6155 14.149 47.4955 11.979L30.6354-5.30096C28.5254-7.46096 28.1054-10.761 29.6154-13.381C29.6154-13.381 30.2254-14.441 31.2954-16.281L12.6554-16.261C10.5754-16.261 8.60541-17.211 7.3254-18.861C6.0454-20.501 5.5954-22.641 6.0954-24.651L14.9654-59.9209C15.7154-62.9309 18.4154-65.0309 21.5154-65.0309C21.5154-65.0309 62.4555-65.0209 62.4555-65.0209C63.0355-65.7509 63.5855-66.4309 64.1155-67.0609C73.4355-78.0209 86.3155-87.8409 98.3156-93.4109C101.846-95.0509 116.156-99.4209 126.176-100.421C132.496-101.051 137.516-99.8109 139.746-97.9409C141.256-96.6709 142.556-94.7709 143.276-92.1509C143.866-89.9909 144.106-87.1009 143.916-83.7709C143.316-73.3209 138.586-57.6309 135.246-51.331C128.036-37.711 120.246-28.481 109.726-19.971C109.086-19.461 108.376-18.911 107.626-18.341ZM33.967 9.0597C31.7072 6.92917 21.4581 8.25485 21.4581 8.25485L12.8386 29.5071L35.0167 21.0384C35.0167 21.0384 36.2269 11.1902 33.967 9.0597ZM105.376-66.2109C103.486-66.2109 101.956-64.6809 101.956-62.7909C101.956-60.9009 103.486-59.3709 105.376-59.3709C107.266-59.3709 108.796-60.9009 108.796-62.7909C108.796-64.6809 107.266-66.2109 105.376-66.2109Z"/>
  </g>
  <g id="Heavy-L" transform="matrix(1 0 0 1 2559.01 1556)">
   <path class="monochrome-0 SFSymbolsPreview000000" d="M106.117-18.721L106.067 22.049C106.057 24.799 104.177 27.199 101.507 27.869L66.5467 36.519C64.7667 36.969 62.8667 36.559 61.4167 35.429C59.9667 34.289 59.1167 32.549 59.1067 30.709L59.0667 9.96904C56.1967 11.569 54.4666 12.519 54.4666 12.519C52.1066 13.819 49.1666 13.379 47.2866 11.449L30.4166-5.83096C28.5466-7.75096 28.1766-10.681 29.5066-13.001C29.5066-13.001 30.3766-14.511 31.8466-17.031L11.9066-17.011C10.0466-17.011 8.30656-17.861 7.16656-19.321C6.02656-20.781 5.62656-22.681 6.07656-24.471L14.9366-59.7409C15.6066-62.4109 18.0066-64.2809 20.7566-64.2809C20.7566-64.2809 62.0667-64.2709 62.0667-64.2709C62.7167-65.1009 63.3467-65.8709 63.9367-66.5709C73.1867-77.4509 85.9667-87.2009 97.8767-92.7309C101.377-94.3509 115.567-98.6809 125.497-99.6709C129.097-100.031 132.237-99.9209 134.417-99.3709C136.147-98.9309 137.507-98.2009 138.517-97.3609C139.927-96.1809 141.127-94.4009 141.797-91.9509C142.377-89.8509 142.597-87.0509 142.407-83.8209C141.817-73.4609 137.137-57.9209 133.827-51.681C126.667-38.161 118.937-29.001 108.497-20.561C107.787-19.981 106.987-19.371 106.117-18.721ZM33.2169 9.0597C30.957 6.92917 20.708 8.25485 20.708 8.25485L12.0885 29.5071L34.2665 21.0384C34.2665 21.0384 35.4767 11.1902 33.2169 9.0597ZM104.627-66.9609C102.317-66.9609 100.447-65.0909 100.447-62.7909C100.447-60.4909 102.317-58.6209 104.627-58.6209C106.927-58.6209 108.797-60.4909 108.797-62.7909C108.797-65.0909 106.927-66.9609 104.627-66.9609Z"/>
  </g>
  <g id="Bold-L" transform="matrix(1 0 0 1 2262.79 1556)">
   <path class="monochrome-0 SFSymbolsPreview000000" d="M105.126-23.2004L105.066 17.8196C105.066 20.3496 103.336 22.5496 100.886 23.1496L65.9355 31.8096C64.2955 32.2196 62.5555 31.8496 61.2255 30.8096C59.8955 29.7696 59.1155 28.1696 59.1055 26.4796L59.0655 4.88958C55.7655 6.73958 53.7255 7.85958 53.7255 7.85958C51.5655 9.04958 48.8655 8.64958 47.1455 6.87958L30.2754-10.4004C28.5554-12.1604 28.2154-14.8504 29.4454-16.9804C29.4454-16.9804 30.4854-18.7904 32.2254-21.7604L11.4054-21.7404C9.70539-21.7304 8.10539-22.5104 7.06539-23.8504C6.01538-25.1904 5.64538-26.9304 6.06538-28.5804L14.9254-63.8504C15.5354-66.2904 17.7354-68.0104 20.2554-68.0104C20.2554-68.0104 61.8155-68.0004 61.8155-68.0004C62.5155-68.9004 63.1855-69.7304 63.8155-70.4704C73.0255-81.3004 85.7455-91.0004 97.5956-96.5004C101.066-98.1204 115.176-102.42 125.046-103.4C128.586-103.75 131.656-103.65 133.796-103.11C135.446-102.69 136.736-102.01 137.696-101.2C139.036-100.08 140.176-98.3804 140.816-96.0504C141.386-93.9904 141.596-91.2404 141.416-88.0704C140.826-77.7804 136.176-62.3404 132.896-56.1404C125.766-42.6904 118.076-33.5704 107.686-25.1704C106.916-24.5504 106.056-23.8904 105.126-23.2004ZM32.7192 4.8337C30.4593 2.70317 20.2103 4.02885 20.2103 4.02885L11.5908 25.2811L33.7688 16.8124C33.7688 16.8124 34.979 6.96423 32.7192 4.8337ZM104.126-71.6904C101.546-71.6904 99.4556-69.5904 99.4556-67.0104C99.4556-64.4404 101.546-62.3404 104.126-62.3404C106.706-62.3404 108.796-64.4404 108.796-67.0104C108.796-69.5904 106.706-71.6904 104.126-71.6904Z"/>
  </g>
  <g id="Semibold-L" transform="matrix(1 0 0 1 1966.83 1556)">
   <path class="monochrome-0 SFSymbolsPreview000000" d="M103.621-23.0301L103.571 18.3698C103.561 20.5498 102.071 22.4498 99.9608 22.9798L65.0107 31.6298C63.5907 31.9798 62.0907 31.6598 60.9407 30.7698C59.7907 29.8698 59.1207 28.4898 59.1107 27.0298L59.0707 4.15985C55.1107 6.37985 52.6207 7.74985 52.6207 7.74985C50.7507 8.77985 48.4207 8.42985 46.9307 6.89985L30.0707-10.3802C28.5807-11.9002 28.2907-14.2201 29.3507-16.0601C29.3507-16.0601 30.6507-18.3301 32.7907-21.9601L10.6507-21.9401C9.19065-21.9301 7.80064-22.6101 6.90064-23.7601C6.00064-24.9201 5.68064-26.4201 6.04064-27.8501L14.9007-63.1101C15.4307-65.2301 17.3307-66.7101 19.5107-66.7101C19.5107-66.7101 61.4307-66.7001 61.4307-66.7001C62.2107-67.7001 62.9507-68.6201 63.6407-69.4401C72.7808-80.1801 85.4008-89.8201 97.1608-95.2701C100.611-96.8701 114.591-101.13 124.371-102.11C127.231-102.39 129.761-102.39 131.701-102.07C133.791-101.73 135.381-100.99 136.461-100.08C137.711-99.0401 138.751-97.4501 139.351-95.3001C139.901-93.3001 140.091-90.6301 139.921-87.5701C139.341-77.3701 134.731-62.0801 131.481-55.9401C124.411-42.6001 116.781-33.5401 106.471-25.2101C105.631-24.5301 104.671-23.8001 103.621-23.0301ZM31.9723 5.3827C29.7125 3.25217 19.4634 4.57785 19.4634 4.57785L10.8439 25.8301L33.022 17.3614C33.022 17.3614 34.2321 7.51323 31.9723 5.3827ZM103.381-71.8901C100.381-71.8901 97.9508-69.4601 97.9508-66.4701C97.9508-63.4701 100.381-61.0401 103.381-61.0401C106.371-61.0401 108.801-63.4701 108.801-66.4701C108.801-69.4601 106.371-71.8901 103.381-71.8901Z"/>
  </g>
  <g id="Medium-L" transform="matrix(1 0 0 1 1670.62 1556)">
   <path class="monochrome-0 SFSymbolsPreview000000" d="M102.625-22.5701L102.565 19.0899C102.555 21.0399 101.225 22.7399 99.3353 23.2099L64.3853 31.8599C63.1153 32.1799 61.7753 31.8899 60.7452 31.0899C59.7152 30.2799 59.1152 29.0499 59.1052 27.7499L59.0552 4.0299C54.6852 6.4899 51.8752 8.0299 51.8752 8.0299C50.2052 8.9499 48.1252 8.6399 46.7852 7.2699L29.9252-10.0101C28.5952-11.3701 28.3252-13.4401 29.2752-15.0901C29.2752-15.0901 30.7552-17.6801 33.1552-21.7501L10.1452-21.7201C8.83515-21.7201 7.60515-22.3201 6.79515-23.3601C5.98515-24.3901 5.70515-25.7301 6.02515-27.0101L14.8852-62.2801C15.3552-64.1701 17.0552-65.4901 19.0052-65.4901C19.0052-65.4901 61.1752-65.4801 61.1752-65.4801C61.9953-66.5601 62.7853-67.5301 63.5153-68.4001C72.6053-79.0901 85.1653-88.6701 96.8653-94.1001C100.295-95.6901 114.195-99.9201 123.915-100.89C126.725-101.17 129.215-101.17 131.115-100.86C133.095-100.54 134.615-99.8401 135.645-98.9801C136.815-97.9901 137.795-96.4901 138.365-94.4501C138.895-92.4901 139.085-89.8801 138.915-86.8801C138.335-76.7501 133.765-61.5601 130.535-55.4601C123.495-42.1801 115.905-33.1701 105.645-24.8801C104.755-24.1601 103.745-23.3801 102.625-22.5701ZM31.4681 6.0997C29.2083 3.96917 18.9592 5.29485 18.9592 5.29485L10.3397 26.5471L32.5178 18.0784C32.5178 18.0784 33.7279 8.23023 31.4681 6.0997ZM102.875-71.6701C99.6053-71.6701 96.9553-69.0201 96.9553-65.7501C96.9553-62.4801 99.6053-59.8301 102.875-59.8301C106.145-59.8301 108.795-62.4801 108.795-65.7501C108.795-69.0201 106.145-71.6701 102.875-71.6701Z"/>
  </g>
  <g id="Regular-L" transform="matrix(1 0 0 1 1374.66 1556)">
   <path class="monochrome-0 SFSymbolsPreview000000" d="M101.12-23.6701L101.06 18.3698C101.06 19.9798 99.9704 21.3798 98.4104 21.7598L63.4503 30.4198C62.4103 30.6798 61.3003 30.4398 60.4603 29.7798C59.6103 29.1198 59.1103 28.0998 59.1103 27.0298L59.0603 2.02985C54.0503 4.84985 50.7603 6.64985 50.7603 6.64985C49.3903 7.40985 47.6703 7.15985 46.5703 6.02985L29.7103-11.2502C28.6203-12.3702 28.4003-14.0801 29.1803-15.4401C29.1803-15.4401 30.9403-18.5101 33.7203-23.2201L9.40022-23.1901C8.32022-23.1901 7.30021-23.6801 6.64021-24.5301C5.97021-25.3801 5.74021-26.4901 6.00021-27.5401L14.8602-62.8101C15.2502-64.3701 16.6502-65.4601 18.2602-65.4601C18.2602-65.4601 60.7903-65.4501 60.7903-65.4501C61.7003-66.6301 62.5503-67.6901 63.3403-68.6301C72.3603-79.2401 84.8204-88.7501 96.4304-94.1401C99.8304-95.7101 113.61-99.9001 123.24-100.86C125.97-101.13 128.4-101.14 130.25-100.84C132.06-100.54 133.46-99.9101 134.41-99.1201C135.49-98.2201 136.37-96.8301 136.89-94.9601C137.41-93.0701 137.58-90.5401 137.42-87.6401C136.85-77.6101 132.32-62.5701 129.12-56.5301C122.14-43.3501 114.61-34.4101 104.43-26.1801C103.47-25.4001 102.36-24.5601 101.12-23.6701ZM30.7205 5.3827C28.4607 3.25217 18.2116 4.57785 18.2116 4.57785L9.59208 25.8301L31.7701 17.3614C31.7701 17.3614 32.9803 7.51323 30.7205 5.3827ZM102.13-73.1401C98.4404-73.1401 95.4504-70.1501 95.4504-66.4701C95.4504-62.7801 98.4404-59.7901 102.13-59.7901C105.81-59.7901 108.8-62.7801 108.8-66.4701C108.8-70.1501 105.81-73.1401 102.13-73.1401Z"/>
  </g>
  <g id="Light-L" transform="matrix(1 0 0 1 1078.95 1556)">
   <path class="monochrome-0 SFSymbolsPreview000000" d="M99.1223-24.1801L99.0623 18.3698C99.0623 19.5198 98.2823 20.5198 97.1623 20.7898L62.2122 29.4498C61.4622 29.6298 60.6822 29.4598 60.0722 28.9898C59.4722 28.5198 59.1122 27.7898 59.1122 27.0298L59.0522 0.319847C53.2322 3.60985 49.2822 5.77985 49.2822 5.77985C48.3022 6.31985 47.0722 6.13985 46.2922 5.32985L29.4222-11.9502C28.6422-12.7502 28.4922-13.9701 29.0422-14.9401C29.0422-14.9401 31.1922-18.6701 34.4722-24.2201L8.40214-24.1901C7.62214-24.1901 6.90214-24.5401 6.42214-25.1501C5.95214-25.7601 5.78214-26.5501 5.97214-27.3001L14.8322-62.5701C15.1122-63.6801 16.1122-64.4601 17.2622-64.4601C17.2622-64.4601 60.2922-64.4501 60.2922-64.4501C61.2922-65.7701 62.2322-66.9601 63.1022-67.9801C72.0323-78.4801 84.3623-87.9001 95.8523-93.2301C99.2123-94.7901 112.822-98.9201 122.342-99.8701C124.972-100.13 127.302-100.14 129.082-99.8501C130.692-99.5901 131.932-99.0501 132.772-98.3501C133.712-97.5601 134.472-96.3401 134.922-94.7001C135.422-92.8901 135.572-90.4701 135.422-87.6901C134.852-77.8001 130.402-62.9601 127.242-56.9901C120.332-43.9501 112.872-35.1001 102.802-26.9601C101.742-26.1001 100.502-25.1701 99.1223-24.1801ZM29.7198 5.3827C27.46 3.25217 17.2109 4.57785 17.2109 4.57785L8.59138 25.8301L30.7695 17.3614C30.7695 17.3614 31.9796 7.51323 29.7198 5.3827ZM101.122-74.1401C96.8923-74.1401 93.4523-70.7001 93.4523-66.4701C93.4523-62.2301 96.8923-58.7901 101.122-58.7901C105.362-58.7901 108.792-62.2301 108.792-66.4701C108.792-70.7001 105.362-74.1401 101.122-74.1401Z"/>
  </g>
  <g id="Thin-L" transform="matrix(1 0 0 1 782.987 1556)">
   <path class="monochrome-0 SFSymbolsPreview000000" d="M97.6239-20.8094L97.5649 22.1205C97.5639 22.9205 97.0159 23.6205 96.2359 23.8105L61.2828 32.4705C60.7608 32.6005 60.2088 32.4805 59.7848 32.1505C59.3608 31.8205 59.1128 31.3105 59.1118 30.7805L59.0538 2.78055C52.6298 6.43055 48.1728 8.87055 48.1728 8.87055C47.4838 9.25055 46.6278 9.12055 46.0788 8.56055L29.2118-8.71945C28.6648-9.27945 28.5568-10.1395 28.9458-10.8095C28.9458-10.8095 31.3818-15.0594 35.0438-21.2194L7.64775-21.1894C7.10875-21.1794 6.59874-21.4294 6.26674-21.8594C5.93474-22.2794 5.81674-22.8394 5.94874-23.3594L14.8118-58.6294C15.0068-59.4094 15.7068-59.9594 16.5088-59.9494C16.5088-59.9494 59.9158-59.9494 59.9148-59.9494C60.9888-61.3694 61.9988-62.6494 62.9248-63.7394C71.7849-74.1594 84.0189-83.5094 95.4199-88.7994C98.7439-90.3394 112.238-94.4294 121.668-95.3694C124.218-95.6194 126.485-95.6394 128.215-95.3594C129.661-95.1294 130.786-94.6594 131.539-94.0294C132.386-93.3194 133.048-92.2094 133.453-90.7494C133.934-88.9994 134.074-86.6694 133.921-83.9794C133.363-74.1894 128.954-59.4994 125.828-53.5994C118.971-40.6494 111.578-31.8694 101.579-23.7894C100.455-22.8794 99.1219-21.8794 97.6239-20.8094ZM28.971 9.1347C26.7112 7.00417 16.4621 8.32985 16.4621 8.32985L7.84262 29.5821L30.0207 21.1134C30.0207 21.1134 31.2308 11.2652 28.971 9.1347ZM100.376-71.1394C95.7269-71.1394 91.9529-67.3594 91.9529-62.7094C91.9529-58.0694 95.7269-54.2894 100.376-54.2894C105.024-54.2894 108.798-58.0694 108.798-62.7094C108.798-67.3594 105.024-71.1394 100.376-71.1394Z"/>
  </g>
  <g id="Ultralight-L" transform="matrix(1 0 0 1 487.026 1556)">
   <path class="monochrome-0 SFSymbolsPreview000000" d="M96.124-24.9501L96.064 18.3698C96.064 18.8298 95.75 19.2198 95.305 19.3398L60.352 27.9898C60.054 28.0698 59.738 27.9998 59.496 27.8098C59.254 27.6198 59.112 27.3298 59.111 27.0198L59.05-2.26015C52.038 1.72985 47.062 4.45985 47.062 4.45985C46.668 4.67985 46.179 4.60985 45.865 4.28985L28.9979-13.0002C28.6849-13.3201 28.6229-13.8001 28.8459-14.1901C28.8459-14.1901 31.5819-18.9601 35.6139-25.7201L6.89688-25.6901C6.58788-25.6901 6.29688-25.8301 6.10688-26.0701C5.91788-26.3201 5.85088-26.6301 5.92588-26.9301L14.7879-62.2001C14.8999-62.6401 15.2999-62.9601 15.7589-62.9601C15.7589-62.9601 59.54-62.9501 59.54-62.9501C60.687-64.4801 61.764-65.8501 62.746-67.0101C71.536-77.3501 83.673-86.6201 94.985-91.8701C98.279-93.4001 111.648-97.4401 120.992-98.3701C123.466-98.6201 125.665-98.6501 127.344-98.3701C128.63-98.1601 129.637-97.7601 130.307-97.2001C131.054-96.5801 131.622-95.5901 131.979-94.3001C132.443-92.6201 132.569-90.3701 132.422-87.7801C131.869-78.0901 127.509-63.5401 124.414-57.7001C117.612-44.8601 110.277-36.1401 100.357-28.1201C99.165-27.1601 97.736-26.0901 96.124-24.9501ZM28.2212 5.3827C25.9614 3.25217 15.7123 4.57785 15.7123 4.57785L7.09277 25.8301L29.2708 17.3614C29.2708 17.3614 30.481 7.51323 28.2212 5.3827ZM99.625-75.6401C94.563-75.6401 90.453-71.5301 90.453-66.4701C90.453-61.4001 94.563-57.2901 99.625-57.2901C104.688-57.2901 108.798-61.4001 108.798-66.4701C108.798-71.5301 104.688-75.6401 99.625-75.6401Z"/>
  </g>
  <g id="Black-M" transform="matrix(1 0 0 1 2869.55 1126)">
   <path class="monochrome-0 SFSymbolsPreview000000" d="M86.5369-21.7414L86.4969 9.27855C86.4869 12.0385 84.6068 14.4385 81.9368 15.0985L54.7367 21.8285C52.9467 22.2685 51.0567 21.8685 49.6067 20.7285C48.1567 19.5985 47.3067 17.8585 47.2967 16.0185L47.2667 2.15857C46.2367 2.72857 45.6567 3.04857 45.6567 3.04857C43.2967 4.33857 40.3567 3.90857 38.4767 1.97857L25.3566-11.4514C23.4766-13.3814 23.1066-16.3114 24.4466-18.6414C24.4466-18.6414 24.6766-19.0414 25.0966-19.7614L11.9066-19.7514C10.0566-19.7414 8.30657-20.6014 7.16656-22.0614C6.02656-23.5114 5.62656-25.4214 6.07656-27.2114L12.9766-54.6313C13.6466-57.3013 16.0466-59.1713 18.7966-59.1713C18.7966-59.1713 50.2867-59.1613 50.2867-59.1613C50.6567-59.6313 51.0267-60.0713 51.3667-60.4813C58.6968-69.0813 68.8068-76.7912 78.2368-81.1612C81.0068-82.4512 92.2669-85.8912 100.147-86.6712C105.327-87.1912 109.427-86.1112 111.257-84.5712C113.387-82.8012 115.097-78.6112 114.767-72.9413C114.297-64.7113 110.567-52.3713 107.937-47.4113C102.277-36.7213 96.1569-29.4814 87.8869-22.8014C87.4769-22.4614 87.0169-22.1114 86.5369-21.7414ZM28.4831-0.817637C26.725-2.4739 18.7512-1.44332 18.7512-1.44332L12.0452 15.0781L29.2998 8.49455C29.2998 8.49455 30.2413 0.83863 28.4831-0.817637ZM83.5768-61.2813C80.9468-61.2813 78.8068-59.1513 78.8068-56.5213C78.8068-53.8913 80.9468-51.7513 83.5768-51.7513C86.2068-51.7513 88.3369-53.8913 88.3369-56.5213C88.3369-59.1513 86.2068-61.2813 83.5768-61.2813Z"/>
  </g>
  <g id="Heavy-M" transform="matrix(1 0 0 1 2573.34 1126)">
   <path class="monochrome-0 SFSymbolsPreview000000" d="M85.5359-21.9914L85.4859 9.27855C85.4859 11.8085 83.7659 14.0085 81.3159 14.6085L54.1158 21.3385C52.4758 21.7485 50.7457 21.3785 49.4157 20.3385C48.0757 19.2985 47.2957 17.7085 47.2957 16.0185L47.2657 1.30857C45.7757 2.13857 44.9157 2.60857 44.9157 2.60857C42.7457 3.79857 40.0557 3.39857 38.3357 1.62857L25.2157-11.8014C23.4956-13.5714 23.1556-16.2514 24.3756-18.3914C24.3756-18.3914 24.7757-19.0714 25.4657-20.2714L11.4056-20.2514C9.7056-20.2514 8.10559-21.0314 7.05559-22.3614C6.01558-23.7014 5.64558-25.4414 6.06558-27.0914L12.9556-54.5113C13.5656-56.9513 15.7656-58.6713 18.2956-58.6713C18.2956-58.6713 50.0257-58.6613 50.0257-58.6613C50.4557-59.1913 50.8557-59.6913 51.2457-60.1513C58.5258-68.7013 68.5758-76.3612 77.9458-80.7012C80.6959-81.9812 91.8759-85.4012 99.6959-86.1812C104.706-86.6712 108.666-85.6712 110.436-84.1912C111.426-83.3612 112.286-82.2112 112.886-80.7012C113.606-78.8712 113.956-76.1712 113.766-72.9713C113.306-64.8113 109.606-52.5613 106.996-47.6413C101.366-37.0213 95.2859-29.8214 87.0759-23.1914C86.6059-22.8114 86.0859-22.4114 85.5359-21.9914ZM27.9893-0.817637C26.2312-2.4739 18.2574-1.44332 18.2574-1.44332L11.5514 15.0781L28.806 8.49455C28.806 8.49455 29.7475 0.83863 27.9893-0.817637ZM83.6459-61.2613C81.0159-61.2613 78.8758-59.1313 78.8758-56.5013C78.8758-53.8713 81.0159-51.7313 83.6459-51.7313C86.2759-51.7313 88.4059-53.8713 88.4059-56.5013C88.4059-59.1313 86.2759-61.2613 83.6459-61.2613Z"/>
  </g>
  <g id="Bold-M" transform="matrix(1 0 0 1 2277.12 1126)">
   <path class="monochrome-0 SFSymbolsPreview000000" d="M84.5288-22.2414L84.4888 9.27855C84.4888 11.5785 82.9188 13.5785 80.6888 14.1285L53.4987 20.8585C52.0087 21.2285 50.4286 20.8885 49.2186 19.9485C48.0086 18.9985 47.2986 17.5485 47.2986 16.0185L47.2686 0.458575C45.3286 1.53857 44.1786 2.16857 44.1786 2.16857C42.2086 3.24857 39.7586 2.88857 38.1986 1.27857L25.0686-12.1514C23.5086-13.7514 23.1985-16.2014 24.3086-18.1414C24.3086-18.1414 24.8686-19.1114 25.8386-20.7714L10.8985-20.7514C9.3585-20.7514 7.89849-21.4614 6.94849-22.6714C6.00849-23.8914 5.66849-25.4714 6.04849-26.9714L12.9385-54.3913C13.4985-56.6113 15.4985-58.1713 17.7885-58.1713C17.7885-58.1713 49.7686-58.1613 49.7686-58.1613C50.2386-58.7613 50.6986-59.3213 51.1286-59.8313C58.3587-68.3313 68.3487-75.9412 77.6487-80.2512C80.3888-81.5212 91.4888-84.9012 99.2388-85.6812C102.099-85.9612 104.579-85.8712 106.299-85.4312C107.699-85.0812 108.799-84.4912 109.619-83.8112C110.759-82.8512 111.739-81.4112 112.279-79.4312C112.739-77.7712 112.919-75.5512 112.769-73.0013C112.309-64.9013 108.639-52.7613 106.059-47.8813C100.459-37.3313 94.4188-30.1714 86.2588-23.5814C85.7388-23.1614 85.1588-22.7114 84.5288-22.2414ZM27.4823-0.817637C25.7242-2.4739 17.7504-1.44332 17.7504-1.44332L11.0444 15.0781L28.299 8.49455C28.299 8.49455 29.2405 0.83863 27.4823-0.817637ZM82.8988-61.2113C80.2688-61.2113 78.1287-59.0713 78.1287-56.4413C78.1287-53.8113 80.2688-51.6813 82.8988-51.6813C85.5288-51.6813 87.6588-53.8113 87.6588-56.4413C87.6588-59.0713 85.5288-61.2113 82.8988-61.2113Z"/>
  </g>
  <g id="Semibold-M" transform="matrix(1 0 0 1 1980.91 1126)">
   <path class="monochrome-0 SFSymbolsPreview000000" d="M83.5415-22.4914L83.4915 9.27855C83.4915 11.3485 82.0815 13.1485 80.0715 13.6385L52.8814 20.3685C51.5414 20.6985 50.1214 20.3985 49.0314 19.5485C47.9414 18.6985 47.3014 17.3985 47.3014 16.0085L47.2614-0.391423C44.8814 0.938574 43.4313 1.72857 43.4313 1.72857C41.6613 2.69857 39.4613 2.37857 38.0513 0.928574L24.9313-12.5014C23.5213-13.9414 23.2413-16.1414 24.2513-17.8914C24.2513-17.8914 24.9813-19.1614 26.2113-21.2714L10.4012-21.2514C9.01122-21.2514 7.70122-21.8814 6.85121-22.9814C6.00121-24.0714 5.69121-25.5014 6.03121-26.8514L12.9312-54.2613C13.4312-56.2613 15.2312-57.6713 17.2913-57.6713C17.2913-57.6713 49.5114-57.6613 49.5114-57.6613C50.0414-58.3313 50.5414-58.9513 51.0114-59.5013C58.2014-67.9513 68.1214-75.5112 77.3615-79.8012C80.0815-81.0612 91.0915-84.4112 98.7915-85.1812C101.582-85.4612 103.992-85.3812 105.682-84.9512C106.992-84.6212 108.032-84.0712 108.802-83.4212C109.872-82.5212 110.782-81.1612 111.302-79.3012C111.742-77.6812 111.912-75.5212 111.772-73.0313C111.312-65.0013 107.682-52.9513 105.112-48.1113C99.5615-37.6313 93.5515-30.5214 85.4515-23.9714C84.8715-23.5014 84.2315-23.0114 83.5415-22.4914ZM26.9838-0.817637C25.2257-2.4739 17.2519-1.44332 17.2519-1.44332L10.5459 15.0781L27.8005 8.49455C27.8005 8.49455 28.742 0.83863 26.9838-0.817637ZM82.6615-61.9213C80.0315-61.9213 77.8915-59.7813 77.8915-57.1513C77.8915-54.5213 80.0315-52.3913 82.6615-52.3913C85.2915-52.3913 87.4215-54.5213 87.4215-57.1513C87.4215-59.7813 85.2915-61.9213 82.6615-61.9213Z"/>
  </g>
  <g id="Medium-M" transform="matrix(1 0 0 1 1684.7 1126)">
   <path class="monochrome-0 SFSymbolsPreview000000" d="M82.536-22.7514L82.486 9.27855C82.486 11.1185 81.236 12.7185 79.446 13.1585L52.2559 19.8885C51.0659 20.1785 49.8059 19.9085 48.8359 19.1585C47.8659 18.3985 47.2959 17.2385 47.2959 16.0085L47.2559-1.24142C44.4458 0.328575 42.6958 1.29857 42.6958 1.29857C41.1158 2.15857 39.1658 1.86857 37.9058 0.578575L24.7858-12.8514C23.5358-14.1314 23.2858-16.0914 24.1758-17.6414C24.1758-17.6414 25.0858-19.2114 26.5858-21.7714L9.89572-21.7514C8.66572-21.7514 7.49572-22.3114 6.74571-23.2914C5.98571-24.2614 5.71571-25.5314 6.01571-26.7214L12.9057-54.1413C13.3557-55.9213 14.9557-57.1713 16.7857-57.1713C16.7857-57.1713 49.2559-57.1613 49.2559-57.1613C49.8259-57.9013 50.3759-58.5813 50.8859-59.1813C58.0259-67.5713 67.8859-75.0912 77.076-79.3412C79.766-80.5912 90.696-83.9212 98.346-84.6812C101.056-84.9512 103.416-84.8812 105.056-84.4612C106.286-84.1512 107.256-83.6412 107.976-83.0412C108.986-82.2012 109.836-80.9212 110.316-79.1712C110.746-77.5912 110.906-75.4812 110.766-73.0613C110.316-65.0913 106.716-53.1413 104.166-48.3513C98.646-37.9313 92.686-30.8614 84.626-24.3614C84.006-23.8514 83.306-23.3214 82.536-22.7514ZM26.4845-0.817637C24.7264-2.4739 16.7526-1.44332 16.7526-1.44332L10.0466 15.0781L27.3012 8.49455C27.3012 8.49455 28.2427 0.83863 26.4845-0.817637ZM81.896-61.5713C79.266-61.5713 77.136-59.4313 77.136-56.8013C77.136-54.1713 79.266-52.0413 81.896-52.0413C84.526-52.0413 86.666-54.1713 86.666-56.8013C86.666-59.4313 84.526-61.5713 81.896-61.5713Z"/>
  </g>
  <g id="Regular-M" transform="matrix(1 0 0 1 1388.74 1126)">
   <path class="monochrome-0 SFSymbolsPreview000000" d="M81.0328-23.1314L80.9928 9.27855C80.9928 10.7686 79.9728 12.0685 78.5228 12.4285L51.3227 19.1585C50.3627 19.3985 49.3327 19.1785 48.5427 18.5685C47.7627 17.9485 47.3027 17.0085 47.2927 16.0085L47.2627-2.52142C43.8027-0.581422 41.5827 0.638575 41.5827 0.638575C40.3027 1.33857 38.7127 1.09857 37.6927 0.0585761L24.5726-13.3814C23.5526-14.4214 23.3526-16.0114 24.0826-17.2714C24.0826-17.2714 25.2526-19.3114 27.1426-22.5214L9.15257-22.5014C8.14257-22.5014 7.20257-22.9614 6.58256-23.7514C5.96256-24.5414 5.75256-25.5714 5.99256-26.5414L12.8826-53.9613C13.2526-55.4013 14.5526-56.4213 16.0426-56.4213C16.0426-56.4213 48.8727-56.4113 48.8727-56.4113C49.5227-57.2513 50.1427-58.0213 50.7127-58.6913C57.7827-67.0013 67.5428-74.4512 76.6428-78.6612C79.3028-79.9012 90.1129-83.1812 97.6629-83.9412C99.8429-84.1512 101.773-84.1612 103.253-83.9212C104.783-83.6712 105.953-83.1312 106.743-82.4612C107.653-81.7012 108.403-80.5412 108.843-78.9712C109.263-77.4512 109.403-75.4312 109.273-73.1013C108.823-65.2313 105.273-53.4413 102.763-48.7013C97.2929-38.3813 91.3829-31.3813 83.4128-24.9414C82.7128-24.3814 81.9128-23.7714 81.0328-23.1314ZM25.7354-0.817637C23.9772-2.4739 16.0034-1.44332 16.0034-1.44332L9.29746 15.0781L26.552 8.49455C26.552 8.49455 27.4935 0.83863 25.7354-0.817637ZM81.2928-61.3313C78.7128-61.3313 76.6228-59.2413 76.6228-56.6713C76.6228-54.1013 78.7128-52.0113 81.2928-52.0113C83.8628-52.0113 85.9528-54.1013 85.9528-56.6713C85.9528-59.2413 83.8628-61.3313 81.2928-61.3313Z"/>
  </g>
  <g id="Light-M" transform="matrix(1 0 0 1 1092.78 1126)">
   <path class="monochrome-0 SFSymbolsPreview000000" d="M79.5379-23.5114L79.4879 9.27855C79.4879 10.4286 78.7079 11.4285 77.5979 11.6985L50.3978 18.4285C49.6578 18.6185 48.8678 18.4485 48.2578 17.9785C47.6578 17.4985 47.2978 16.7785 47.2978 16.0085L47.2578-3.81141C43.1778-1.50142 40.4778-0.0214237 40.4778-0.0214237C39.4878 0.518575 38.2678 0.338575 37.4877-0.471423L24.3577-13.9014C23.5777-14.7014 23.4277-15.9214 23.9777-16.8914C23.9777-16.8914 25.4377-19.4214 27.7077-23.2714L8.39764-23.2514C7.62764-23.2514 6.89764-23.6014 6.42764-24.2114C5.94764-24.8214 5.78763-25.6114 5.96764-26.3614L12.8677-53.7813C13.1477-54.8913 14.1477-55.6713 15.2977-55.6713C15.2977-55.6713 48.4978-55.6613 48.4978-55.6613C49.2178-56.6113 49.9078-57.4613 50.5378-58.2113C57.5378-66.4313 67.1979-73.8112 76.2079-77.9812C78.8379-79.2012 89.5279-82.4512 96.988-83.1912C99.088-83.4012 100.958-83.4112 102.388-83.1812C103.748-82.9512 104.808-82.4812 105.518-81.8912C106.328-81.2112 106.988-80.1712 107.368-78.7712C107.768-77.3212 107.908-75.3712 107.778-73.1413C107.328-65.3813 103.828-53.7313 101.348-49.0513C95.928-38.8313 90.0879-31.9013 82.1879-25.5214C81.4279-24.9014 80.5279-24.2314 79.5379-23.5114ZM24.9878-0.817637C23.2297-2.4739 15.2559-1.44332 15.2559-1.44332L8.54993 15.0781L25.8045 8.49455C25.8045 8.49455 26.746 0.83863 24.9878-0.817637ZM80.5379-62.0813C77.5579-62.0813 75.1279-59.6613 75.1279-56.6713C75.1279-53.6913 77.5579-51.2613 80.5379-51.2613C83.5279-51.2613 85.9579-53.6913 85.9579-56.6713C85.9579-59.6613 83.5279-62.0813 80.5379-62.0813Z"/>
  </g>
  <g id="Thin-M" transform="matrix(1 0 0 1 797.066 1126)">
   <path class="monochrome-0 SFSymbolsPreview000000" d="M77.5374-24.0314L77.4914 9.27855C77.4904 9.96855 77.0204 10.5686 76.3524 10.7286L49.1583 17.4585C48.7113 17.5685 48.2383 17.4685 47.8743 17.1885C47.5113 16.8985 47.2993 16.4685 47.2983 16.0085L47.2533-5.52141C42.3652-2.75142 38.9922-0.901422 38.9922-0.901422C38.4022-0.571422 37.6682-0.681422 37.1982-1.16142L24.0752-14.6014C23.6062-15.0814 23.5132-15.8114 23.8482-16.3914C23.8482-16.3914 25.6872-19.6014 28.4672-24.2714L7.39811-24.2514C6.93511-24.2514 6.49811-24.4614 6.21411-24.8314C5.92911-25.1914 5.82811-25.6614 5.94111-26.1114L12.8371-53.5313C13.0041-54.2013 13.6041-54.6713 14.2921-54.6713C14.2921-54.6713 47.9933-54.6613 47.9923-54.6613C48.8143-55.7513 49.5873-56.7313 50.2983-57.5613C57.2033-65.6813 66.7393-72.9613 75.6264-77.0812C78.2184-78.2812 88.7384-81.4612 96.0914-82.2012C98.0894-82.3912 99.8654-82.4112 101.221-82.1912C102.375-82.0012 103.272-81.6212 103.872-81.1212C104.55-80.5612 105.083-79.6712 105.407-78.5012C105.784-77.1312 105.896-75.3012 105.776-73.2013C105.34-65.5713 101.901-54.1213 99.4634-49.5213C94.1194-39.4413 88.3564-32.6013 80.5624-26.3014C79.7004-25.6114 78.6814-24.8414 77.5374-24.0314ZM23.9875-0.817637C22.2294-2.4739 14.2556-1.44332 14.2556-1.44332L7.5496 15.0781L24.8041 8.49455C24.8041 8.49455 25.7456 0.83863 23.9875-0.817637ZM79.5394-63.0813C76.0004-63.0813 73.1254-60.2113 73.1254-56.6713C73.1254-53.1313 76.0004-50.2613 79.5394-50.2613C83.0794-50.2613 85.9544-53.1313 85.9544-56.6713C85.9544-60.2113 83.0794-63.0813 79.5394-63.0813Z"/>
  </g>
  <g id="Ultralight-M" transform="matrix(1 0 0 1 500.855 1126)">
   <path class="monochrome-0 SFSymbolsPreview000000" d="M76.5377-24.2914L76.4917 9.27855C76.4907 9.73855 76.1777 10.1286 75.7317 10.2486L48.5376 16.9785C48.2396 17.0485 47.9246 16.9785 47.6826 16.7885C47.4406 16.5985 47.2986 16.3085 47.2976 16.0085L47.2516-6.38141C41.9686-3.37142 38.2516-1.34142 38.2516-1.34142C37.8586-1.12142 37.3696-1.19142 37.0556-1.51142L23.9325-14.9514C23.6205-15.2714 23.5585-15.7614 23.7815-16.1414C23.7815-16.1414 25.8195-19.6914 28.8476-24.7714L6.89747-24.7514C6.58847-24.7514 6.29747-24.8914 6.10747-25.1314C5.91747-25.3814 5.85047-25.6914 5.92647-25.9914L12.8215-53.4113C12.9335-53.8613 13.3335-54.1713 13.7915-54.1713C13.7915-54.1713 47.7426-54.1613 47.7426-54.1613C48.6126-55.3213 49.4306-56.3613 50.1786-57.2413C57.0377-65.3013 66.5097-72.5313 75.3367-76.6212C77.9077-77.8212 88.3458-80.9712 95.6408-81.7012C97.5878-81.8912 99.3198-81.9112 100.641-81.7012C101.688-81.5312 102.507-81.1912 103.052-80.7412C103.664-80.2312 104.133-79.4312 104.425-78.3712C104.791-77.0412 104.894-75.2712 104.777-73.2313C104.346-65.6613 100.939-54.3113 98.5218-49.7513C93.2138-39.7413 87.4898-32.9413 79.7487-26.6914C78.8407-25.9614 77.7577-25.1514 76.5377-24.2914ZM23.4875-0.817637C21.7294-2.4739 13.7556-1.44332 13.7556-1.44332L7.04961 15.0781L24.3042 8.49455C24.3042 8.49455 25.2456 0.83863 23.4875-0.817637ZM79.0397-63.5813C75.2237-63.5813 72.1257-60.4813 72.1257-56.6713C72.1257-52.8613 75.2237-49.7613 79.0397-49.7613C82.8557-49.7613 85.9538-52.8613 85.9538-56.6713C85.9538-60.4813 82.8557-63.5813 79.0397-63.5813Z"/>
  </g>
  <g id="Black-S" transform="matrix(1 0 0 1 2880.87 696)">
   <path class="monochrome-0 SFSymbolsPreview000000" d="M69.914-24.485L69.884-0.181C69.884 2.114 68.314 4.113 66.084 4.665L44.684 9.966C43.194 10.335 41.614 9.999 40.404 9.054C39.194 8.108 38.484 6.659 38.484 5.123L38.464-5.327C37.904-5.021 37.604-4.853 37.604-4.853C35.634-3.773 33.184-4.137 31.614-5.744L21.294-16.326C19.734-17.926 19.424-20.369 20.534-22.308C20.534-22.308 20.634-22.475 20.814-22.787L10.904-22.774C9.36398-22.772 7.90398-23.482 6.95398-24.697C6.00398-25.912 5.67398-27.497 6.04398-28.993L11.474-50.589C12.034-52.812 14.034-54.371 16.324-54.371C16.324-54.371 40.974-54.365 40.974-54.365C41.244-54.698 41.504-55.012 41.754-55.305C47.544-62.113 55.544-68.21 62.984-71.667C65.184-72.686 74.094-75.414 80.324-76.035C84.504-76.452 87.804-75.553 89.274-74.318C90.994-72.881 92.394-69.512 92.134-64.932C91.764-58.413 88.814-48.636 86.734-44.708C82.254-36.253 77.414-30.522 70.884-25.241C70.584-24.999 70.254-24.746 69.914-24.485ZM23.9578-8.13699C22.5741-9.44156 16.2987-8.62982 16.2987-8.62982L11.021 4.3834L24.6005-0.802191C24.6005-0.802191 25.3415-6.83242 23.9578-8.13699ZM67.674-53.36C66.994-53.36 66.444-52.809 66.444-52.132C66.444-51.454 66.994-50.903 67.674-50.903C68.354-50.903 68.904-51.454 68.904-52.132C68.904-52.809 68.354-53.36 67.674-53.36Z"/>
  </g>
  <g id="Heavy-S" transform="matrix(1 0 0 1 2584.66 696)">
   <path class="monochrome-0 SFSymbolsPreview000000" d="M68.913-24.734L68.883-0.182C68.873 1.884 67.463 3.683 65.463 4.18L44.053 9.481C42.713 9.813 41.293 9.51 40.203 8.659C39.113 7.809 38.483 6.504 38.473 5.122L38.453-6.175C37.433-5.611 36.853-5.292 36.853-5.292C35.083-4.319 32.883-4.647 31.473-6.094L21.143-16.675C19.743-18.115 19.463-20.314 20.463-22.059C20.463-22.059 20.713-22.502 21.173-23.288L10.403-23.274C9.01299-23.272 7.70299-23.911 6.84299-25.005C5.99299-26.098 5.69299-27.525 6.03299-28.871L11.453-50.467C11.953-52.468 13.753-53.871 15.823-53.871C15.823-53.871 40.713-53.865 40.713-53.865C41.033-54.264 41.333-54.637 41.623-54.981C47.373-61.735 55.303-67.784 62.693-71.213C64.873-72.223 73.693-74.922 79.863-75.538C83.873-75.937 87.033-75.117 88.453-73.935C90.093-72.563 91.383-69.332 91.133-64.96C90.763-58.508 87.843-48.83 85.783-44.942C81.343-36.555 76.543-30.869 70.063-25.63C69.713-25.345 69.323-25.045 68.913-24.734ZM23.4468-8.13699C22.0632-9.44156 15.7877-8.62982 15.7877-8.62982L10.51 4.3834L24.0895-0.802191C24.0895-0.802191 24.8305-6.83242 23.4468-8.13699ZM67.173-53.86C66.213-53.86 65.443-53.085 65.443-52.132C65.443-51.178 66.213-50.403 67.173-50.403C68.123-50.403 68.903-51.178 68.903-52.132C68.903-53.085 68.123-53.86 67.173-53.86Z"/>
  </g>
  <g id="Bold-S" transform="matrix(1 0 0 1 2288.19 696)">
   <path class="monochrome-0 SFSymbolsPreview000000" d="M68.4136-24.859L68.3836-0.182C68.3836 1.769 67.0436 3.468 65.1536 3.937L43.7536 9.238C42.4836 9.552 41.1436 9.266 40.1136 8.462C39.0836 7.659 38.4836 6.427 38.4836 5.122L38.4536-6.6C37.2136-5.908 36.4936-5.511 36.4936-5.511C34.8136-4.593 32.7336-4.902 31.4036-6.268L21.0736-16.85C19.7536-18.21 19.4836-20.286 20.4336-21.935C20.4336-21.935 20.7736-22.52 21.3636-23.538L10.1536-23.524C8.84356-23.522 7.60356-24.125 6.79356-25.158C5.99356-26.191 5.70356-27.539 6.02356-28.81L11.4536-50.406C11.9236-52.296 13.6236-53.621 15.5736-53.621C15.5736-53.621 40.5836-53.615 40.5836-53.615C40.9336-54.047 41.2536-54.45 41.5736-54.819C47.2936-61.546 55.1936-67.571 62.5536-70.986C64.7136-71.991 73.5036-74.676 79.6436-75.289C83.5636-75.679 86.6636-74.899 88.0436-73.743C88.9836-72.956 89.7936-71.772 90.2436-70.141C90.6136-68.808 90.7536-67.025 90.6436-64.974C90.2736-58.555 87.3636-48.927 85.3136-45.059C80.8936-36.706 76.1136-31.042 69.6636-25.825C69.2836-25.518 68.8636-25.195 68.4136-24.859ZM23.2074-8.13699C21.8237-9.44156 15.5483-8.62982 15.5483-8.62982L10.2706 4.3834L23.8501-0.802191C23.8501-0.802191 24.5911-6.83242 23.2074-8.13699ZM67.0036-56.294C64.7836-56.294 62.9836-54.493 62.9836-52.275C62.9836-50.057 64.7836-48.256 67.0036-48.256C69.2236-48.256 71.0236-50.057 71.0236-52.275C71.0236-54.493 69.2236-56.294 67.0036-56.294Z"/>
  </g>
  <g id="Semibold-S" transform="matrix(1 0 0 1 1991.73 696)">
   <path class="monochrome-0 SFSymbolsPreview000000" d="M67.9175-24.984L67.8775-0.183C67.8775 1.654 66.6275 3.253 64.8375 3.694L43.4375 8.995C42.2475 9.291 40.9875 9.022 40.0175 8.265C39.0475 7.509 38.4775 6.35 38.4775 5.121L38.4475-7.025C36.9875-6.207 36.1175-5.73 36.1175-5.73C34.5475-4.866 32.5875-5.157 31.3275-6.443L21.0075-17.024C19.7575-18.305 19.5075-20.259 20.3975-21.81C20.3975-21.81 20.8175-22.54 21.5475-23.789L9.8975-23.774C8.6675-23.773 7.4975-24.34 6.7375-25.312C5.9775-26.285 5.7175-27.553 6.0175-28.749L11.4375-50.345C11.8875-52.124 13.4875-53.371 15.3175-53.371C15.3175-53.371 40.4575-53.365 40.4575-53.365C40.8275-53.831 41.1775-54.263 41.5075-54.657C47.2075-61.357 55.0775-67.358 62.4075-70.76C64.5575-71.76 73.3075-74.43 79.4175-75.04C81.6675-75.265 83.6275-75.192 84.9975-74.846C86.1075-74.563 86.9775-74.094 87.6275-73.551C88.5375-72.792 89.3175-71.648 89.7475-70.075C90.1075-68.763 90.2475-67.008 90.1375-64.989C89.7675-58.603 86.8775-49.024 84.8475-45.177C80.4375-36.856 75.6775-31.215 69.2475-26.019C68.8475-25.691 68.3975-25.345 67.9175-24.984ZM22.9513-8.13699C21.5677-9.44156 15.2922-8.62982 15.2922-8.62982L10.0145 4.3834L23.5941-0.802191C23.5941-0.802191 24.335-6.83242 22.9513-8.13699ZM66.8475-56.961C64.2175-56.961 62.0775-54.827 62.0775-52.197C62.0775-49.568 64.2175-47.433 66.8475-47.433C69.4775-47.433 71.6075-49.568 71.6075-52.197C71.6075-54.827 69.4775-56.961 66.8475-56.961Z"/>
  </g>
  <g id="Medium-S" transform="matrix(1 0 0 1 1695.52 696)">
   <path class="monochrome-0 SFSymbolsPreview000000" d="M66.9186-25.235L66.8786-0.183C66.8786 1.424 65.7886 2.823 64.2286 3.209L42.8186 8.51C41.7786 8.769 40.6786 8.533 39.8286 7.871C38.9786 7.21 38.4786 6.195 38.4786 5.12L38.4586-7.876C36.5486-6.808 35.3786-6.168 35.3786-6.168C33.9986-5.412 32.2886-5.667 31.1886-6.792L20.8686-17.374C19.7686-18.494 19.5586-20.204 20.3386-21.561C20.3386-21.561 20.9186-22.588 21.9186-24.29L9.39864-24.274C8.31864-24.273 7.29864-24.769 6.63864-25.62C5.97864-26.471 5.73864-27.58 5.99864-28.627L11.4286-50.223C11.8186-51.78 13.2186-52.871 14.8286-52.871C14.8286-52.871 40.1986-52.865 40.1986-52.865C40.6186-53.399 41.0186-53.89 41.3986-54.334C47.0486-60.979 54.8486-66.932 62.1186-70.306C64.2586-71.297 72.9186-73.938 78.9686-74.543C81.1586-74.76 83.0586-74.697 84.3786-74.361C85.4086-74.1 86.2186-73.67 86.8186-73.168C87.6586-72.464 88.3686-71.4 88.7686-69.942C89.1186-68.672 89.2486-66.972 89.1386-65.017C88.7786-58.698 85.9186-49.218 83.9086-45.411C79.5386-37.158 74.8186-31.562 68.4386-26.408C67.9786-26.039 67.4686-25.647 66.9186-25.235ZM22.4525-8.13699C21.0688-9.44156 14.7934-8.62982 14.7934-8.62982L9.51567 4.3834L23.0952-0.802191C23.0952-0.802191 23.8362-6.83242 22.4525-8.13699ZM66.1286-56.939C63.4986-56.939 61.3586-54.804 61.3586-52.175C61.3586-49.545 63.4986-47.41 66.1286-47.41C68.7586-47.41 70.8886-49.545 70.8886-52.175C70.8886-54.804 68.7586-56.939 66.1286-56.939Z"/>
  </g>
  <g id="Regular-S" transform="matrix(1 0 0 1 1399.31 696)">
   <path class="monochrome-0 SFSymbolsPreview000000" d="M65.9192-25.488L65.8792-0.184C65.8792 1.193 64.9392 2.393 63.5992 2.724L42.1992 8.025C41.3092 8.246 40.3592 8.044 39.6292 7.477C38.9092 6.91 38.4792 6.04 38.4792 5.119L38.4492-8.728C36.1092-7.414 34.6392-6.607 34.6392-6.607C33.4592-5.959 31.9892-6.177 31.0492-7.141L20.7192-17.723C19.7792-18.683 19.5992-20.149 20.2592-21.312C20.2592-21.312 21.0292-22.646 22.2892-24.791L8.89924-24.774C7.96924-24.773 7.09924-25.199 6.52924-25.928C5.95924-26.657 5.75924-27.608 5.98924-28.505L11.4092-50.102C11.7492-51.436 12.9492-52.371 14.3192-52.371C14.3192-52.371 39.9492-52.365 39.9492-52.365C40.4092-52.968 40.8592-53.519 41.2692-54.01C46.8792-60.6 54.6192-66.506 61.8292-69.853C63.9392-70.834 72.5192-73.447 78.5192-74.045C80.6292-74.256 82.4692-74.201 83.7492-73.876C84.6992-73.637 85.4392-73.245 85.9892-72.784C86.7692-72.136 87.4192-71.152 87.7892-69.809C88.1192-68.58 88.2492-66.936 88.1392-65.046C87.7792-58.793 84.9592-49.413 82.9592-45.645C78.6292-37.46 73.9492-31.909 67.6192-26.797C67.1192-26.388 66.5392-25.95 65.9192-25.488ZM21.9521-8.13699C20.5684-9.44156 14.2929-8.62982 14.2929-8.62982L9.01527 4.3834L22.5948-0.802191C22.5948-0.802191 23.3358-6.83242 21.9521-8.13699ZM65.7692-57.314C62.9692-57.314 60.6892-55.035 60.6892-52.228C60.6892-49.421 62.9692-47.143 65.7692-47.143C68.5792-47.143 70.8592-49.421 70.8592-52.228C70.8592-55.035 68.5792-57.314 65.7692-57.314Z"/>
  </g>
  <g id="Light-S" transform="matrix(1 0 0 1 1103.35 696)">
   <path class="monochrome-0 SFSymbolsPreview000000" d="M64.4145-25.87L64.3745-0.185C64.3745 0.848 63.6745 1.747 62.6645 1.996L41.2645 7.297C40.5945 7.463 39.8845 7.311 39.3445 6.886C38.7945 6.461 38.4745 5.809 38.4745 5.117L38.4445-10.009C35.4745-8.332 33.5245-7.264 33.5245-7.264C32.6345-6.778 31.5345-6.942 30.8345-7.665L20.5045-18.247C19.8045-18.967 19.6645-20.066 20.1645-20.939C20.1645-20.939 21.2045-22.748 22.8445-25.543L8.14449-25.524C7.45449-25.523 6.79449-25.842 6.36449-26.389C5.94449-26.936 5.79449-27.649 5.96449-28.322L11.3845-49.919C11.6345-50.919 12.5345-51.621 13.5745-51.621C13.5745-51.621 39.5645-51.615 39.5645-51.615C40.1045-52.322 40.6145-52.963 41.0945-53.524C46.6245-60.033 54.2645-65.868 61.3945-69.172C63.4745-70.139 71.9345-72.709 77.8445-73.299C79.5245-73.466 81.0145-73.471 82.1545-73.285C83.2945-73.099 84.1645-72.704 84.7545-72.209C85.4345-71.644 85.9845-70.78 86.3145-69.61C86.6345-68.444 86.7445-66.883 86.6345-65.088C86.2845-58.935 83.5145-49.704 81.5445-45.996C77.2645-37.912 72.6445-32.429 66.3945-27.38C65.8245-26.912 65.1545-26.406 64.4145-25.87ZM21.2003-8.13699C19.8167-9.44156 13.5412-8.62982 13.5412-8.62982L8.26352 4.3834L21.843-0.802191C21.843-0.802191 22.584-6.83242 21.2003-8.13699ZM64.8445-57.266C62.0345-57.266 59.7645-54.987 59.7645-52.18C59.7645-49.374 62.0345-47.095 64.8445-47.095C67.6545-47.095 69.9345-49.374 69.9345-52.18C69.9345-54.987 67.6545-57.266 64.8445-57.266Z"/>
  </g>
  <g id="Thin-S" transform="matrix(1 0 0 1 807.388 696)">
   <path class="monochrome-0 SFSymbolsPreview000000" d="M62.9173-26.254L62.8813-0.186C62.8803 0.503 62.4103 1.102 61.7413 1.268L40.3403 6.569C39.8923 6.679 39.4193 6.579 39.0563 6.295C38.6933 6.011 38.4803 5.577 38.4793 5.116L38.4453-11.293C34.8553-9.26 32.4163-7.922 32.4163-7.922C31.8253-7.598 31.0913-7.707 30.6213-8.189L20.2933-18.771C19.8253-19.251 19.7323-19.983 20.0663-20.565C20.0663-20.565 21.3893-22.871 23.4183-26.294L7.39729-26.274C6.93529-26.273 6.49829-26.486 6.21329-26.851C5.92829-27.215 5.82829-27.691 5.94129-28.14L11.3673-49.736C11.5353-50.403 12.1353-50.871 12.8223-50.871C12.8223-50.871 39.1863-50.865 39.1863-50.865C39.8013-51.678 40.3813-52.409 40.9163-53.038C46.3803-59.466 53.9273-65.229 60.9583-68.492C63.0113-69.445 71.3443-71.971 77.1683-72.552C78.7733-72.713 80.2003-72.723 81.2883-72.545C82.2653-72.385 83.0213-72.059 83.5293-71.634C84.1053-71.152 84.5643-70.408 84.8393-69.41C85.1443-68.307 85.2383-66.829 85.1413-65.131C84.7963-59.078 82.0683-49.995 80.1363-46.347C75.9073-38.364 71.3463-32.949 65.1803-27.963C64.5303-27.438 63.7693-26.865 62.9173-26.254ZM20.4531-8.13699C19.0695-9.44156 12.794-8.62982 12.794-8.62982L7.51632 4.3834L21.0958-0.802191C21.0958-0.802191 21.8368-6.83242 20.4531-8.13699ZM64.1733-58.36C60.7363-58.36 57.9453-55.569 57.9453-52.132C57.9453-48.694 60.7363-45.903 64.1733-45.903C67.6113-45.903 70.4023-48.694 70.4023-52.132C70.4023-55.569 67.6113-58.36 64.1733-58.36Z"/>
  </g>
  <g id="Ultralight-S" transform="matrix(1 0 0 1 512.177 696)">
   <path class="monochrome-0 SFSymbolsPreview000000" d="M25.1568-35.969L24.5128-34.972L5.89579-34.949L11.3218-56.545L38.4368-56.54C39.1988-57.569 39.9128-58.481 40.5588-59.241C45.8848-65.505 53.2368-71.126 60.0898-74.306C62.9348-75.626 78.2168-80.042 81.0668-77.658C84.2038-75.034 79.9798-59.263 77.3108-54.224C73.1888-46.444 68.7468-41.163 62.7368-36.304C61.8888-35.619 60.8438-34.849 59.6548-34.021L59.9178-34.183L59.8808-7.363L38.4788-2.062L38.4398-21.017L39.0918-21.416C33.9968-18.498 30.1948-16.411 30.1948-16.411L19.8668-26.993C19.8668-26.993 22.0748-30.839 25.1568-35.969ZM18.9529-15.3116C17.5692-16.6162 11.2938-15.8044 11.2938-15.8044L6.01611-2.7912L19.5956-7.97679C19.5956-7.97679 20.3366-14.007 18.9529-15.3116ZM62.6738-65.534C59.2358-65.534 56.4448-62.744 56.4448-59.306C56.4448-55.869 59.2358-53.078 62.6738-53.078C66.1108-53.078 68.9018-55.869 68.9018-59.306C68.9018-62.744 66.1108-65.534 62.6738-65.534Z"/>
  </g>
 </g>
</svg>
