<?xml version="1.0" encoding="UTF-8"?>
<!--Generator: Apple Native CoreSVG 175.5-->
<!DOCTYPE svg
PUBLIC "-//W3C//DTD SVG 1.1//EN"
       "http://www.w3.org/Graphics/SVG/1.1/DTD/svg11.dtd">
<svg version="1.1" xmlns="http://www.w3.org/2000/svg" xmlns:xlink="http://www.w3.org/1999/xlink" width="3300" height="2200">
 <!--glyph: "", point size: 100.0, font version: "18.0d12e2", template writer version: "101"-->
 <style>.monochrome-0 {fill:#000000}

.SFSymbolsPreview000000 {fill:#000000;opacity:1.0}
</style>
 <g id="Notes">
  <rect height="2200" id="artboard" style="fill:white;opacity:1" width="3300" x="0" y="0"/>
  <line style="fill:none;stroke:black;opacity:1;stroke-width:0.5;" x1="263" x2="3036" y1="292" y2="292"/>
  <text style="stroke:none;fill:black;font-family:sans-serif;font-size:13;font-weight:bold;" transform="matrix(1 0 0 1 263 322)">Weight/Scale Variations</text>
  <text style="stroke:none;fill:black;font-family:sans-serif;font-size:13;text-anchor:middle;" transform="matrix(1 0 0 1 559.711 322)">Ultralight</text>
  <text style="stroke:none;fill:black;font-family:sans-serif;font-size:13;text-anchor:middle;" transform="matrix(1 0 0 1 856.422 322)">Thin</text>
  <text style="stroke:none;fill:black;font-family:sans-serif;font-size:13;text-anchor:middle;" transform="matrix(1 0 0 1 1153.13 322)">Light</text>
  <text style="stroke:none;fill:black;font-family:sans-serif;font-size:13;text-anchor:middle;" transform="matrix(1 0 0 1 1449.84 322)">Regular</text>
  <text style="stroke:none;fill:black;font-family:sans-serif;font-size:13;text-anchor:middle;" transform="matrix(1 0 0 1 1746.56 322)">Medium</text>
  <text style="stroke:none;fill:black;font-family:sans-serif;font-size:13;text-anchor:middle;" transform="matrix(1 0 0 1 2043.27 322)">Semibold</text>
  <text style="stroke:none;fill:black;font-family:sans-serif;font-size:13;text-anchor:middle;" transform="matrix(1 0 0 1 2339.98 322)">Bold</text>
  <text style="stroke:none;fill:black;font-family:sans-serif;font-size:13;text-anchor:middle;" transform="matrix(1 0 0 1 2636.69 322)">Heavy</text>
  <text style="stroke:none;fill:black;font-family:sans-serif;font-size:13;text-anchor:middle;" transform="matrix(1 0 0 1 2933.4 322)">Black</text>
  <line style="fill:none;stroke:black;opacity:1;stroke-width:0.5;" x1="263" x2="3036" y1="1903" y2="1903"/>
  <g transform="matrix(1 0 0 1 263 1933)">
   <path d="M9.24805 0.830078C13.5547 0.830078 17.1387-2.74414 17.1387-7.05078C17.1387-11.3574 13.5449-14.9316 9.23828-14.9316C4.94141-14.9316 1.36719-11.3574 1.36719-7.05078C1.36719-2.74414 4.95117 0.830078 9.24805 0.830078ZM9.24805-0.654297C5.70312-0.654297 2.87109-3.49609 2.87109-7.05078C2.87109-10.6055 5.69336-13.4473 9.23828-13.4473C12.793-13.4473 15.6445-10.6055 15.6445-7.05078C15.6445-3.49609 12.8027-0.654297 9.24805-0.654297ZM5.6543-7.05078C5.6543-6.62109 5.95703-6.32812 6.40625-6.32812L8.50586-6.32812L8.50586-4.20898C8.50586-3.76953 8.79883-3.4668 9.22852-3.4668C9.67773-3.4668 9.9707-3.76953 9.9707-4.20898L9.9707-6.32812L12.0898-6.32812C12.5293-6.32812 12.832-6.62109 12.832-7.05078C12.832-7.49023 12.5293-7.79297 12.0898-7.79297L9.9707-7.79297L9.9707-9.90234C9.9707-10.3516 9.67773-10.6543 9.22852-10.6543C8.79883-10.6543 8.50586-10.3516 8.50586-9.90234L8.50586-7.79297L6.40625-7.79297C5.95703-7.79297 5.6543-7.49023 5.6543-7.05078Z"/>
  </g>
  <g transform="matrix(1 0 0 1 281.867 1933)">
   <path d="M11.709 2.91016C17.1582 2.91016 21.6699-1.61133 21.6699-7.05078C21.6699-12.5 17.1484-17.0117 11.6992-17.0117C6.25977-17.0117 1.74805-12.5 1.74805-7.05078C1.74805-1.61133 6.26953 2.91016 11.709 2.91016ZM11.709 1.25C7.09961 1.25 3.41797-2.44141 3.41797-7.05078C3.41797-11.6602 7.08984-15.3516 11.6992-15.3516C16.3086-15.3516 20.0098-11.6602 20.0098-7.05078C20.0098-2.44141 16.3184 1.25 11.709 1.25ZM7.17773-7.05078C7.17773-6.57227 7.50977-6.25 8.00781-6.25L10.8789-6.25L10.8789-3.36914C10.8789-2.88086 11.2109-2.53906 11.6895-2.53906C12.1777-2.53906 12.5195-2.87109 12.5195-3.36914L12.5195-6.25L15.4004-6.25C15.8887-6.25 16.2305-6.57227 16.2305-7.05078C16.2305-7.53906 15.8887-7.88086 15.4004-7.88086L12.5195-7.88086L12.5195-10.752C12.5195-11.25 12.1777-11.5918 11.6895-11.5918C11.2109-11.5918 10.8789-11.25 10.8789-10.752L10.8789-7.88086L8.00781-7.88086C7.50977-7.88086 7.17773-7.53906 7.17773-7.05078Z"/>
  </g>
  <g transform="matrix(1 0 0 1 305.646 1933)">
   <path d="M14.9707 5.66406C21.9336 5.66406 27.6953-0.0976562 27.6953-7.05078C27.6953-14.0137 21.9238-19.7754 14.9609-19.7754C8.00781-19.7754 2.25586-14.0137 2.25586-7.05078C2.25586-0.0976562 8.01758 5.66406 14.9707 5.66406ZM14.9707 3.84766C8.93555 3.84766 4.08203-1.01562 4.08203-7.05078C4.08203-13.0957 8.92578-17.9492 14.9609-17.9492C21.0059-17.9492 25.8691-13.0957 25.8691-7.05078C25.8691-1.01562 21.0156 3.84766 14.9707 3.84766ZM9.19922-7.05078C9.19922-6.5332 9.57031-6.17188 10.1172-6.17188L14.0625-6.17188L14.0625-2.2168C14.0625-1.67969 14.4336-1.29883 14.9512-1.29883C15.4883-1.29883 15.8594-1.66992 15.8594-2.2168L15.8594-6.17188L19.8145-6.17188C20.3516-6.17188 20.7324-6.5332 20.7324-7.05078C20.7324-7.59766 20.3613-7.96875 19.8145-7.96875L15.8594-7.96875L15.8594-11.9141C15.8594-12.4609 15.4883-12.8418 14.9512-12.8418C14.4336-12.8418 14.0625-12.4609 14.0625-11.9141L14.0625-7.96875L10.1172-7.96875C9.57031-7.96875 9.19922-7.59766 9.19922-7.05078Z"/>
  </g>
  <text style="stroke:none;fill:black;font-family:sans-serif;font-size:13;font-weight:bold;" transform="matrix(1 0 0 1 263 1953)">Design Variations</text>
  <text style="stroke:none;fill:black;font-family:sans-serif;font-size:13;" transform="matrix(1 0 0 1 263 1971)">Symbols are supported in up to nine weights and three scales.</text>
  <text style="stroke:none;fill:black;font-family:sans-serif;font-size:13;" transform="matrix(1 0 0 1 263 1989)">For optimal layout with text and other symbols, vertically align</text>
  <text style="stroke:none;fill:black;font-family:sans-serif;font-size:13;" transform="matrix(1 0 0 1 263 2007)">symbols with the adjacent text.</text>
  <line style="fill:none;stroke:#00AEEF;stroke-width:0.5;opacity:1.0;" x1="776" x2="776" y1="1919" y2="1933"/>
  <g transform="matrix(1 0 0 1 776 1933)">
   <path d="M3.31055 0.15625C3.82812 0.15625 4.08203-0.0390625 4.26758-0.585938L5.52734-4.0332L11.2891-4.0332L12.5488-0.585938C12.7344-0.0390625 12.9883 0.15625 13.4961 0.15625C14.0137 0.15625 14.3457-0.15625 14.3457-0.644531C14.3457-0.810547 14.3164-0.966797 14.2383-1.17188L9.6582-13.3691C9.43359-13.9648 9.0332-14.2676 8.4082-14.2676C7.80273-14.2676 7.39258-13.9746 7.17773-13.3789L2.59766-1.16211C2.51953-0.957031 2.49023-0.800781 2.49023-0.634766C2.49023-0.146484 2.80273 0.15625 3.31055 0.15625ZM6.00586-5.51758L8.37891-12.0898L8.42773-12.0898L10.8008-5.51758Z"/>
  </g>
  <line style="fill:none;stroke:#00AEEF;stroke-width:0.5;opacity:1.0;" x1="793.197" x2="793.197" y1="1919" y2="1933"/>
  <text style="stroke:none;fill:black;font-family:sans-serif;font-size:13;font-weight:bold;" transform="matrix(1 0 0 1 776 1953)">Margins</text>
  <text style="stroke:none;fill:black;font-family:sans-serif;font-size:13;" transform="matrix(1 0 0 1 776 1971)">Leading and trailing margins on the left and right side of each symbol</text>
  <text style="stroke:none;fill:black;font-family:sans-serif;font-size:13;" transform="matrix(1 0 0 1 776 1989)">can be adjusted by modifying the x-location of the margin guidelines.</text>
  <text style="stroke:none;fill:black;font-family:sans-serif;font-size:13;" transform="matrix(1 0 0 1 776 2007)">Modifications are automatically applied proportionally to all</text>
  <text style="stroke:none;fill:black;font-family:sans-serif;font-size:13;" transform="matrix(1 0 0 1 776 2025)">scales and weights.</text>
  <g transform="matrix(1 0 0 1 1289 1933)">
   <path d="M2.8418 1.86523L4.54102 3.57422C5.40039 4.44336 6.38672 4.38477 7.31445 3.35938L18.0078-8.42773L17.041-9.4043L6.42578 2.27539C6.07422 2.67578 5.74219 2.77344 5.27344 2.30469L4.10156 1.14258C3.63281 0.683594 3.74023 0.341797 4.14062-0.0195312L15.6152-10.8203L14.6387-11.7871L3.04688-0.898438C2.06055 0.0195312 1.98242 0.996094 2.8418 1.86523ZM9.25781-16.3281C8.83789-15.918 8.80859-15.3418 9.04297-14.9512C9.27734-14.5898 9.73633-14.3555 10.3809-14.5215C11.8457-14.8633 13.3691-14.9219 14.7949-13.9844L14.209-12.5293C13.8672-11.6992 14.043-11.1133 14.5801-10.5664L16.875-8.25195C17.3633-7.76367 17.7734-7.74414 18.3398-7.8418L19.4043-8.03711L20.0684-7.36328L20.0293-6.80664C19.9902-6.30859 20.1172-5.92773 20.6055-5.44922L21.3672-4.70703C21.8457-4.22852 22.4609-4.19922 22.9297-4.66797L25.8398-7.58789C26.3086-8.05664 26.2891-8.65234 25.8105-9.13086L25.0391-9.89258C24.5605-10.3711 24.1895-10.5273 23.7109-10.4883L23.1348-10.4395L22.4902-11.0742L22.7344-12.1973C22.8613-12.7637 22.7051-13.2031 22.1191-13.7891L19.9219-15.9766C16.582-19.2969 12.1484-19.2188 9.25781-16.3281ZM10.752-15.957C13.1836-17.7344 16.4746-17.4316 18.7012-15.2051L21.1328-12.793C21.3672-12.5586 21.4062-12.373 21.3379-12.0312L21.0156-10.5469L22.5195-9.0625L23.5059-9.12109C23.7598-9.13086 23.8379-9.11133 24.0332-8.91602L24.6094-8.33984L22.168-5.89844L21.5918-6.47461C21.3965-6.66992 21.3672-6.74805 21.377-7.01172L21.4453-7.98828L19.9512-9.47266L18.4277-9.21875C18.1055-9.15039 17.959-9.17969 17.7148-9.41406L15.7129-11.416C15.459-11.6504 15.4297-11.8164 15.5859-12.1875L16.4648-14.2773C14.9023-15.7324 12.8711-16.3574 10.8398-15.7617C10.6836-15.7227 10.625-15.8496 10.752-15.957Z"/>
  </g>
  <text style="stroke:none;fill:black;font-family:sans-serif;font-size:13;font-weight:bold;" transform="matrix(1 0 0 1 1289 1953)">Exporting</text>
  <text style="stroke:none;fill:black;font-family:sans-serif;font-size:13;" transform="matrix(1 0 0 1 1289 1971)">Symbols should be outlined when exporting to ensure the</text>
  <text style="stroke:none;fill:black;font-family:sans-serif;font-size:13;" transform="matrix(1 0 0 1 1289 1989)">design is preserved when submitting to Xcode.</text>
  <text id="template-version" style="stroke:none;fill:black;font-family:sans-serif;font-size:13;text-anchor:end;" transform="matrix(1 0 0 1 3036 1933)">Template v.4.0</text>
  <text style="stroke:none;fill:black;font-family:sans-serif;font-size:13;text-anchor:end;" transform="matrix(1 0 0 1 3036 1951)">Requires Xcode 14 or greater</text>
  <text id="descriptive-name" style="stroke:none;fill:black;font-family:sans-serif;font-size:13;text-anchor:end;" transform="matrix(1 0 0 1 3036 1969)">Generated from custom.rocket.fill</text>
  <text style="stroke:none;fill:black;font-family:sans-serif;font-size:13;text-anchor:end;" transform="matrix(1 0 0 1 3036 1987)">Typeset at 100 points</text>
  <text style="stroke:none;fill:black;font-family:sans-serif;font-size:13;" transform="matrix(1 0 0 1 263 726)">Small</text>
  <text style="stroke:none;fill:black;font-family:sans-serif;font-size:13;" transform="matrix(1 0 0 1 263 1156)">Medium</text>
  <text style="stroke:none;fill:black;font-family:sans-serif;font-size:13;" transform="matrix(1 0 0 1 263 1586)">Large</text>
 </g>
 <g id="Guides">
  <g id="H-reference" style="fill:#27AAE1;stroke:none;" transform="matrix(1 0 0 1 339 696)">
   <path d="M0.993654 0L3.63775 0L29.3281-67.1323L30.0303-67.1323L30.0303-70.459L28.1226-70.459ZM11.6885-24.4799L46.9815-24.4799L46.2315-26.7285L12.4385-26.7285ZM55.1196 0L57.7637 0L30.6382-70.459L29.4326-70.459L29.4326-67.1323Z"/>
  </g>
  <line id="Baseline-S" style="fill:none;stroke:#27AAE1;opacity:1;stroke-width:0.5;" x1="263" x2="3036" y1="696" y2="696"/>
  <line id="Capline-S" style="fill:none;stroke:#27AAE1;opacity:1;stroke-width:0.5;" x1="263" x2="3036" y1="625.541" y2="625.541"/>
  <g id="H-reference" style="fill:#27AAE1;stroke:none;" transform="matrix(1 0 0 1 339 1126)">
   <path d="M0.993654 0L3.63775 0L29.3281-67.1323L30.0303-67.1323L30.0303-70.459L28.1226-70.459ZM11.6885-24.4799L46.9815-24.4799L46.2315-26.7285L12.4385-26.7285ZM55.1196 0L57.7637 0L30.6382-70.459L29.4326-70.459L29.4326-67.1323Z"/>
  </g>
  <line id="Baseline-M" style="fill:none;stroke:#27AAE1;opacity:1;stroke-width:0.5;" x1="263" x2="3036" y1="1126" y2="1126"/>
  <line id="Capline-M" style="fill:none;stroke:#27AAE1;opacity:1;stroke-width:0.5;" x1="263" x2="3036" y1="1055.54" y2="1055.54"/>
  <g id="H-reference" style="fill:#27AAE1;stroke:none;" transform="matrix(1 0 0 1 339 1556)">
   <path d="M0.993654 0L3.63775 0L29.3281-67.1323L30.0303-67.1323L30.0303-70.459L28.1226-70.459ZM11.6885-24.4799L46.9815-24.4799L46.2315-26.7285L12.4385-26.7285ZM55.1196 0L57.7637 0L30.6382-70.459L29.4326-70.459L29.4326-67.1323Z"/>
  </g>
  <line id="Baseline-L" style="fill:none;stroke:#27AAE1;opacity:1;stroke-width:0.5;" x1="263" x2="3036" y1="1556" y2="1556"/>
  <line id="Capline-L" style="fill:none;stroke:#27AAE1;opacity:1;stroke-width:0.5;" x1="263" x2="3036" y1="1485.54" y2="1485.54"/>
  <line id="left-margin-Regular-M" style="fill:none;stroke:#00AEEF;stroke-width:0.5;opacity:1.0;" x1="1388.74" x2="1388.74" y1="1030.79" y2="1150.12"/>
  <line id="right-margin-Regular-M" style="fill:none;stroke:#00AEEF;stroke-width:0.5;opacity:1.0;" x1="1510.95" x2="1510.95" y1="1030.79" y2="1150.12"/>
 </g>
 <g id="Symbols">
  <g id="Black-L" transform="matrix(1 0 0 1 2858.47 1556)">
   <path class="monochrome-0 SFSymbolsPreview000000" d="M35.3908-14.1901C35.3908-14.1901 58.3098-54.0901 69.2908-67.0101C78.0809-77.3501 90.2179-86.6201 101.53-91.8701C104.824-93.4001 118.193-97.4401 127.537-98.3701C130.011-98.6201 132.21-98.6501 133.889-98.3701C135.175-98.1601 136.182-97.7601 136.852-97.2001C137.599-96.5801 138.167-95.5901 138.524-94.3001C138.988-92.6201 139.114-90.3701 138.967-87.7801C138.414-78.0901 134.054-63.5401 130.959-57.7001C124.157-44.8601 116.822-36.1401 106.902-28.1201C94.0679-17.7501 53.6068 4.45985 53.6068 4.45985C53.2128 4.67985 52.7238 4.60985 52.4098 4.28985L35.5428-13.0002C35.2298-13.3201 35.1678-13.8001 35.3908-14.1901ZM61.7378-61.4101L39.4598-26.1801C39.2768-25.8901 38.9578-25.7201 38.6158-25.7201L13.4417-25.6901C13.1327-25.6901 12.8417-25.8301 12.6517-26.0701C12.4627-26.3201 12.3957-26.6301 12.4707-26.9301L21.3327-62.2001C21.4447-62.6401 21.8447-62.9601 22.3037-62.9601L60.8928-62.9501C61.2578-62.9501 61.5928-62.7501 61.7688-62.4301C61.9448-62.1101 61.9328-61.7201 61.7378-61.4101ZM102.67-19.9701L102.609 18.3698C102.609 18.8298 102.295 19.2198 101.85 19.3398L66.8968 27.9898C66.5988 28.0698 66.2828 27.9998 66.0408 27.8098C65.7988 27.6198 65.6568 27.3298 65.6558 27.0198L65.5918 0.779847C65.5908 0.419847 65.7778 0.0898473 66.0828-0.0901527L101.161-20.8301C101.47-21.0201 101.854-21.0201 102.166-20.8401C102.478-20.6601 102.67-20.3301 102.67-19.9701ZM106.17-77.6401C100.004-77.6401 94.9979-72.6301 94.9979-66.4701C94.9979-60.3001 100.004-55.2901 106.17-55.2901C112.336-55.2901 117.343-60.3001 117.343-66.4701C117.343-72.6301 112.336-77.6401 106.17-77.6401ZM35.4528 4.64985C36.2538 5.40985 36.7708 6.95985 36.9828 8.79985C37.4138 12.5198 36.8088 17.4798 36.8088 17.4798C36.7638 17.8498 36.5188 18.1598 36.1728 18.2998L13.9947 26.7698C13.6227 26.9098 13.2017 26.8098 12.9237 26.5298C12.6447 26.2498 12.5617 25.8198 12.7107 25.4498L21.3307 4.19985C21.4657 3.86985 21.7717 3.62985 22.1287 3.58985C22.1287 3.58985 27.2758 2.91985 31.1578 3.26985C33.0538 3.43985 34.6608 3.90985 35.4528 4.64985Z"/>
  </g>
  <g id="Heavy-L" transform="matrix(1 0 0 1 2561.76 1556)">
   <path class="monochrome-0 SFSymbolsPreview000000" d="M35.3908-14.1901C35.3908-14.1901 58.3098-54.0901 69.2908-67.0101C78.0809-77.3501 90.2179-86.6201 101.53-91.8701C104.824-93.4001 118.193-97.4401 127.537-98.3701C130.011-98.6201 132.21-98.6501 133.889-98.3701C135.175-98.1601 136.182-97.7601 136.852-97.2001C137.599-96.5801 138.167-95.5901 138.524-94.3001C138.988-92.6201 139.114-90.3701 138.967-87.7801C138.414-78.0901 134.054-63.5401 130.959-57.7001C124.157-44.8601 116.822-36.1401 106.902-28.1201C94.0679-17.7501 53.6068 4.45985 53.6068 4.45985C53.2128 4.67985 52.7238 4.60985 52.4098 4.28985L35.5428-13.0002C35.2298-13.3201 35.1678-13.8001 35.3908-14.1901ZM61.7378-61.4101L39.4598-26.1801C39.2768-25.8901 38.9578-25.7201 38.6158-25.7201L13.4417-25.6901C13.1327-25.6901 12.8417-25.8301 12.6517-26.0701C12.4627-26.3201 12.3957-26.6301 12.4707-26.9301L21.3327-62.2001C21.4447-62.6401 21.8447-62.9601 22.3037-62.9601L60.8928-62.9501C61.2578-62.9501 61.5928-62.7501 61.7688-62.4301C61.9448-62.1101 61.9328-61.7201 61.7378-61.4101ZM102.67-19.9701L102.609 18.3698C102.609 18.8298 102.295 19.2198 101.85 19.3398L66.8968 27.9898C66.5988 28.0698 66.2828 27.9998 66.0408 27.8098C65.7988 27.6198 65.6568 27.3298 65.6558 27.0198L65.5918 0.779847C65.5908 0.419847 65.7778 0.0898473 66.0828-0.0901527L101.161-20.8301C101.47-21.0201 101.854-21.0201 102.166-20.8401C102.478-20.6601 102.67-20.3301 102.67-19.9701ZM106.17-77.6401C100.004-77.6401 94.9979-72.6301 94.9979-66.4701C94.9979-60.3001 100.004-55.2901 106.17-55.2901C112.336-55.2901 117.343-60.3001 117.343-66.4701C117.343-72.6301 112.336-77.6401 106.17-77.6401ZM35.4528 4.64985C36.2538 5.40985 36.7708 6.95985 36.9828 8.79985C37.4138 12.5198 36.8088 17.4798 36.8088 17.4798C36.7638 17.8498 36.5188 18.1598 36.1728 18.2998L13.9947 26.7698C13.6227 26.9098 13.2017 26.8098 12.9237 26.5298C12.6447 26.2498 12.5617 25.8198 12.7107 25.4498L21.3307 4.19985C21.4657 3.86985 21.7717 3.62985 22.1287 3.58985C22.1287 3.58985 27.2758 2.91985 31.1578 3.26985C33.0538 3.43985 34.6608 3.90985 35.4528 4.64985Z"/>
  </g>
  <g id="Bold-L" transform="matrix(1 0 0 1 2265.04 1556)">
   <path class="monochrome-0 SFSymbolsPreview000000" d="M35.3908-14.1901C35.3908-14.1901 58.3098-54.0901 69.2908-67.0101C78.0809-77.3501 90.2179-86.6201 101.53-91.8701C104.824-93.4001 118.193-97.4401 127.537-98.3701C130.011-98.6201 132.21-98.6501 133.889-98.3701C135.175-98.1601 136.182-97.7601 136.852-97.2001C137.599-96.5801 138.167-95.5901 138.524-94.3001C138.988-92.6201 139.114-90.3701 138.967-87.7801C138.414-78.0901 134.054-63.5401 130.959-57.7001C124.157-44.8601 116.822-36.1401 106.902-28.1201C94.0679-17.7501 53.6068 4.45985 53.6068 4.45985C53.2128 4.67985 52.7238 4.60985 52.4098 4.28985L35.5428-13.0002C35.2298-13.3201 35.1678-13.8001 35.3908-14.1901ZM61.7378-61.4101L39.4598-26.1801C39.2768-25.8901 38.9578-25.7201 38.6158-25.7201L13.4417-25.6901C13.1327-25.6901 12.8417-25.8301 12.6517-26.0701C12.4627-26.3201 12.3957-26.6301 12.4707-26.9301L21.3327-62.2001C21.4447-62.6401 21.8447-62.9601 22.3037-62.9601L60.8928-62.9501C61.2578-62.9501 61.5928-62.7501 61.7688-62.4301C61.9448-62.1101 61.9328-61.7201 61.7378-61.4101ZM102.67-19.9701L102.609 18.3698C102.609 18.8298 102.295 19.2198 101.85 19.3398L66.8968 27.9898C66.5988 28.0698 66.2828 27.9998 66.0408 27.8098C65.7988 27.6198 65.6568 27.3298 65.6558 27.0198L65.5918 0.779847C65.5908 0.419847 65.7778 0.0898473 66.0828-0.0901527L101.161-20.8301C101.47-21.0201 101.854-21.0201 102.166-20.8401C102.478-20.6601 102.67-20.3301 102.67-19.9701ZM106.17-77.6401C100.004-77.6401 94.9979-72.6301 94.9979-66.4701C94.9979-60.3001 100.004-55.2901 106.17-55.2901C112.336-55.2901 117.343-60.3001 117.343-66.4701C117.343-72.6301 112.336-77.6401 106.17-77.6401ZM35.4528 4.64985C36.2538 5.40985 36.7708 6.95985 36.9828 8.79985C37.4138 12.5198 36.8088 17.4798 36.8088 17.4798C36.7638 17.8498 36.5188 18.1598 36.1728 18.2998L13.9947 26.7698C13.6227 26.9098 13.2017 26.8098 12.9237 26.5298C12.6447 26.2498 12.5617 25.8198 12.7107 25.4498L21.3307 4.19985C21.4657 3.86985 21.7717 3.62985 22.1287 3.58985C22.1287 3.58985 27.2758 2.91985 31.1578 3.26985C33.0538 3.43985 34.6608 3.90985 35.4528 4.64985Z"/>
  </g>
  <g id="Semibold-L" transform="matrix(1 0 0 1 1968.33 1556)">
   <path class="monochrome-0 SFSymbolsPreview000000" d="M35.3908-14.1901C35.3908-14.1901 58.3098-54.0901 69.2908-67.0101C78.0809-77.3501 90.2179-86.6201 101.53-91.8701C104.824-93.4001 118.193-97.4401 127.537-98.3701C130.011-98.6201 132.21-98.6501 133.889-98.3701C135.175-98.1601 136.182-97.7601 136.852-97.2001C137.599-96.5801 138.167-95.5901 138.524-94.3001C138.988-92.6201 139.114-90.3701 138.967-87.7801C138.414-78.0901 134.054-63.5401 130.959-57.7001C124.157-44.8601 116.822-36.1401 106.902-28.1201C94.0679-17.7501 53.6068 4.45985 53.6068 4.45985C53.2128 4.67985 52.7238 4.60985 52.4098 4.28985L35.5428-13.0002C35.2298-13.3201 35.1678-13.8001 35.3908-14.1901ZM61.7378-61.4101L39.4598-26.1801C39.2768-25.8901 38.9578-25.7201 38.6158-25.7201L13.4417-25.6901C13.1327-25.6901 12.8417-25.8301 12.6517-26.0701C12.4627-26.3201 12.3957-26.6301 12.4707-26.9301L21.3327-62.2001C21.4447-62.6401 21.8447-62.9601 22.3037-62.9601L60.8928-62.9501C61.2578-62.9501 61.5928-62.7501 61.7688-62.4301C61.9448-62.1101 61.9328-61.7201 61.7378-61.4101ZM102.67-19.9701L102.609 18.3698C102.609 18.8298 102.295 19.2198 101.85 19.3398L66.8968 27.9898C66.5988 28.0698 66.2828 27.9998 66.0408 27.8098C65.7988 27.6198 65.6568 27.3298 65.6558 27.0198L65.5918 0.779847C65.5908 0.419847 65.7778 0.0898473 66.0828-0.0901527L101.161-20.8301C101.47-21.0201 101.854-21.0201 102.166-20.8401C102.478-20.6601 102.67-20.3301 102.67-19.9701ZM106.17-77.6401C100.004-77.6401 94.9979-72.6301 94.9979-66.4701C94.9979-60.3001 100.004-55.2901 106.17-55.2901C112.336-55.2901 117.343-60.3001 117.343-66.4701C117.343-72.6301 112.336-77.6401 106.17-77.6401ZM35.4528 4.64985C36.2538 5.40985 36.7708 6.95985 36.9828 8.79985C37.4138 12.5198 36.8088 17.4798 36.8088 17.4798C36.7638 17.8498 36.5188 18.1598 36.1728 18.2998L13.9947 26.7698C13.6227 26.9098 13.2017 26.8098 12.9237 26.5298C12.6447 26.2498 12.5617 25.8198 12.7107 25.4498L21.3307 4.19985C21.4657 3.86985 21.7717 3.62985 22.1287 3.58985C22.1287 3.58985 27.2758 2.91985 31.1578 3.26985C33.0538 3.43985 34.6608 3.90985 35.4528 4.64985Z"/>
  </g>
  <g id="Medium-L" transform="matrix(1 0 0 1 1671.62 1556)">
   <path class="monochrome-0 SFSymbolsPreview000000" d="M35.3908-14.1901C35.3908-14.1901 58.3098-54.0901 69.2908-67.0101C78.0809-77.3501 90.2179-86.6201 101.53-91.8701C104.824-93.4001 118.193-97.4401 127.537-98.3701C130.011-98.6201 132.21-98.6501 133.889-98.3701C135.175-98.1601 136.182-97.7601 136.852-97.2001C137.599-96.5801 138.167-95.5901 138.524-94.3001C138.988-92.6201 139.114-90.3701 138.967-87.7801C138.414-78.0901 134.054-63.5401 130.959-57.7001C124.157-44.8601 116.822-36.1401 106.902-28.1201C94.0679-17.7501 53.6068 4.45985 53.6068 4.45985C53.2128 4.67985 52.7238 4.60985 52.4098 4.28985L35.5428-13.0002C35.2298-13.3201 35.1678-13.8001 35.3908-14.1901ZM61.7378-61.4101L39.4598-26.1801C39.2768-25.8901 38.9578-25.7201 38.6158-25.7201L13.4417-25.6901C13.1327-25.6901 12.8417-25.8301 12.6517-26.0701C12.4627-26.3201 12.3957-26.6301 12.4707-26.9301L21.3327-62.2001C21.4447-62.6401 21.8447-62.9601 22.3037-62.9601L60.8928-62.9501C61.2578-62.9501 61.5928-62.7501 61.7688-62.4301C61.9448-62.1101 61.9328-61.7201 61.7378-61.4101ZM102.67-19.9701L102.609 18.3698C102.609 18.8298 102.295 19.2198 101.85 19.3398L66.8968 27.9898C66.5988 28.0698 66.2828 27.9998 66.0408 27.8098C65.7988 27.6198 65.6568 27.3298 65.6558 27.0198L65.5918 0.779847C65.5908 0.419847 65.7778 0.0898473 66.0828-0.0901527L101.161-20.8301C101.47-21.0201 101.854-21.0201 102.166-20.8401C102.478-20.6601 102.67-20.3301 102.67-19.9701ZM106.17-77.6401C100.004-77.6401 94.9979-72.6301 94.9979-66.4701C94.9979-60.3001 100.004-55.2901 106.17-55.2901C112.336-55.2901 117.343-60.3001 117.343-66.4701C117.343-72.6301 112.336-77.6401 106.17-77.6401ZM35.4528 4.64985C36.2538 5.40985 36.7708 6.95985 36.9828 8.79985C37.4138 12.5198 36.8088 17.4798 36.8088 17.4798C36.7638 17.8498 36.5188 18.1598 36.1728 18.2998L13.9947 26.7698C13.6227 26.9098 13.2017 26.8098 12.9237 26.5298C12.6447 26.2498 12.5617 25.8198 12.7107 25.4498L21.3307 4.19985C21.4657 3.86985 21.7717 3.62985 22.1287 3.58985C22.1287 3.58985 27.2758 2.91985 31.1578 3.26985C33.0538 3.43985 34.6608 3.90985 35.4528 4.64985Z"/>
  </g>
  <g id="Regular-L" transform="matrix(1 0 0 1 1374.91 1556)">
   <path class="monochrome-0 SFSymbolsPreview000000" d="M35.3908-14.1901C35.3908-14.1901 58.3098-54.0901 69.2908-67.0101C78.0809-77.3501 90.2179-86.6201 101.53-91.8701C104.824-93.4001 118.193-97.4401 127.537-98.3701C130.011-98.6201 132.21-98.6501 133.889-98.3701C135.175-98.1601 136.182-97.7601 136.852-97.2001C137.599-96.5801 138.167-95.5901 138.524-94.3001C138.988-92.6201 139.114-90.3701 138.967-87.7801C138.414-78.0901 134.054-63.5401 130.959-57.7001C124.157-44.8601 116.822-36.1401 106.902-28.1201C94.0679-17.7501 53.6068 4.45985 53.6068 4.45985C53.2128 4.67985 52.7238 4.60985 52.4098 4.28985L35.5428-13.0002C35.2298-13.3201 35.1678-13.8001 35.3908-14.1901ZM61.7378-61.4101L39.4598-26.1801C39.2768-25.8901 38.9578-25.7201 38.6158-25.7201L13.4417-25.6901C13.1327-25.6901 12.8417-25.8301 12.6517-26.0701C12.4627-26.3201 12.3957-26.6301 12.4707-26.9301L21.3327-62.2001C21.4447-62.6401 21.8447-62.9601 22.3037-62.9601L60.8928-62.9501C61.2578-62.9501 61.5928-62.7501 61.7688-62.4301C61.9448-62.1101 61.9328-61.7201 61.7378-61.4101ZM102.67-19.9701L102.609 18.3698C102.609 18.8298 102.295 19.2198 101.85 19.3398L66.8968 27.9898C66.5988 28.0698 66.2828 27.9998 66.0408 27.8098C65.7988 27.6198 65.6568 27.3298 65.6558 27.0198L65.5918 0.779847C65.5908 0.419847 65.7778 0.0898473 66.0828-0.0901527L101.161-20.8301C101.47-21.0201 101.854-21.0201 102.166-20.8401C102.478-20.6601 102.67-20.3301 102.67-19.9701ZM106.17-77.6401C100.004-77.6401 94.9979-72.6301 94.9979-66.4701C94.9979-60.3001 100.004-55.2901 106.17-55.2901C112.336-55.2901 117.343-60.3001 117.343-66.4701C117.343-72.6301 112.336-77.6401 106.17-77.6401ZM35.4528 4.64985C36.2538 5.40985 36.7708 6.95985 36.9828 8.79985C37.4138 12.5198 36.8088 17.4798 36.8088 17.4798C36.7638 17.8498 36.5188 18.1598 36.1728 18.2998L13.9947 26.7698C13.6227 26.9098 13.2017 26.8098 12.9237 26.5298C12.6447 26.2498 12.5617 25.8198 12.7107 25.4498L21.3307 4.19985C21.4657 3.86985 21.7717 3.62985 22.1287 3.58985C22.1287 3.58985 27.2758 2.91985 31.1578 3.26985C33.0538 3.43985 34.6608 3.90985 35.4528 4.64985Z"/>
  </g>
  <g id="Light-L" transform="matrix(1 0 0 1 1078.2 1556)">
   <path class="monochrome-0 SFSymbolsPreview000000" d="M35.3908-14.1901C35.3908-14.1901 58.3098-54.0901 69.2908-67.0101C78.0809-77.3501 90.2179-86.6201 101.53-91.8701C104.824-93.4001 118.193-97.4401 127.537-98.3701C130.011-98.6201 132.21-98.6501 133.889-98.3701C135.175-98.1601 136.182-97.7601 136.852-97.2001C137.599-96.5801 138.167-95.5901 138.524-94.3001C138.988-92.6201 139.114-90.3701 138.967-87.7801C138.414-78.0901 134.054-63.5401 130.959-57.7001C124.157-44.8601 116.822-36.1401 106.902-28.1201C94.0679-17.7501 53.6068 4.45985 53.6068 4.45985C53.2128 4.67985 52.7238 4.60985 52.4098 4.28985L35.5428-13.0002C35.2298-13.3201 35.1678-13.8001 35.3908-14.1901ZM61.7378-61.4101L39.4598-26.1801C39.2768-25.8901 38.9578-25.7201 38.6158-25.7201L13.4417-25.6901C13.1327-25.6901 12.8417-25.8301 12.6517-26.0701C12.4627-26.3201 12.3957-26.6301 12.4707-26.9301L21.3327-62.2001C21.4447-62.6401 21.8447-62.9601 22.3037-62.9601L60.8928-62.9501C61.2578-62.9501 61.5928-62.7501 61.7688-62.4301C61.9448-62.1101 61.9328-61.7201 61.7378-61.4101ZM102.67-19.9701L102.609 18.3698C102.609 18.8298 102.295 19.2198 101.85 19.3398L66.8968 27.9898C66.5988 28.0698 66.2828 27.9998 66.0408 27.8098C65.7988 27.6198 65.6568 27.3298 65.6558 27.0198L65.5918 0.779847C65.5908 0.419847 65.7778 0.0898473 66.0828-0.0901527L101.161-20.8301C101.47-21.0201 101.854-21.0201 102.166-20.8401C102.478-20.6601 102.67-20.3301 102.67-19.9701ZM106.17-77.6401C100.004-77.6401 94.9979-72.6301 94.9979-66.4701C94.9979-60.3001 100.004-55.2901 106.17-55.2901C112.336-55.2901 117.343-60.3001 117.343-66.4701C117.343-72.6301 112.336-77.6401 106.17-77.6401ZM35.4528 4.64985C36.2538 5.40985 36.7708 6.95985 36.9828 8.79985C37.4138 12.5198 36.8088 17.4798 36.8088 17.4798C36.7638 17.8498 36.5188 18.1598 36.1728 18.2998L13.9947 26.7698C13.6227 26.9098 13.2017 26.8098 12.9237 26.5298C12.6447 26.2498 12.5617 25.8198 12.7107 25.4498L21.3307 4.19985C21.4657 3.86985 21.7717 3.62985 22.1287 3.58985C22.1287 3.58985 27.2758 2.91985 31.1578 3.26985C33.0538 3.43985 34.6608 3.90985 35.4528 4.64985Z"/>
  </g>
  <g id="Thin-L" transform="matrix(1 0 0 1 781.488 1556)">
   <path class="monochrome-0 SFSymbolsPreview000000" d="M35.3908-14.1901C35.3908-14.1901 58.3098-54.0901 69.2908-67.0101C78.0809-77.3501 90.2179-86.6201 101.53-91.8701C104.824-93.4001 118.193-97.4401 127.537-98.3701C130.011-98.6201 132.21-98.6501 133.889-98.3701C135.175-98.1601 136.182-97.7601 136.852-97.2001C137.599-96.5801 138.167-95.5901 138.524-94.3001C138.988-92.6201 139.114-90.3701 138.967-87.7801C138.414-78.0901 134.054-63.5401 130.959-57.7001C124.157-44.8601 116.822-36.1401 106.902-28.1201C94.0679-17.7501 53.6068 4.45985 53.6068 4.45985C53.2128 4.67985 52.7238 4.60985 52.4098 4.28985L35.5428-13.0002C35.2298-13.3201 35.1678-13.8001 35.3908-14.1901ZM61.7378-61.4101L39.4598-26.1801C39.2768-25.8901 38.9578-25.7201 38.6158-25.7201L13.4417-25.6901C13.1327-25.6901 12.8417-25.8301 12.6517-26.0701C12.4627-26.3201 12.3957-26.6301 12.4707-26.9301L21.3327-62.2001C21.4447-62.6401 21.8447-62.9601 22.3037-62.9601L60.8928-62.9501C61.2578-62.9501 61.5928-62.7501 61.7688-62.4301C61.9448-62.1101 61.9328-61.7201 61.7378-61.4101ZM102.67-19.9701L102.609 18.3698C102.609 18.8298 102.295 19.2198 101.85 19.3398L66.8968 27.9898C66.5988 28.0698 66.2828 27.9998 66.0408 27.8098C65.7988 27.6198 65.6568 27.3298 65.6558 27.0198L65.5918 0.779847C65.5908 0.419847 65.7778 0.0898473 66.0828-0.0901527L101.161-20.8301C101.47-21.0201 101.854-21.0201 102.166-20.8401C102.478-20.6601 102.67-20.3301 102.67-19.9701ZM106.17-77.6401C100.004-77.6401 94.9979-72.6301 94.9979-66.4701C94.9979-60.3001 100.004-55.2901 106.17-55.2901C112.336-55.2901 117.343-60.3001 117.343-66.4701C117.343-72.6301 112.336-77.6401 106.17-77.6401ZM35.4528 4.64985C36.2538 5.40985 36.7708 6.95985 36.9828 8.79985C37.4138 12.5198 36.8088 17.4798 36.8088 17.4798C36.7638 17.8498 36.5188 18.1598 36.1728 18.2998L13.9947 26.7698C13.6227 26.9098 13.2017 26.8098 12.9237 26.5298C12.6447 26.2498 12.5617 25.8198 12.7107 25.4498L21.3307 4.19985C21.4657 3.86985 21.7717 3.62985 22.1287 3.58985C22.1287 3.58985 27.2758 2.91985 31.1578 3.26985C33.0538 3.43985 34.6608 3.90985 35.4528 4.64985Z"/>
  </g>
  <g id="Ultralight-L" transform="matrix(1 0 0 1 484.777 1556)">
   <path class="monochrome-0 SFSymbolsPreview000000" d="M35.3908-14.1901C35.3908-14.1901 58.3098-54.0901 69.2908-67.0101C78.0809-77.3501 90.2179-86.6201 101.53-91.8701C104.824-93.4001 118.193-97.4401 127.537-98.3701C130.011-98.6201 132.21-98.6501 133.889-98.3701C135.175-98.1601 136.182-97.7601 136.852-97.2001C137.599-96.5801 138.167-95.5901 138.524-94.3001C138.988-92.6201 139.114-90.3701 138.967-87.7801C138.414-78.0901 134.054-63.5401 130.959-57.7001C124.157-44.8601 116.822-36.1401 106.902-28.1201C94.0679-17.7501 53.6068 4.45985 53.6068 4.45985C53.2128 4.67985 52.7238 4.60985 52.4098 4.28985L35.5428-13.0002C35.2298-13.3201 35.1678-13.8001 35.3908-14.1901ZM61.7378-61.4101L39.4598-26.1801C39.2768-25.8901 38.9578-25.7201 38.6158-25.7201L13.4417-25.6901C13.1327-25.6901 12.8417-25.8301 12.6517-26.0701C12.4627-26.3201 12.3957-26.6301 12.4707-26.9301L21.3327-62.2001C21.4447-62.6401 21.8447-62.9601 22.3037-62.9601L60.8928-62.9501C61.2578-62.9501 61.5928-62.7501 61.7688-62.4301C61.9448-62.1101 61.9328-61.7201 61.7378-61.4101ZM102.67-19.9701L102.609 18.3698C102.609 18.8298 102.295 19.2198 101.85 19.3398L66.8968 27.9898C66.5988 28.0698 66.2828 27.9998 66.0408 27.8098C65.7988 27.6198 65.6568 27.3298 65.6558 27.0198L65.5918 0.779847C65.5908 0.419847 65.7778 0.0898473 66.0828-0.0901527L101.161-20.8301C101.47-21.0201 101.854-21.0201 102.166-20.8401C102.478-20.6601 102.67-20.3301 102.67-19.9701ZM106.17-77.6401C100.004-77.6401 94.9979-72.6301 94.9979-66.4701C94.9979-60.3001 100.004-55.2901 106.17-55.2901C112.336-55.2901 117.343-60.3001 117.343-66.4701C117.343-72.6301 112.336-77.6401 106.17-77.6401ZM35.4528 4.64985C36.2538 5.40985 36.7708 6.95985 36.9828 8.79985C37.4138 12.5198 36.8088 17.4798 36.8088 17.4798C36.7638 17.8498 36.5188 18.1598 36.1728 18.2998L13.9947 26.7698C13.6227 26.9098 13.2017 26.8098 12.9237 26.5298C12.6447 26.2498 12.5617 25.8198 12.7107 25.4498L21.3307 4.19985C21.4657 3.86985 21.7717 3.62985 22.1287 3.58985C22.1287 3.58985 27.2758 2.91985 31.1578 3.26985C33.0538 3.43985 34.6608 3.90985 35.4528 4.64985Z"/>
  </g>
  <g id="Black-M" transform="matrix(1 0 0 1 2872.3 1126)">
   <path class="monochrome-0 SFSymbolsPreview000000" d="M30.3264-16.1414C30.3264-16.1414 48.1735-47.1913 56.7235-57.2413C63.5825-65.3013 73.0545-72.5313 81.8816-76.6212C84.4526-77.8212 94.8906-80.9712 102.186-81.7012C104.133-81.8912 105.865-81.9112 107.186-81.7012C108.233-81.5312 109.052-81.1912 109.597-80.7412C110.209-80.2312 110.678-79.4312 110.97-78.3712C111.336-77.0412 111.439-75.2712 111.322-73.2313C110.891-65.6613 107.484-54.3113 105.067-49.7513C99.7586-39.7413 94.0346-32.9413 86.2936-26.6914C76.3006-18.6214 44.7964-1.34142 44.7964-1.34142C44.4034-1.12142 43.9144-1.19142 43.6004-1.51142L30.4774-14.9514C30.1654-15.2714 30.1034-15.7614 30.3264-16.1414ZM50.4505-52.6313L33.2754-25.2414C33.0924-24.9514 32.7734-24.7714 32.4294-24.7714L13.4423-24.7514C13.1333-24.7514 12.8423-24.8914 12.6523-25.1314C12.4623-25.3814 12.3953-25.6914 12.4713-25.9914L19.3663-53.4113C19.4783-53.8613 19.8783-54.1713 20.3364-54.1713L49.6035-54.1613C49.9675-54.1613 50.3025-53.9613 50.4785-53.6413C50.6545-53.3313 50.6435-52.9413 50.4505-52.6313ZM83.0836-19.6414L83.0366 9.27855C83.0356 9.73855 82.7226 10.1286 82.2766 10.2486L55.0825 16.9785C54.7845 17.0485 54.4695 16.9785 54.2275 16.7885C53.9855 16.5985 53.8435 16.3085 53.8425 16.0085L53.8025-3.42142C53.8015-3.78141 53.9875-4.11141 54.2915-4.29141L81.5726-20.5014C81.8816-20.6814 82.2656-20.6914 82.5786-20.5114C82.8906-20.3314 83.0836-20.0014 83.0836-19.6414ZM85.5846-65.5813C80.6646-65.5813 76.6706-61.5913 76.6706-56.6713C76.6706-51.7613 80.6646-47.7613 85.5846-47.7613C90.5046-47.7613 94.4986-51.7613 94.4986-56.6713C94.4986-61.5913 90.5046-65.5813 85.5846-65.5813ZM30.7184-1.54142C31.3694-0.931422 31.8054 0.318575 31.9774 1.80857C32.3154 4.72857 31.8414 8.61856 31.8414 8.61856C31.7964 8.98856 31.5514 9.29855 31.2054 9.42855L13.9513 16.0085C13.5793 16.1485 13.1583 16.0585 12.8803 15.7785C12.6013 15.4885 12.5183 15.0685 12.6683 14.6985L19.3743-1.82142C19.5093-2.15142 19.8143-2.39142 20.1723-2.43142C20.1723-2.43142 24.2034-2.95142 27.2444-2.68142C28.7804-2.54142 30.0764-2.15142 30.7184-1.54142Z"/>
  </g>
  <g id="Heavy-M" transform="matrix(1 0 0 1 2575.58 1126)">
   <path class="monochrome-0 SFSymbolsPreview000000" d="M30.3264-16.1414C30.3264-16.1414 48.1735-47.1913 56.7235-57.2413C63.5825-65.3013 73.0545-72.5313 81.8816-76.6212C84.4526-77.8212 94.8906-80.9712 102.186-81.7012C104.133-81.8912 105.865-81.9112 107.186-81.7012C108.233-81.5312 109.052-81.1912 109.597-80.7412C110.209-80.2312 110.678-79.4312 110.97-78.3712C111.336-77.0412 111.439-75.2712 111.322-73.2313C110.891-65.6613 107.484-54.3113 105.067-49.7513C99.7586-39.7413 94.0346-32.9413 86.2936-26.6914C76.3006-18.6214 44.7964-1.34142 44.7964-1.34142C44.4034-1.12142 43.9144-1.19142 43.6004-1.51142L30.4774-14.9514C30.1654-15.2714 30.1034-15.7614 30.3264-16.1414ZM50.4505-52.6313L33.2754-25.2414C33.0924-24.9514 32.7734-24.7714 32.4294-24.7714L13.4423-24.7514C13.1333-24.7514 12.8423-24.8914 12.6523-25.1314C12.4623-25.3814 12.3953-25.6914 12.4713-25.9914L19.3663-53.4113C19.4783-53.8613 19.8783-54.1713 20.3364-54.1713L49.6035-54.1613C49.9675-54.1613 50.3025-53.9613 50.4785-53.6413C50.6545-53.3313 50.6435-52.9413 50.4505-52.6313ZM83.0836-19.6414L83.0366 9.27855C83.0356 9.73855 82.7226 10.1286 82.2766 10.2486L55.0825 16.9785C54.7845 17.0485 54.4695 16.9785 54.2275 16.7885C53.9855 16.5985 53.8435 16.3085 53.8425 16.0085L53.8025-3.42142C53.8015-3.78141 53.9875-4.11141 54.2915-4.29141L81.5726-20.5014C81.8816-20.6814 82.2656-20.6914 82.5786-20.5114C82.8906-20.3314 83.0836-20.0014 83.0836-19.6414ZM85.5846-65.5813C80.6646-65.5813 76.6706-61.5913 76.6706-56.6713C76.6706-51.7613 80.6646-47.7613 85.5846-47.7613C90.5046-47.7613 94.4986-51.7613 94.4986-56.6713C94.4986-61.5913 90.5046-65.5813 85.5846-65.5813ZM30.7184-1.54142C31.3694-0.931422 31.8054 0.318575 31.9774 1.80857C32.3154 4.72857 31.8414 8.61856 31.8414 8.61856C31.7964 8.98856 31.5514 9.29855 31.2054 9.42855L13.9513 16.0085C13.5793 16.1485 13.1583 16.0585 12.8803 15.7785C12.6013 15.4885 12.5183 15.0685 12.6683 14.6985L19.3743-1.82142C19.5093-2.15142 19.8143-2.39142 20.1723-2.43142C20.1723-2.43142 24.2034-2.95142 27.2444-2.68142C28.7804-2.54142 30.0764-2.15142 30.7184-1.54142Z"/>
  </g>
  <g id="Bold-M" transform="matrix(1 0 0 1 2278.87 1126)">
   <path class="monochrome-0 SFSymbolsPreview000000" d="M30.3264-16.1414C30.3264-16.1414 48.1735-47.1913 56.7235-57.2413C63.5825-65.3013 73.0545-72.5313 81.8816-76.6212C84.4526-77.8212 94.8906-80.9712 102.186-81.7012C104.133-81.8912 105.865-81.9112 107.186-81.7012C108.233-81.5312 109.052-81.1912 109.597-80.7412C110.209-80.2312 110.678-79.4312 110.97-78.3712C111.336-77.0412 111.439-75.2712 111.322-73.2313C110.891-65.6613 107.484-54.3113 105.067-49.7513C99.7586-39.7413 94.0346-32.9413 86.2936-26.6914C76.3006-18.6214 44.7964-1.34142 44.7964-1.34142C44.4034-1.12142 43.9144-1.19142 43.6004-1.51142L30.4774-14.9514C30.1654-15.2714 30.1034-15.7614 30.3264-16.1414ZM50.4505-52.6313L33.2754-25.2414C33.0924-24.9514 32.7734-24.7714 32.4294-24.7714L13.4423-24.7514C13.1333-24.7514 12.8423-24.8914 12.6523-25.1314C12.4623-25.3814 12.3953-25.6914 12.4713-25.9914L19.3663-53.4113C19.4783-53.8613 19.8783-54.1713 20.3364-54.1713L49.6035-54.1613C49.9675-54.1613 50.3025-53.9613 50.4785-53.6413C50.6545-53.3313 50.6435-52.9413 50.4505-52.6313ZM83.0836-19.6414L83.0366 9.27855C83.0356 9.73855 82.7226 10.1286 82.2766 10.2486L55.0825 16.9785C54.7845 17.0485 54.4695 16.9785 54.2275 16.7885C53.9855 16.5985 53.8435 16.3085 53.8425 16.0085L53.8025-3.42142C53.8015-3.78141 53.9875-4.11141 54.2915-4.29141L81.5726-20.5014C81.8816-20.6814 82.2656-20.6914 82.5786-20.5114C82.8906-20.3314 83.0836-20.0014 83.0836-19.6414ZM85.5846-65.5813C80.6646-65.5813 76.6706-61.5913 76.6706-56.6713C76.6706-51.7613 80.6646-47.7613 85.5846-47.7613C90.5046-47.7613 94.4986-51.7613 94.4986-56.6713C94.4986-61.5913 90.5046-65.5813 85.5846-65.5813ZM30.7184-1.54142C31.3694-0.931422 31.8054 0.318575 31.9774 1.80857C32.3154 4.72857 31.8414 8.61856 31.8414 8.61856C31.7964 8.98856 31.5514 9.29855 31.2054 9.42855L13.9513 16.0085C13.5793 16.1485 13.1583 16.0585 12.8803 15.7785C12.6013 15.4885 12.5183 15.0685 12.6683 14.6985L19.3743-1.82142C19.5093-2.15142 19.8143-2.39142 20.1723-2.43142C20.1723-2.43142 24.2034-2.95142 27.2444-2.68142C28.7804-2.54142 30.0764-2.15142 30.7184-1.54142Z"/>
  </g>
  <g id="Semibold-M" transform="matrix(1 0 0 1 1982.16 1126)">
   <path class="monochrome-0 SFSymbolsPreview000000" d="M30.3264-16.1414C30.3264-16.1414 48.1735-47.1913 56.7235-57.2413C63.5825-65.3013 73.0545-72.5313 81.8816-76.6212C84.4526-77.8212 94.8906-80.9712 102.186-81.7012C104.133-81.8912 105.865-81.9112 107.186-81.7012C108.233-81.5312 109.052-81.1912 109.597-80.7412C110.209-80.2312 110.678-79.4312 110.97-78.3712C111.336-77.0412 111.439-75.2712 111.322-73.2313C110.891-65.6613 107.484-54.3113 105.067-49.7513C99.7586-39.7413 94.0346-32.9413 86.2936-26.6914C76.3006-18.6214 44.7964-1.34142 44.7964-1.34142C44.4034-1.12142 43.9144-1.19142 43.6004-1.51142L30.4774-14.9514C30.1654-15.2714 30.1034-15.7614 30.3264-16.1414ZM50.4505-52.6313L33.2754-25.2414C33.0924-24.9514 32.7734-24.7714 32.4294-24.7714L13.4423-24.7514C13.1333-24.7514 12.8423-24.8914 12.6523-25.1314C12.4623-25.3814 12.3953-25.6914 12.4713-25.9914L19.3663-53.4113C19.4783-53.8613 19.8783-54.1713 20.3364-54.1713L49.6035-54.1613C49.9675-54.1613 50.3025-53.9613 50.4785-53.6413C50.6545-53.3313 50.6435-52.9413 50.4505-52.6313ZM83.0836-19.6414L83.0366 9.27855C83.0356 9.73855 82.7226 10.1286 82.2766 10.2486L55.0825 16.9785C54.7845 17.0485 54.4695 16.9785 54.2275 16.7885C53.9855 16.5985 53.8435 16.3085 53.8425 16.0085L53.8025-3.42142C53.8015-3.78141 53.9875-4.11141 54.2915-4.29141L81.5726-20.5014C81.8816-20.6814 82.2656-20.6914 82.5786-20.5114C82.8906-20.3314 83.0836-20.0014 83.0836-19.6414ZM85.5846-65.5813C80.6646-65.5813 76.6706-61.5913 76.6706-56.6713C76.6706-51.7613 80.6646-47.7613 85.5846-47.7613C90.5046-47.7613 94.4986-51.7613 94.4986-56.6713C94.4986-61.5913 90.5046-65.5813 85.5846-65.5813ZM30.7184-1.54142C31.3694-0.931422 31.8054 0.318575 31.9774 1.80857C32.3154 4.72857 31.8414 8.61856 31.8414 8.61856C31.7964 8.98856 31.5514 9.29855 31.2054 9.42855L13.9513 16.0085C13.5793 16.1485 13.1583 16.0585 12.8803 15.7785C12.6013 15.4885 12.5183 15.0685 12.6683 14.6985L19.3743-1.82142C19.5093-2.15142 19.8143-2.39142 20.1723-2.43142C20.1723-2.43142 24.2034-2.95142 27.2444-2.68142C28.7804-2.54142 30.0764-2.15142 30.7184-1.54142Z"/>
  </g>
  <g id="Medium-M" transform="matrix(1 0 0 1 1685.45 1126)">
   <path class="monochrome-0 SFSymbolsPreview000000" d="M30.3264-16.1414C30.3264-16.1414 48.1735-47.1913 56.7235-57.2413C63.5825-65.3013 73.0545-72.5313 81.8816-76.6212C84.4526-77.8212 94.8906-80.9712 102.186-81.7012C104.133-81.8912 105.865-81.9112 107.186-81.7012C108.233-81.5312 109.052-81.1912 109.597-80.7412C110.209-80.2312 110.678-79.4312 110.97-78.3712C111.336-77.0412 111.439-75.2712 111.322-73.2313C110.891-65.6613 107.484-54.3113 105.067-49.7513C99.7586-39.7413 94.0346-32.9413 86.2936-26.6914C76.3006-18.6214 44.7964-1.34142 44.7964-1.34142C44.4034-1.12142 43.9144-1.19142 43.6004-1.51142L30.4774-14.9514C30.1654-15.2714 30.1034-15.7614 30.3264-16.1414ZM50.4505-52.6313L33.2754-25.2414C33.0924-24.9514 32.7734-24.7714 32.4294-24.7714L13.4423-24.7514C13.1333-24.7514 12.8423-24.8914 12.6523-25.1314C12.4623-25.3814 12.3953-25.6914 12.4713-25.9914L19.3663-53.4113C19.4783-53.8613 19.8783-54.1713 20.3364-54.1713L49.6035-54.1613C49.9675-54.1613 50.3025-53.9613 50.4785-53.6413C50.6545-53.3313 50.6435-52.9413 50.4505-52.6313ZM83.0836-19.6414L83.0366 9.27855C83.0356 9.73855 82.7226 10.1286 82.2766 10.2486L55.0825 16.9785C54.7845 17.0485 54.4695 16.9785 54.2275 16.7885C53.9855 16.5985 53.8435 16.3085 53.8425 16.0085L53.8025-3.42142C53.8015-3.78141 53.9875-4.11141 54.2915-4.29141L81.5726-20.5014C81.8816-20.6814 82.2656-20.6914 82.5786-20.5114C82.8906-20.3314 83.0836-20.0014 83.0836-19.6414ZM85.5846-65.5813C80.6646-65.5813 76.6706-61.5913 76.6706-56.6713C76.6706-51.7613 80.6646-47.7613 85.5846-47.7613C90.5046-47.7613 94.4986-51.7613 94.4986-56.6713C94.4986-61.5913 90.5046-65.5813 85.5846-65.5813ZM30.7184-1.54142C31.3694-0.931422 31.8054 0.318575 31.9774 1.80857C32.3154 4.72857 31.8414 8.61856 31.8414 8.61856C31.7964 8.98856 31.5514 9.29855 31.2054 9.42855L13.9513 16.0085C13.5793 16.1485 13.1583 16.0585 12.8803 15.7785C12.6013 15.4885 12.5183 15.0685 12.6683 14.6985L19.3743-1.82142C19.5093-2.15142 19.8143-2.39142 20.1723-2.43142C20.1723-2.43142 24.2034-2.95142 27.2444-2.68142C28.7804-2.54142 30.0764-2.15142 30.7184-1.54142Z"/>
  </g>
  <g id="Regular-M" transform="matrix(1 0 0 1 1388.74 1126)">
   <path class="monochrome-0 SFSymbolsPreview000000" d="M30.3264-16.1414C30.3264-16.1414 48.1735-47.1913 56.7235-57.2413C63.5825-65.3013 73.0545-72.5313 81.8816-76.6212C84.4526-77.8212 94.8906-80.9712 102.186-81.7012C104.133-81.8912 105.865-81.9112 107.186-81.7012C108.233-81.5312 109.052-81.1912 109.597-80.7412C110.209-80.2312 110.678-79.4312 110.97-78.3712C111.336-77.0412 111.439-75.2712 111.322-73.2313C110.891-65.6613 107.484-54.3113 105.067-49.7513C99.7586-39.7413 94.0346-32.9413 86.2936-26.6914C76.3006-18.6214 44.7964-1.34142 44.7964-1.34142C44.4034-1.12142 43.9144-1.19142 43.6004-1.51142L30.4774-14.9514C30.1654-15.2714 30.1034-15.7614 30.3264-16.1414ZM50.4505-52.6313L33.2754-25.2414C33.0924-24.9514 32.7734-24.7714 32.4294-24.7714L13.4423-24.7514C13.1333-24.7514 12.8423-24.8914 12.6523-25.1314C12.4623-25.3814 12.3953-25.6914 12.4713-25.9914L19.3663-53.4113C19.4783-53.8613 19.8783-54.1713 20.3364-54.1713L49.6035-54.1613C49.9675-54.1613 50.3025-53.9613 50.4785-53.6413C50.6545-53.3313 50.6435-52.9413 50.4505-52.6313ZM83.0836-19.6414L83.0366 9.27855C83.0356 9.73855 82.7226 10.1286 82.2766 10.2486L55.0825 16.9785C54.7845 17.0485 54.4695 16.9785 54.2275 16.7885C53.9855 16.5985 53.8435 16.3085 53.8425 16.0085L53.8025-3.42142C53.8015-3.78141 53.9875-4.11141 54.2915-4.29141L81.5726-20.5014C81.8816-20.6814 82.2656-20.6914 82.5786-20.5114C82.8906-20.3314 83.0836-20.0014 83.0836-19.6414ZM85.5846-65.5813C80.6646-65.5813 76.6706-61.5913 76.6706-56.6713C76.6706-51.7613 80.6646-47.7613 85.5846-47.7613C90.5046-47.7613 94.4986-51.7613 94.4986-56.6713C94.4986-61.5913 90.5046-65.5813 85.5846-65.5813ZM30.7184-1.54142C31.3694-0.931422 31.8054 0.318575 31.9774 1.80857C32.3154 4.72857 31.8414 8.61856 31.8414 8.61856C31.7964 8.98856 31.5514 9.29855 31.2054 9.42855L13.9513 16.0085C13.5793 16.1485 13.1583 16.0585 12.8803 15.7785C12.6013 15.4885 12.5183 15.0685 12.6683 14.6985L19.3743-1.82142C19.5093-2.15142 19.8143-2.39142 20.1723-2.43142C20.1723-2.43142 24.2034-2.95142 27.2444-2.68142C28.7804-2.54142 30.0764-2.15142 30.7184-1.54142Z"/>
  </g>
  <g id="Light-M" transform="matrix(1 0 0 1 1092.03 1126)">
   <path class="monochrome-0 SFSymbolsPreview000000" d="M30.3264-16.1414C30.3264-16.1414 48.1735-47.1913 56.7235-57.2413C63.5825-65.3013 73.0545-72.5313 81.8816-76.6212C84.4526-77.8212 94.8906-80.9712 102.186-81.7012C104.133-81.8912 105.865-81.9112 107.186-81.7012C108.233-81.5312 109.052-81.1912 109.597-80.7412C110.209-80.2312 110.678-79.4312 110.97-78.3712C111.336-77.0412 111.439-75.2712 111.322-73.2313C110.891-65.6613 107.484-54.3113 105.067-49.7513C99.7586-39.7413 94.0346-32.9413 86.2936-26.6914C76.3006-18.6214 44.7964-1.34142 44.7964-1.34142C44.4034-1.12142 43.9144-1.19142 43.6004-1.51142L30.4774-14.9514C30.1654-15.2714 30.1034-15.7614 30.3264-16.1414ZM50.4505-52.6313L33.2754-25.2414C33.0924-24.9514 32.7734-24.7714 32.4294-24.7714L13.4423-24.7514C13.1333-24.7514 12.8423-24.8914 12.6523-25.1314C12.4623-25.3814 12.3953-25.6914 12.4713-25.9914L19.3663-53.4113C19.4783-53.8613 19.8783-54.1713 20.3364-54.1713L49.6035-54.1613C49.9675-54.1613 50.3025-53.9613 50.4785-53.6413C50.6545-53.3313 50.6435-52.9413 50.4505-52.6313ZM83.0836-19.6414L83.0366 9.27855C83.0356 9.73855 82.7226 10.1286 82.2766 10.2486L55.0825 16.9785C54.7845 17.0485 54.4695 16.9785 54.2275 16.7885C53.9855 16.5985 53.8435 16.3085 53.8425 16.0085L53.8025-3.42142C53.8015-3.78141 53.9875-4.11141 54.2915-4.29141L81.5726-20.5014C81.8816-20.6814 82.2656-20.6914 82.5786-20.5114C82.8906-20.3314 83.0836-20.0014 83.0836-19.6414ZM85.5846-65.5813C80.6646-65.5813 76.6706-61.5913 76.6706-56.6713C76.6706-51.7613 80.6646-47.7613 85.5846-47.7613C90.5046-47.7613 94.4986-51.7613 94.4986-56.6713C94.4986-61.5913 90.5046-65.5813 85.5846-65.5813ZM30.7184-1.54142C31.3694-0.931422 31.8054 0.318575 31.9774 1.80857C32.3154 4.72857 31.8414 8.61856 31.8414 8.61856C31.7964 8.98856 31.5514 9.29855 31.2054 9.42855L13.9513 16.0085C13.5793 16.1485 13.1583 16.0585 12.8803 15.7785C12.6013 15.4885 12.5183 15.0685 12.6683 14.6985L19.3743-1.82142C19.5093-2.15142 19.8143-2.39142 20.1723-2.43142C20.1723-2.43142 24.2034-2.95142 27.2444-2.68142C28.7804-2.54142 30.0764-2.15142 30.7184-1.54142Z"/>
  </g>
  <g id="Thin-M" transform="matrix(1 0 0 1 795.317 1126)">
   <path class="monochrome-0 SFSymbolsPreview000000" d="M30.3264-16.1414C30.3264-16.1414 48.1735-47.1913 56.7235-57.2413C63.5825-65.3013 73.0545-72.5313 81.8816-76.6212C84.4526-77.8212 94.8906-80.9712 102.186-81.7012C104.133-81.8912 105.865-81.9112 107.186-81.7012C108.233-81.5312 109.052-81.1912 109.597-80.7412C110.209-80.2312 110.678-79.4312 110.97-78.3712C111.336-77.0412 111.439-75.2712 111.322-73.2313C110.891-65.6613 107.484-54.3113 105.067-49.7513C99.7586-39.7413 94.0346-32.9413 86.2936-26.6914C76.3006-18.6214 44.7964-1.34142 44.7964-1.34142C44.4034-1.12142 43.9144-1.19142 43.6004-1.51142L30.4774-14.9514C30.1654-15.2714 30.1034-15.7614 30.3264-16.1414ZM50.4505-52.6313L33.2754-25.2414C33.0924-24.9514 32.7734-24.7714 32.4294-24.7714L13.4423-24.7514C13.1333-24.7514 12.8423-24.8914 12.6523-25.1314C12.4623-25.3814 12.3953-25.6914 12.4713-25.9914L19.3663-53.4113C19.4783-53.8613 19.8783-54.1713 20.3364-54.1713L49.6035-54.1613C49.9675-54.1613 50.3025-53.9613 50.4785-53.6413C50.6545-53.3313 50.6435-52.9413 50.4505-52.6313ZM83.0836-19.6414L83.0366 9.27855C83.0356 9.73855 82.7226 10.1286 82.2766 10.2486L55.0825 16.9785C54.7845 17.0485 54.4695 16.9785 54.2275 16.7885C53.9855 16.5985 53.8435 16.3085 53.8425 16.0085L53.8025-3.42142C53.8015-3.78141 53.9875-4.11141 54.2915-4.29141L81.5726-20.5014C81.8816-20.6814 82.2656-20.6914 82.5786-20.5114C82.8906-20.3314 83.0836-20.0014 83.0836-19.6414ZM85.5846-65.5813C80.6646-65.5813 76.6706-61.5913 76.6706-56.6713C76.6706-51.7613 80.6646-47.7613 85.5846-47.7613C90.5046-47.7613 94.4986-51.7613 94.4986-56.6713C94.4986-61.5913 90.5046-65.5813 85.5846-65.5813ZM30.7184-1.54142C31.3694-0.931422 31.8054 0.318575 31.9774 1.80857C32.3154 4.72857 31.8414 8.61856 31.8414 8.61856C31.7964 8.98856 31.5514 9.29855 31.2054 9.42855L13.9513 16.0085C13.5793 16.1485 13.1583 16.0585 12.8803 15.7785C12.6013 15.4885 12.5183 15.0685 12.6683 14.6985L19.3743-1.82142C19.5093-2.15142 19.8143-2.39142 20.1723-2.43142C20.1723-2.43142 24.2034-2.95142 27.2444-2.68142C28.7804-2.54142 30.0764-2.15142 30.7184-1.54142Z"/>
  </g>
  <g id="Ultralight-M" transform="matrix(1 0 0 1 498.606 1126)">
   <path class="monochrome-0 SFSymbolsPreview000000" d="M30.3264-16.1414C30.3264-16.1414 48.1735-47.1913 56.7235-57.2413C63.5825-65.3013 73.0545-72.5313 81.8816-76.6212C84.4526-77.8212 94.8906-80.9712 102.186-81.7012C104.133-81.8912 105.865-81.9112 107.186-81.7012C108.233-81.5312 109.052-81.1912 109.597-80.7412C110.209-80.2312 110.678-79.4312 110.97-78.3712C111.336-77.0412 111.439-75.2712 111.322-73.2313C110.891-65.6613 107.484-54.3113 105.067-49.7513C99.7586-39.7413 94.0346-32.9413 86.2936-26.6914C76.3006-18.6214 44.7964-1.34142 44.7964-1.34142C44.4034-1.12142 43.9144-1.19142 43.6004-1.51142L30.4774-14.9514C30.1654-15.2714 30.1034-15.7614 30.3264-16.1414ZM50.4505-52.6313L33.2754-25.2414C33.0924-24.9514 32.7734-24.7714 32.4294-24.7714L13.4423-24.7514C13.1333-24.7514 12.8423-24.8914 12.6523-25.1314C12.4623-25.3814 12.3953-25.6914 12.4713-25.9914L19.3663-53.4113C19.4783-53.8613 19.8783-54.1713 20.3364-54.1713L49.6035-54.1613C49.9675-54.1613 50.3025-53.9613 50.4785-53.6413C50.6545-53.3313 50.6435-52.9413 50.4505-52.6313ZM83.0836-19.6414L83.0366 9.27855C83.0356 9.73855 82.7226 10.1286 82.2766 10.2486L55.0825 16.9785C54.7845 17.0485 54.4695 16.9785 54.2275 16.7885C53.9855 16.5985 53.8435 16.3085 53.8425 16.0085L53.8025-3.42142C53.8015-3.78141 53.9875-4.11141 54.2915-4.29141L81.5726-20.5014C81.8816-20.6814 82.2656-20.6914 82.5786-20.5114C82.8906-20.3314 83.0836-20.0014 83.0836-19.6414ZM85.5846-65.5813C80.6646-65.5813 76.6706-61.5913 76.6706-56.6713C76.6706-51.7613 80.6646-47.7613 85.5846-47.7613C90.5046-47.7613 94.4986-51.7613 94.4986-56.6713C94.4986-61.5913 90.5046-65.5813 85.5846-65.5813ZM30.7184-1.54142C31.3694-0.931422 31.8054 0.318575 31.9774 1.80857C32.3154 4.72857 31.8414 8.61856 31.8414 8.61856C31.7964 8.98856 31.5514 9.29855 31.2054 9.42855L13.9513 16.0085C13.5793 16.1485 13.1583 16.0585 12.8803 15.7785C12.6013 15.4885 12.5183 15.0685 12.6683 14.6985L19.3743-1.82142C19.5093-2.15142 19.8143-2.39142 20.1723-2.43142C20.1723-2.43142 24.2034-2.95142 27.2444-2.68142C28.7804-2.54142 30.0764-2.15142 30.7184-1.54142Z"/>
  </g>
  <g id="Black-S" transform="matrix(1 0 0 1 2882.12 696)">
   <path class="monochrome-0 SFSymbolsPreview000000" d="M26.6111-20.565C26.6111-20.565 40.7091-45.096 47.4611-53.038C52.9251-59.466 60.4721-65.229 67.5031-68.492C69.5561-69.445 77.8891-71.971 83.7131-72.552C85.3181-72.713 86.7451-72.723 87.8331-72.545C88.8101-72.385 89.5661-72.059 90.0741-71.634C90.6501-71.152 91.1091-70.408 91.3841-69.41C91.6891-68.307 91.7831-66.829 91.6861-65.131C91.3411-59.078 88.6131-49.995 86.6811-46.347C82.4521-38.364 77.8911-32.949 71.7251-27.963C63.8341-21.584 38.9611-7.922 38.9611-7.922C38.3701-7.598 37.6361-7.707 37.1661-8.189L26.8381-18.771C26.3701-19.251 26.2771-19.983 26.6111-20.565ZM41.2161-48.56L27.4921-26.984C27.2171-26.552 26.7401-26.29 26.2281-26.289L13.9421-26.274C13.4801-26.274 13.0431-26.486 12.7581-26.851C12.4731-27.216 12.3731-27.691 12.4861-28.14L17.9121-49.736C18.0801-50.403 18.6801-50.871 19.3671-50.871L39.9511-50.865C40.4981-50.865 41.0021-50.566 41.2651-50.087C41.5291-49.607 41.5101-49.022 41.2161-48.56ZM69.4541-20.386L69.4261-0.186C69.4251 0.503 68.9551 1.102 68.2861 1.268L46.8851 6.569C46.4371 6.679 45.9641 6.579 45.6011 6.295C45.2381 6.011 45.0251 5.576 45.0241 5.116L44.9981-7.709C44.9971-8.24 45.2781-8.733 45.7351-9.003L67.1911-21.68C67.6551-21.954 68.2301-21.958 68.6981-21.691C69.1661-21.423 69.4541-20.925 69.4541-20.386ZM70.7181-59.86C66.4531-59.86 62.9901-56.397 62.9901-52.132C62.9901-47.866 66.4531-44.403 70.7181-44.403C74.9841-44.403 78.4471-47.866 78.4471-52.132C78.4471-56.397 74.9841-59.86 70.7181-59.86ZM28.0271-9.228C28.6281-8.662 29.0781-7.527 29.2371-6.15C29.5121-3.777 29.1301-0.619 29.1301-0.619C29.0621-0.068 28.6951 0.401 28.1761 0.599L14.5961 5.785C14.0391 5.998 13.4081 5.86 12.9901 5.433C12.5721 5.007 12.4471 4.373 12.6711 3.82L17.9491-9.194C18.1521-9.695 18.6101-10.048 19.1471-10.117C19.1471-10.117 22.4081-10.534 24.8681-10.313C26.2721-10.186 27.4411-9.781 28.0271-9.228Z"/>
  </g>
  <g id="Heavy-S" transform="matrix(1 0 0 1 2585.41 696)">
   <path class="monochrome-0 SFSymbolsPreview000000" d="M26.6111-20.565C26.6111-20.565 40.7091-45.096 47.4611-53.038C52.9251-59.466 60.4721-65.229 67.5031-68.492C69.5561-69.445 77.8891-71.971 83.7131-72.552C85.3181-72.713 86.7451-72.723 87.8331-72.545C88.8101-72.385 89.5661-72.059 90.0741-71.634C90.6501-71.152 91.1091-70.408 91.3841-69.41C91.6891-68.307 91.7831-66.829 91.6861-65.131C91.3411-59.078 88.6131-49.995 86.6811-46.347C82.4521-38.364 77.8911-32.949 71.7251-27.963C63.8341-21.584 38.9611-7.922 38.9611-7.922C38.3701-7.598 37.6361-7.707 37.1661-8.189L26.8381-18.771C26.3701-19.251 26.2771-19.983 26.6111-20.565ZM41.2161-48.56L27.4921-26.984C27.2171-26.552 26.7401-26.29 26.2281-26.289L13.9421-26.274C13.4801-26.274 13.0431-26.486 12.7581-26.851C12.4731-27.216 12.3731-27.691 12.4861-28.14L17.9121-49.736C18.0801-50.403 18.6801-50.871 19.3671-50.871L39.9511-50.865C40.4981-50.865 41.0021-50.566 41.2651-50.087C41.5291-49.607 41.5101-49.022 41.2161-48.56ZM69.4541-20.386L69.4261-0.186C69.4251 0.503 68.9551 1.102 68.2861 1.268L46.8851 6.569C46.4371 6.679 45.9641 6.579 45.6011 6.295C45.2381 6.011 45.0251 5.576 45.0241 5.116L44.9981-7.709C44.9971-8.24 45.2781-8.733 45.7351-9.003L67.1911-21.68C67.6551-21.954 68.2301-21.958 68.6981-21.691C69.1661-21.423 69.4541-20.925 69.4541-20.386ZM70.7181-59.86C66.4531-59.86 62.9901-56.397 62.9901-52.132C62.9901-47.866 66.4531-44.403 70.7181-44.403C74.9841-44.403 78.4471-47.866 78.4471-52.132C78.4471-56.397 74.9841-59.86 70.7181-59.86ZM28.0271-9.228C28.6281-8.662 29.0781-7.527 29.2371-6.15C29.5121-3.777 29.1301-0.619 29.1301-0.619C29.0621-0.068 28.6951 0.401 28.1761 0.599L14.5961 5.785C14.0391 5.998 13.4081 5.86 12.9901 5.433C12.5721 5.007 12.4471 4.373 12.6711 3.82L17.9491-9.194C18.1521-9.695 18.6101-10.048 19.1471-10.117C19.1471-10.117 22.4081-10.534 24.8681-10.313C26.2721-10.186 27.4411-9.781 28.0271-9.228Z"/>
  </g>
  <g id="Bold-S" transform="matrix(1 0 0 1 2288.7 696)">
   <path class="monochrome-0 SFSymbolsPreview000000" d="M26.6111-20.565C26.6111-20.565 40.7091-45.096 47.4611-53.038C52.9251-59.466 60.4721-65.229 67.5031-68.492C69.5561-69.445 77.8891-71.971 83.7131-72.552C85.3181-72.713 86.7451-72.723 87.8331-72.545C88.8101-72.385 89.5661-72.059 90.0741-71.634C90.6501-71.152 91.1091-70.408 91.3841-69.41C91.6891-68.307 91.7831-66.829 91.6861-65.131C91.3411-59.078 88.6131-49.995 86.6811-46.347C82.4521-38.364 77.8911-32.949 71.7251-27.963C63.8341-21.584 38.9611-7.922 38.9611-7.922C38.3701-7.598 37.6361-7.707 37.1661-8.189L26.8381-18.771C26.3701-19.251 26.2771-19.983 26.6111-20.565ZM41.2161-48.56L27.4921-26.984C27.2171-26.552 26.7401-26.29 26.2281-26.289L13.9421-26.274C13.4801-26.274 13.0431-26.486 12.7581-26.851C12.4731-27.216 12.3731-27.691 12.4861-28.14L17.9121-49.736C18.0801-50.403 18.6801-50.871 19.3671-50.871L39.9511-50.865C40.4981-50.865 41.0021-50.566 41.2651-50.087C41.5291-49.607 41.5101-49.022 41.2161-48.56ZM69.4541-20.386L69.4261-0.186C69.4251 0.503 68.9551 1.102 68.2861 1.268L46.8851 6.569C46.4371 6.679 45.9641 6.579 45.6011 6.295C45.2381 6.011 45.0251 5.576 45.0241 5.116L44.9981-7.709C44.9971-8.24 45.2781-8.733 45.7351-9.003L67.1911-21.68C67.6551-21.954 68.2301-21.958 68.6981-21.691C69.1661-21.423 69.4541-20.925 69.4541-20.386ZM70.7181-59.86C66.4531-59.86 62.9901-56.397 62.9901-52.132C62.9901-47.866 66.4531-44.403 70.7181-44.403C74.9841-44.403 78.4471-47.866 78.4471-52.132C78.4471-56.397 74.9841-59.86 70.7181-59.86ZM28.0271-9.228C28.6281-8.662 29.0781-7.527 29.2371-6.15C29.5121-3.777 29.1301-0.619 29.1301-0.619C29.0621-0.068 28.6951 0.401 28.1761 0.599L14.5961 5.785C14.0391 5.998 13.4081 5.86 12.9901 5.433C12.5721 5.007 12.4471 4.373 12.6711 3.82L17.9491-9.194C18.1521-9.695 18.6101-10.048 19.1471-10.117C19.1471-10.117 22.4081-10.534 24.8681-10.313C26.2721-10.186 27.4411-9.781 28.0271-9.228Z"/>
  </g>
  <g id="Semibold-S" transform="matrix(1 0 0 1 1991.98 696)">
   <path class="monochrome-0 SFSymbolsPreview000000" d="M26.6111-20.565C26.6111-20.565 40.7091-45.096 47.4611-53.038C52.9251-59.466 60.4721-65.229 67.5031-68.492C69.5561-69.445 77.8891-71.971 83.7131-72.552C85.3181-72.713 86.7451-72.723 87.8331-72.545C88.8101-72.385 89.5661-72.059 90.0741-71.634C90.6501-71.152 91.1091-70.408 91.3841-69.41C91.6891-68.307 91.7831-66.829 91.6861-65.131C91.3411-59.078 88.6131-49.995 86.6811-46.347C82.4521-38.364 77.8911-32.949 71.7251-27.963C63.8341-21.584 38.9611-7.922 38.9611-7.922C38.3701-7.598 37.6361-7.707 37.1661-8.189L26.8381-18.771C26.3701-19.251 26.2771-19.983 26.6111-20.565ZM41.2161-48.56L27.4921-26.984C27.2171-26.552 26.7401-26.29 26.2281-26.289L13.9421-26.274C13.4801-26.274 13.0431-26.486 12.7581-26.851C12.4731-27.216 12.3731-27.691 12.4861-28.14L17.9121-49.736C18.0801-50.403 18.6801-50.871 19.3671-50.871L39.9511-50.865C40.4981-50.865 41.0021-50.566 41.2651-50.087C41.5291-49.607 41.5101-49.022 41.2161-48.56ZM69.4541-20.386L69.4261-0.186C69.4251 0.503 68.9551 1.102 68.2861 1.268L46.8851 6.569C46.4371 6.679 45.9641 6.579 45.6011 6.295C45.2381 6.011 45.0251 5.576 45.0241 5.116L44.9981-7.709C44.9971-8.24 45.2781-8.733 45.7351-9.003L67.1911-21.68C67.6551-21.954 68.2301-21.958 68.6981-21.691C69.1661-21.423 69.4541-20.925 69.4541-20.386ZM70.7181-59.86C66.4531-59.86 62.9901-56.397 62.9901-52.132C62.9901-47.866 66.4531-44.403 70.7181-44.403C74.9841-44.403 78.4471-47.866 78.4471-52.132C78.4471-56.397 74.9841-59.86 70.7181-59.86ZM28.0271-9.228C28.6281-8.662 29.0781-7.527 29.2371-6.15C29.5121-3.777 29.1301-0.619 29.1301-0.619C29.0621-0.068 28.6951 0.401 28.1761 0.599L14.5961 5.785C14.0391 5.998 13.4081 5.86 12.9901 5.433C12.5721 5.007 12.4471 4.373 12.6711 3.82L17.9491-9.194C18.1521-9.695 18.6101-10.048 19.1471-10.117C19.1471-10.117 22.4081-10.534 24.8681-10.313C26.2721-10.186 27.4411-9.781 28.0271-9.228Z"/>
  </g>
  <g id="Medium-S" transform="matrix(1 0 0 1 1695.27 696)">
   <path class="monochrome-0 SFSymbolsPreview000000" d="M26.6111-20.565C26.6111-20.565 40.7091-45.096 47.4611-53.038C52.9251-59.466 60.4721-65.229 67.5031-68.492C69.5561-69.445 77.8891-71.971 83.7131-72.552C85.3181-72.713 86.7451-72.723 87.8331-72.545C88.8101-72.385 89.5661-72.059 90.0741-71.634C90.6501-71.152 91.1091-70.408 91.3841-69.41C91.6891-68.307 91.7831-66.829 91.6861-65.131C91.3411-59.078 88.6131-49.995 86.6811-46.347C82.4521-38.364 77.8911-32.949 71.7251-27.963C63.8341-21.584 38.9611-7.922 38.9611-7.922C38.3701-7.598 37.6361-7.707 37.1661-8.189L26.8381-18.771C26.3701-19.251 26.2771-19.983 26.6111-20.565ZM41.2161-48.56L27.4921-26.984C27.2171-26.552 26.7401-26.29 26.2281-26.289L13.9421-26.274C13.4801-26.274 13.0431-26.486 12.7581-26.851C12.4731-27.216 12.3731-27.691 12.4861-28.14L17.9121-49.736C18.0801-50.403 18.6801-50.871 19.3671-50.871L39.9511-50.865C40.4981-50.865 41.0021-50.566 41.2651-50.087C41.5291-49.607 41.5101-49.022 41.2161-48.56ZM69.4541-20.386L69.4261-0.186C69.4251 0.503 68.9551 1.102 68.2861 1.268L46.8851 6.569C46.4371 6.679 45.9641 6.579 45.6011 6.295C45.2381 6.011 45.0251 5.576 45.0241 5.116L44.9981-7.709C44.9971-8.24 45.2781-8.733 45.7351-9.003L67.1911-21.68C67.6551-21.954 68.2301-21.958 68.6981-21.691C69.1661-21.423 69.4541-20.925 69.4541-20.386ZM70.7181-59.86C66.4531-59.86 62.9901-56.397 62.9901-52.132C62.9901-47.866 66.4531-44.403 70.7181-44.403C74.9841-44.403 78.4471-47.866 78.4471-52.132C78.4471-56.397 74.9841-59.86 70.7181-59.86ZM28.0271-9.228C28.6281-8.662 29.0781-7.527 29.2371-6.15C29.5121-3.777 29.1301-0.619 29.1301-0.619C29.0621-0.068 28.6951 0.401 28.1761 0.599L14.5961 5.785C14.0391 5.998 13.4081 5.86 12.9901 5.433C12.5721 5.007 12.4471 4.373 12.6711 3.82L17.9491-9.194C18.1521-9.695 18.6101-10.048 19.1471-10.117C19.1471-10.117 22.4081-10.534 24.8681-10.313C26.2721-10.186 27.4411-9.781 28.0271-9.228Z"/>
  </g>
  <g id="Regular-S" transform="matrix(1 0 0 1 1398.56 696)">
   <path class="monochrome-0 SFSymbolsPreview000000" d="M26.6111-20.565C26.6111-20.565 40.7091-45.096 47.4611-53.038C52.9251-59.466 60.4721-65.229 67.5031-68.492C69.5561-69.445 77.8891-71.971 83.7131-72.552C85.3181-72.713 86.7451-72.723 87.8331-72.545C88.8101-72.385 89.5661-72.059 90.0741-71.634C90.6501-71.152 91.1091-70.408 91.3841-69.41C91.6891-68.307 91.7831-66.829 91.6861-65.131C91.3411-59.078 88.6131-49.995 86.6811-46.347C82.4521-38.364 77.8911-32.949 71.7251-27.963C63.8341-21.584 38.9611-7.922 38.9611-7.922C38.3701-7.598 37.6361-7.707 37.1661-8.189L26.8381-18.771C26.3701-19.251 26.2771-19.983 26.6111-20.565ZM41.2161-48.56L27.4921-26.984C27.2171-26.552 26.7401-26.29 26.2281-26.289L13.9421-26.274C13.4801-26.274 13.0431-26.486 12.7581-26.851C12.4731-27.216 12.3731-27.691 12.4861-28.14L17.9121-49.736C18.0801-50.403 18.6801-50.871 19.3671-50.871L39.9511-50.865C40.4981-50.865 41.0021-50.566 41.2651-50.087C41.5291-49.607 41.5101-49.022 41.2161-48.56ZM69.4541-20.386L69.4261-0.186C69.4251 0.503 68.9551 1.102 68.2861 1.268L46.8851 6.569C46.4371 6.679 45.9641 6.579 45.6011 6.295C45.2381 6.011 45.0251 5.576 45.0241 5.116L44.9981-7.709C44.9971-8.24 45.2781-8.733 45.7351-9.003L67.1911-21.68C67.6551-21.954 68.2301-21.958 68.6981-21.691C69.1661-21.423 69.4541-20.925 69.4541-20.386ZM70.7181-59.86C66.4531-59.86 62.9901-56.397 62.9901-52.132C62.9901-47.866 66.4531-44.403 70.7181-44.403C74.9841-44.403 78.4471-47.866 78.4471-52.132C78.4471-56.397 74.9841-59.86 70.7181-59.86ZM28.0271-9.228C28.6281-8.662 29.0781-7.527 29.2371-6.15C29.5121-3.777 29.1301-0.619 29.1301-0.619C29.0621-0.068 28.6951 0.401 28.1761 0.599L14.5961 5.785C14.0391 5.998 13.4081 5.86 12.9901 5.433C12.5721 5.007 12.4471 4.373 12.6711 3.82L17.9491-9.194C18.1521-9.695 18.6101-10.048 19.1471-10.117C19.1471-10.117 22.4081-10.534 24.8681-10.313C26.2721-10.186 27.4411-9.781 28.0271-9.228Z"/>
  </g>
  <g id="Light-S" transform="matrix(1 0 0 1 1101.85 696)">
   <path class="monochrome-0 SFSymbolsPreview000000" d="M26.6111-20.565C26.6111-20.565 40.7091-45.096 47.4611-53.038C52.9251-59.466 60.4721-65.229 67.5031-68.492C69.5561-69.445 77.8891-71.971 83.7131-72.552C85.3181-72.713 86.7451-72.723 87.8331-72.545C88.8101-72.385 89.5661-72.059 90.0741-71.634C90.6501-71.152 91.1091-70.408 91.3841-69.41C91.6891-68.307 91.7831-66.829 91.6861-65.131C91.3411-59.078 88.6131-49.995 86.6811-46.347C82.4521-38.364 77.8911-32.949 71.7251-27.963C63.8341-21.584 38.9611-7.922 38.9611-7.922C38.3701-7.598 37.6361-7.707 37.1661-8.189L26.8381-18.771C26.3701-19.251 26.2771-19.983 26.6111-20.565ZM41.2161-48.56L27.4921-26.984C27.2171-26.552 26.7401-26.29 26.2281-26.289L13.9421-26.274C13.4801-26.274 13.0431-26.486 12.7581-26.851C12.4731-27.216 12.3731-27.691 12.4861-28.14L17.9121-49.736C18.0801-50.403 18.6801-50.871 19.3671-50.871L39.9511-50.865C40.4981-50.865 41.0021-50.566 41.2651-50.087C41.5291-49.607 41.5101-49.022 41.2161-48.56ZM69.4541-20.386L69.4261-0.186C69.4251 0.503 68.9551 1.102 68.2861 1.268L46.8851 6.569C46.4371 6.679 45.9641 6.579 45.6011 6.295C45.2381 6.011 45.0251 5.576 45.0241 5.116L44.9981-7.709C44.9971-8.24 45.2781-8.733 45.7351-9.003L67.1911-21.68C67.6551-21.954 68.2301-21.958 68.6981-21.691C69.1661-21.423 69.4541-20.925 69.4541-20.386ZM70.7181-59.86C66.4531-59.86 62.9901-56.397 62.9901-52.132C62.9901-47.866 66.4531-44.403 70.7181-44.403C74.9841-44.403 78.4471-47.866 78.4471-52.132C78.4471-56.397 74.9841-59.86 70.7181-59.86ZM28.0271-9.228C28.6281-8.662 29.0781-7.527 29.2371-6.15C29.5121-3.777 29.1301-0.619 29.1301-0.619C29.0621-0.068 28.6951 0.401 28.1761 0.599L14.5961 5.785C14.0391 5.998 13.4081 5.86 12.9901 5.433C12.5721 5.007 12.4471 4.373 12.6711 3.82L17.9491-9.194C18.1521-9.695 18.6101-10.048 19.1471-10.117C19.1471-10.117 22.4081-10.534 24.8681-10.313C26.2721-10.186 27.4411-9.781 28.0271-9.228Z"/>
  </g>
  <g id="Thin-S" transform="matrix(1 0 0 1 805.14 696)">
   <path class="monochrome-0 SFSymbolsPreview000000" d="M26.6111-20.565C26.6111-20.565 40.7091-45.096 47.4611-53.038C52.9251-59.466 60.4721-65.229 67.5031-68.492C69.5561-69.445 77.8891-71.971 83.7131-72.552C85.3181-72.713 86.7451-72.723 87.8331-72.545C88.8101-72.385 89.5661-72.059 90.0741-71.634C90.6501-71.152 91.1091-70.408 91.3841-69.41C91.6891-68.307 91.7831-66.829 91.6861-65.131C91.3411-59.078 88.6131-49.995 86.6811-46.347C82.4521-38.364 77.8911-32.949 71.7251-27.963C63.8341-21.584 38.9611-7.922 38.9611-7.922C38.3701-7.598 37.6361-7.707 37.1661-8.189L26.8381-18.771C26.3701-19.251 26.2771-19.983 26.6111-20.565ZM41.2161-48.56L27.4921-26.984C27.2171-26.552 26.7401-26.29 26.2281-26.289L13.9421-26.274C13.4801-26.274 13.0431-26.486 12.7581-26.851C12.4731-27.216 12.3731-27.691 12.4861-28.14L17.9121-49.736C18.0801-50.403 18.6801-50.871 19.3671-50.871L39.9511-50.865C40.4981-50.865 41.0021-50.566 41.2651-50.087C41.5291-49.607 41.5101-49.022 41.2161-48.56ZM69.4541-20.386L69.4261-0.186C69.4251 0.503 68.9551 1.102 68.2861 1.268L46.8851 6.569C46.4371 6.679 45.9641 6.579 45.6011 6.295C45.2381 6.011 45.0251 5.576 45.0241 5.116L44.9981-7.709C44.9971-8.24 45.2781-8.733 45.7351-9.003L67.1911-21.68C67.6551-21.954 68.2301-21.958 68.6981-21.691C69.1661-21.423 69.4541-20.925 69.4541-20.386ZM70.7181-59.86C66.4531-59.86 62.9901-56.397 62.9901-52.132C62.9901-47.866 66.4531-44.403 70.7181-44.403C74.9841-44.403 78.4471-47.866 78.4471-52.132C78.4471-56.397 74.9841-59.86 70.7181-59.86ZM28.0271-9.228C28.6281-8.662 29.0781-7.527 29.2371-6.15C29.5121-3.777 29.1301-0.619 29.1301-0.619C29.0621-0.068 28.6951 0.401 28.1761 0.599L14.5961 5.785C14.0391 5.998 13.4081 5.86 12.9901 5.433C12.5721 5.007 12.4471 4.373 12.6711 3.82L17.9491-9.194C18.1521-9.695 18.6101-10.048 19.1471-10.117C19.1471-10.117 22.4081-10.534 24.8681-10.313C26.2721-10.186 27.4411-9.781 28.0271-9.228Z"/>
  </g>
  <g id="Ultralight-S" transform="matrix(1 0 0 1 508.929 696)">
   <path class="monochrome-0 SFSymbolsPreview000000" d="M26.5447-27.491C26.5447-27.491 40.6057-51.966 47.3417-59.889C52.7597-66.262 60.2417-71.977 67.2137-75.213C69.2467-76.156 77.4967-78.654 83.2627-79.23C84.8167-79.385 86.1987-79.398 87.2527-79.226C88.1227-79.084 88.8007-78.803 89.2537-78.425C89.7627-77.999 90.1587-77.334 90.4027-76.452C90.6947-75.39 90.7797-73.968 90.6867-72.334C90.3447-66.347 87.6507-57.363 85.7387-53.756C81.5457-45.841 77.0247-40.47 70.9097-35.527C63.0377-29.162 38.2207-15.535 38.2207-15.535C37.8267-15.319 37.3377-15.391 37.0237-15.713L26.6957-26.295C26.3837-26.615 26.3217-27.103 26.5447-27.491ZM42.1247-55.999L28.2527-34.425C28.0687-34.14 27.7527-33.967 27.4127-33.966L13.4417-33.949C13.1337-33.948 12.8417-34.09 12.6517-34.333C12.4627-34.576 12.3957-34.893 12.4707-35.192L17.8967-56.789C18.0087-57.234 18.4087-57.545 18.8677-57.545L41.2837-57.54C41.6497-57.539 41.9867-57.34 42.1617-57.019C42.3367-56.697 42.3227-56.306 42.1247-55.999ZM45.4777-17.783L66.9487-30.427C67.2587-30.609 67.6417-30.612 67.9527-30.433C68.2647-30.255 68.4567-29.923 68.4567-29.564L68.4257-7.362C68.4247-6.902 68.1117-6.503 67.6657-6.392L46.2647-1.091C45.9667-1.017 45.6507-1.085 45.4087-1.274C45.1667-1.463 45.0247-1.752 45.0237-2.059L44.9847-16.918C44.9837-17.274 45.1717-17.603 45.4777-17.783ZM70.2187-66.534C66.2287-66.534 62.9897-63.295 62.9897-59.306C62.9897-55.317 66.2287-52.078 70.2187-52.078C74.2077-52.078 77.4467-55.317 77.4467-59.306C77.4467-63.295 74.2077-66.534 70.2187-66.534ZM27.1847-16.039C27.7227-15.531 28.0977-14.502 28.2407-13.267C28.5087-10.945 28.1337-7.855 28.1337-7.855C28.0887-7.487 27.8437-7.175 27.4977-7.043L13.9177-1.857C13.5467-1.715 13.1257-1.807 12.8467-2.091C12.5687-2.376 12.4847-2.798 12.6347-3.167L17.9127-16.18C18.0477-16.515 18.3527-16.75 18.7107-16.796C18.7107-16.796 21.9097-17.207 24.3237-16.989C25.5907-16.875 26.6547-16.538 27.1847-16.039Z"/>
  </g>
 </g>
</svg>
